<?xml version="1.0" encoding="utf-8"?>
<!-- Generator: Adobe Illustrator 23.0.1, SVG Export Plug-In . SVG Version: 6.00 Build 0)  -->
<svg version="1.1" id="Layer_1" xmlns="http://www.w3.org/2000/svg" xmlns:xlink="http://www.w3.org/1999/xlink" x="0px" y="0px"
	 viewBox="0 0 250 100" style="enable-background:new 0 0 250 100;" xml:space="preserve">
<style type="text/css">
	.st0{fill:#FEFEFE;}
	.st1{fill:#F1C409;}
	.st2{fill:#EABE07;}
	.st3{fill:#F0C206;}
	.st4{fill:#CAA614;}
	.st5{fill:#D0AB11;}
	.st6{fill:#E2B80B;}
	.st7{fill:#D4AE10;}
	.st8{fill:#DBB30D;}
	.st9{fill:#D8B10E;}
	.st10{fill:#CDA912;}
	.st11{fill:#E6BB09;}
	.st12{fill:#EDC106;}
	.st13{fill:#F1C50C;}
	.st14{fill:#F1C50D;}
	.st15{fill:#F1C50B;}
	.st16{fill:#F2C613;}
	.st17{fill:#F2C714;}
	.st18{fill:#F2C610;}
	.st19{fill:#F2C819;}
	.st20{fill:#F2C715;}
	.st21{fill:#F3CA23;}
	.st22{fill:#F5D552;}
	.st23{fill:#F4CF36;}
	.st24{fill:#FCF4D2;}
	.st25{fill:#FDFCFA;}
	.st26{fill:#FEFDFC;}
	.st27{fill:#FDFBF0;}
	.st28{fill:#FDF9E8;}
</style>
<g>
	<g>
		<path class="st0" d="M250.15,94.82c-83.35,0-166.7,0-250.06,0c0-29.78,0-59.57,0-89.35c83.35,0,166.7,0,250.06,0
			C250.15,35.25,250.15,65.04,250.15,94.82z M125.31,21.81C125.31,21.81,125.31,21.8,125.31,21.81c-0.06-0.07-0.12-0.14-0.18-0.21
			c-0.68-0.68-1.36-1.37-2.05-2.05c-0.1-0.09-0.21-0.18-0.31-0.28l0,0c-0.16-0.12-0.33-0.25-0.49-0.37
			c-0.21-0.18-0.43-0.36-0.64-0.54c-0.08-0.06-0.15-0.11-0.23-0.17c-0.48-0.33-0.96-0.66-1.44-1c-0.08-0.04-0.16-0.09-0.24-0.13
			c-0.02-0.03-0.04-0.04-0.06-0.06c-0.08-0.04-0.15-0.08-0.23-0.12c-0.04-0.03-0.09-0.07-0.13-0.1c-0.08-0.05-0.16-0.11-0.24-0.16
			c-0.07-0.03-0.14-0.06-0.21-0.09c-0.1-0.06-0.2-0.11-0.3-0.17c-0.01-0.02-0.04-0.04-0.06-0.05c-0.08-0.05-0.15-0.1-0.23-0.15
			c-0.12-0.05-0.23-0.1-0.35-0.15c-0.21-0.11-0.42-0.23-0.62-0.34c-0.06-0.03-0.13-0.07-0.19-0.1c-0.07-0.03-0.13-0.06-0.2-0.09
			c-0.18-0.08-0.36-0.17-0.54-0.25c-0.21-0.11-0.42-0.21-0.63-0.32c-0.21-0.09-0.43-0.18-0.64-0.26c-0.12-0.19-0.22-0.22-0.3,0.03
			c0.33,0.38,0.65,0.77,0.98,1.15c0.09,0.09,0.19,0.18,0.28,0.27c0.23,0.27,0.45,0.54,0.68,0.81c0.06,0.07,0.11,0.15,0.17,0.22
			c0.01,0.03,0.03,0.05,0.05,0.06c0.05,0.07,0.1,0.15,0.16,0.22c0.11,0.12,0.21,0.25,0.32,0.37c0.05,0.08,0.1,0.16,0.16,0.23
			c0.15,0.18,0.3,0.36,0.44,0.54c0.18,0.27,0.36,0.55,0.54,0.82c0.08,0.12,0.17,0.23,0.25,0.35c0.05,0.07,0.1,0.15,0.15,0.22
			c0.01,0.03,0.03,0.05,0.05,0.07c0.07,0.12,0.13,0.24,0.2,0.36c0.09,0.14,0.19,0.29,0.28,0.43c0.08,0.12,0.15,0.23,0.23,0.35
			c0.06,0.11,0.12,0.22,0.19,0.34c-0.02,0.19-0.04,0.37-0.06,0.56c-0.09-0.01-0.19-0.02-0.28-0.03c-0.1-0.06-0.2-0.11-0.31-0.17
			c-0.18-0.09-0.36-0.18-0.54-0.27c-0.15-0.07-0.29-0.14-0.44-0.21c-0.21-0.09-0.43-0.18-0.64-0.27c-0.08-0.04-0.16-0.07-0.24-0.11
			c-0.05-0.03-0.1-0.06-0.15-0.09c-0.14-0.05-0.28-0.1-0.43-0.16c0,0-0.01-0.01-0.01-0.01c-0.16-0.08-0.32-0.15-0.47-0.23
			c-0.05-0.01-0.1-0.01-0.15-0.02c-0.18-0.07-0.36-0.15-0.54-0.22c-0.01-0.02-0.03-0.04-0.06-0.05c-0.18-0.07-0.36-0.14-0.53-0.21
			c-0.09-0.01-0.19-0.02-0.28-0.03c-0.1-0.05-0.2-0.1-0.31-0.15c-0.06-0.01-0.12-0.02-0.19-0.03c-0.36-0.14-0.72-0.27-1.08-0.41
			c-0.13-0.03-0.26-0.06-0.39-0.09c-0.13-0.05-0.26-0.1-0.39-0.14c-0.12-0.03-0.24-0.07-0.36-0.1c-0.44-0.13-0.88-0.27-1.31-0.4
			c-0.15-0.03-0.3-0.06-0.45-0.09c-0.14-0.03-0.28-0.06-0.42-0.1c-0.13-0.02-0.26-0.03-0.4-0.05c-0.26-0.09-0.53-0.18-0.79-0.27
			c-0.09-0.01-0.19-0.02-0.28-0.03c-0.13-0.05-0.27-0.1-0.4-0.16c-0.13-0.01-0.25-0.02-0.38-0.04c-0.46-0.13-0.92-0.26-1.37-0.39
			c-0.16-0.04-0.32-0.07-0.48-0.11c-0.1-0.05-0.21-0.1-0.31-0.15c-0.12-0.03-0.24-0.05-0.36-0.08c-0.14-0.06-0.28-0.11-0.41-0.17
			c-0.02-0.02-0.04-0.03-0.06-0.04c-0.11-0.04-0.23-0.08-0.34-0.11c-0.13-0.04-0.25-0.09-0.38-0.13c-0.46-0.2-0.92-0.39-1.37-0.59
			c-0.21-0.08-0.42-0.17-0.64-0.25c-0.12-0.07-0.23-0.14-0.35-0.22c-0.02-0.03-0.04-0.04-0.06-0.06c-0.11-0.04-0.22-0.08-0.33-0.13
			c-0.31-0.19-0.62-0.39-0.93-0.58c-0.12,0-0.24-0.01-0.36-0.01c0.03,0.06,0.07,0.11,0.1,0.17l0.01,0.01
			c0.07,0.1,0.14,0.19,0.2,0.29c0.15,0.18,0.29,0.37,0.44,0.55c0.05,0.07,0.1,0.15,0.16,0.22c0.01,0.03,0.02,0.05,0.05,0.07
			c0.08,0.1,0.17,0.21,0.25,0.31c0.11,0.12,0.22,0.25,0.32,0.37c0.05,0.07,0.1,0.15,0.16,0.22c0.27,0.32,0.55,0.63,0.82,0.95
			c0.09,0.11,0.17,0.21,0.26,0.32c0.75,0.75,1.5,1.49,2.25,2.24c0.11,0.08,0.21,0.16,0.32,0.24c0.24,0.21,0.47,0.41,0.71,0.62
			c-0.1,0.42-0.4,0.18-0.63,0.19c-0.09,0-0.17-0.01-0.26-0.01c-0.37-0.1-0.75-0.2-1.12-0.3c-0.13-0.01-0.25-0.03-0.38-0.04
			c-0.2-0.05-0.39-0.1-0.59-0.15c-0.18-0.01-0.36-0.01-0.54-0.02c-0.38-0.06-0.76-0.12-1.14-0.17c-0.06-0.01-0.13-0.02-0.19-0.03
			c-0.05-0.03-0.1-0.09-0.16-0.1c-0.8-0.07-1.59-0.13-2.39-0.19c-0.68-0.01-1.36-0.02-2.04-0.03c-0.54-0.06-1.08-0.18-1.62-0.18
			c-1.42,0-2.84,0.05-4.26,0.09c-0.09,0-0.18,0.06-0.27,0.1c-0.52,0-1.05,0-1.57,0c-0.11,0.04-0.22,0.07-0.33,0.11
			c0.09,0.06,0.17,0.12,0.26,0.19c0.13,0.02,0.25,0.03,0.38,0.05c0.16,0.05,0.33,0.09,0.49,0.14c0.05,0,0.11,0,0.16,0.01
			c0.14,0.06,0.28,0.12,0.43,0.18c0.08,0.01,0.17,0.02,0.25,0.02c0.31,0.1,0.62,0.2,0.93,0.3c0.27,0.06,0.55,0.13,0.82,0.19
			c0.21,0.08,0.43,0.15,0.64,0.23c0.1,0.03,0.19,0.07,0.29,0.1c0.13,0.05,0.27,0.1,0.4,0.15c0.06,0.01,0.12,0.03,0.18,0.04
			c0.49,0.2,0.98,0.4,1.47,0.6c0.07,0.02,0.13,0.04,0.2,0.07c0.26,0.13,0.53,0.25,0.79,0.38c0.09,0.04,0.19,0.08,0.28,0.12
			c0.07,0.03,0.13,0.06,0.2,0.09c0.09,0.05,0.17,0.1,0.26,0.14c0.08,0.04,0.16,0.07,0.24,0.11c0.05,0.03,0.1,0.06,0.15,0.09
			c0.21,0.12,0.41,0.25,0.62,0.37c0.02,0.02,0.04,0.03,0.06,0.03c0.25,0.2,0.03,0.31-0.08,0.44c-0.17,0.03-0.35,0.07-0.52,0.08
			c-0.73,0.01-1.46,0.01-2.19,0.02c-0.23,0-0.46,0-0.69,0c-0.57,0-1.15-0.01-1.72-0.01c-0.08-0.05-0.16-0.13-0.24-0.14
			c-1.08-0.06-2.15-0.12-3.23-0.17c-0.22-0.01-0.45-0.02-0.67-0.03c-0.17-0.05-0.33-0.1-0.5-0.15c-0.19-0.01-0.38-0.03-0.58-0.04
			c-0.07-0.06-0.13-0.16-0.21-0.18c-0.52-0.09-1.03-0.16-1.55-0.23c-0.16-0.03-0.32-0.07-0.48-0.1c-0.1-0.05-0.21-0.1-0.31-0.14
			c-0.06-0.01-0.12-0.02-0.19-0.04c-0.33-0.13-0.66-0.25-0.99-0.38c-0.05-0.03-0.09-0.06-0.14-0.09c-0.08-0.04-0.17-0.08-0.25-0.11
			c-0.12-0.05-0.23-0.11-0.35-0.16c-0.11-0.02-0.23-0.04-0.34-0.07c0.07,0.13,0.13,0.27,0.2,0.4c0.05,0.05,0.09,0.11,0.14,0.16
			c0.09,0.13,0.18,0.27,0.27,0.4c0.11,0.13,0.21,0.25,0.32,0.38c0.05,0.08,0.1,0.16,0.14,0.24c0.17,0.22,0.34,0.44,0.51,0.65
			c0.06,0.07,0.12,0.14,0.19,0.21c0.1,0.12,0.2,0.25,0.31,0.37c0.13,0.17,0.25,0.34,0.38,0.51c0.54,0.61,1.08,1.22,1.62,1.83
			c0.08,0.11,0.16,0.22,0.23,0.33c1.34,1.31,2.67,2.61,4.01,3.92c1.15,1.13,2.47,1.96,4.07,2.32c0.97,0.22,1.93,0.5,2.91,0.68
			c1.28,0.25,2.58,0.46,3.87,0.64c1.04,0.14,2.09,0.2,3.14,0.31c0.58,0.06,1.12,0.06,1.61-0.34c0.24-0.19,0.5-0.36,0.77-0.51
			c1.13-0.61,2.27-1.2,3.44-1.82c-2.34-1.45-4.68-2.9-7.02-4.35c0.02-0.05,0.04-0.09,0.05-0.14c0.27,0.06,0.54,0.16,0.82,0.18
			c1.13,0.08,2.27,0.19,3.41,0.21c2.25,0.03,4.5,0,6.74,0.01c0.52,0,1.03,0.07,1.55,0.12c0.5,0.05,1,0.12,1.5,0.19
			c-1.11-1.06-2.44-1.73-3.79-2.37c1.7,0.31,3.29,0.94,4.89,1.56c-2.1-3.95-5.5-6.5-9.14-8.82c5.74,1.31,11.13,3.37,15.77,7.12
			c0.04-0.04,0.07-0.09,0.11-0.13c-2.79-3.67-5.57-7.35-8.44-11.13c1.61,0.82,2.99,1.73,4.28,2.79c1.08,0.89,2.09,1.85,3.14,2.78
			c0.06,0.07,0.12,0.14,0.18,0.21c0.15,0.16,0.3,0.31,0.44,0.47c0.14,0.17,0.28,0.35,0.43,0.52c0.1,0.1,0.19,0.19,0.29,0.29
			c0.45,0.6,0.9,1.19,1.34,1.79c0.4,0.54,0.81,1.08,1.21,1.63c0.27,0.35,0.55,0.7,0.82,1.05c0.05,0.05,0.1,0.1,0.15,0.15
			c0.01-0.05,0.01-0.1,0.02-0.14c-0.08-0.39-0.15-0.78-0.23-1.16c-0.03-0.07-0.06-0.13-0.08-0.2c-0.02-0.16-0.04-0.32-0.05-0.48
			c-0.04-0.08-0.07-0.16-0.11-0.23c-0.01-0.06-0.01-0.11-0.02-0.17c-0.06-0.18-0.11-0.35-0.17-0.53c0-0.08-0.01-0.17-0.01-0.25
			c-0.03-0.07-0.07-0.14-0.1-0.22c-0.06-0.22-0.13-0.44-0.19-0.65c-0.03-0.14-0.06-0.29-0.09-0.43c-0.04-0.09-0.08-0.18-0.12-0.26
			c-0.03-0.07-0.06-0.15-0.08-0.22c-0.03-0.12-0.07-0.24-0.1-0.37c-0.03-0.07-0.07-0.14-0.1-0.22c-0.04-0.16-0.09-0.31-0.13-0.47
			c-0.05-0.11-0.1-0.22-0.15-0.34c-0.41-0.5-0.83-1.01-1.24-1.51c-0.05-0.07-0.11-0.14-0.16-0.21c-0.23-0.23-0.46-0.45-0.68-0.68
			c-0.08,0-0.16,0-0.24,0c0.04,0.07,0.08,0.13,0.12,0.2c0.04,0.09,0.08,0.19,0.13,0.28c0.09,0.17,0.18,0.35,0.26,0.52
			c0.32,0.64,0.63,1.27,0.95,1.91c0.04,0.08,0.07,0.17,0.11,0.25c0.04,0.08,0.07,0.16,0.11,0.23c0.04,0.08,0.07,0.15,0.11,0.23
			c0.11,0.25,0.22,0.5,0.33,0.75c0.04,0.08,0.08,0.17,0.13,0.25c0.11,0.24,0.22,0.49,0.33,0.73c0.03,0.07,0.07,0.14,0.1,0.2
			c0.02,0.06,0.05,0.12,0.07,0.18c0.04,0.07,0.08,0.14,0.13,0.21c0.01,0.06,0.03,0.12,0.04,0.18c0.05,0.08,0.09,0.15,0.14,0.23
			c0.07,0.19,0.13,0.37,0.2,0.56c0,0.07,0,0.14,0,0.21c-0.06,0.05-0.11,0.1-0.17,0.15c-0.32-0.5-0.62-1.02-0.96-1.5
			c-0.45-0.64-0.94-1.25-1.41-1.88c-0.15-0.18-0.3-0.35-0.45-0.53c-0.03-0.04-0.06-0.07-0.09-0.11c-0.05-0.08-0.11-0.17-0.16-0.25
			C125.43,21.94,125.37,21.87,125.31,21.81z M123.5,47.09c-0.2,0.02-0.41,0.03-0.6,0.08c-0.03,0.01-0.01,0.22-0.01,0.34
			c0.03,0.29,0.05,0.59,0.08,0.88c0.03,0.23,0.05,0.46,0.08,0.69c0.01,0.06,0.02,0.13,0.02,0.19c0.02,0.36,0.04,0.72,0.07,1.08
			c0.24,0.07,0.48,0.15,0.71,0.22c0.12,0.33,0.34,0.32,0.59,0.17c0.46,0.13,0.91,0.26,1.37,0.39c0.06,0.03,0.13,0.07,0.19,0.1
			c0.46-0.01,0.39-0.43,0.53-0.69c0.05-0.17,0.1-0.33,0.16-0.5c0.38-1.07,0.88-2.09,1.64-2.94c0.27-0.3,0.22-0.44-0.03-0.67
			c-0.69-0.62-1.41-1.2-2.04-1.88c-0.91-0.98-1.93-1.63-3.31-1.73c-0.49-0.03-0.81,0.15-1.23,0.29c0.12,0.3,0.22,0.55,0.32,0.8
			c0.13,0.34,0.15,0.82,0.4,0.99c0.25,0.17,0.7,0.03,1.07,0.03c0.76,0,1.51,0,2.41,0c-0.23,0.3-0.36,0.47-0.47,0.61
			c-0.61-0.51-1.24-0.18-1.81-0.27c-0.19,0.89-0.66,1.37-1.41,1.48c-0.52,0.08-1.18-0.33-1.46-1.02c-0.18-0.43-0.48-0.33-0.7-0.24
			c-0.41,0.16-0.78,0.43-1.17,0.65c-0.1,0.06-0.2,0.14-0.29,0.21c-0.03-0.04-0.06-0.08-0.09-0.12c0.36-0.45,0.73-0.87,1.36-0.95
			c0.56-0.08,1.11-0.15,1.73-0.23c-0.24-0.47-0.42-0.88-0.66-1.26c-0.07-0.11-0.38-0.2-0.46-0.14c-0.78,0.6-1.55,1.22-2.3,1.86
			c-0.31,0.27-0.32,0.65-0.11,0.98c0.32,0.5,0.7,0.97,1.05,1.45c-0.04,0.03-0.09,0.07-0.13,0.1c-0.81-0.46-1.62-0.92-2.42-1.38
			c-0.17-0.1-0.34-0.19-0.52-0.3c0.26-0.38,0.47-0.69,0.67-1.01c-0.83,0.3-1.48,1.17-2.58,0.58c1.62-1.49,3.64-2.25,5.41-3.38
			c-3.07-0.3-9.88,1.6-11.04,3.01c0.8,0.14,1.62,0.25,2.43,0.43c0.29,0.06,0.62,0.21,0.82,0.42c0.51,0.52,0.93,1.12,1.44,1.65
			c0.15,0.16,0.44,0.18,0.66,0.26c0.26-0.09,0.52-0.17,0.78-0.26c0.16,0.03,0.32,0.07,0.47,0.1c0.26,0.05,0.53,0.1,0.79,0.15
			c0.32,0.1,0.65,0.2,0.97,0.3c0.06,0.03,0.13,0.07,0.19,0.1c0.1,0.04,0.19,0.09,0.29,0.13c0.13,0.05,0.27,0.1,0.4,0.15
			c0.13,0.04,0.25,0.08,0.38,0.13c0.07,0.03,0.13,0.06,0.2,0.09c0.2,0.07,0.39,0.13,0.59,0.2c0.26,0.1,0.52,0.2,0.78,0.29
			c0.1,0.01,0.19,0.03,0.29,0.04c0.08,0.04,0.16,0.07,0.24,0.11c0.18,0.05,0.37,0.1,0.55,0.15c0.13,0.02,0.26,0.05,0.4,0.07
			c0.16,0.05,0.32,0.09,0.48,0.14c0.39,0.26,0.96,0.21,0.96-0.09c0-0.45-0.13-0.89-0.2-1.34c-0.01-0.29-0.02-0.59-0.04-0.88
			c-0.05-0.16-0.1-0.33-0.15-0.49c-0.02-0.03-0.05-0.06-0.07-0.08c0.26-0.16,0.52-0.32,0.78-0.48c0.1,0,0.2-0.01,0.29-0.01
			c0.09,0.08,0.19,0.16,0.28,0.24C123.54,47.08,123.52,47.09,123.5,47.09z M106.26,67.06L106.26,67.06
			c0.38-0.14,0.76-0.29,1.14-0.43c-0.72-0.28-1.32,0.1-1.95,0.32c-0.12,0.03-0.24,0.07-0.36,0.1c-0.07,0.03-0.14,0.07-0.21,0.1
			c-0.06,0.02-0.12,0.05-0.18,0.07c-0.19,0.06-0.37,0.13-0.56,0.19c-0.11,0.05-0.22,0.09-0.33,0.14c-0.07,0.03-0.14,0.06-0.21,0.09
			c-0.76,0.42-1.56,0.8-2.29,1.27c-1.82,1.16-2.97,2.77-2.94,4.99c0.01,0.98,0.26,1.95,0.39,2.93c0.24,1.8,0.46,3.6,0.69,5.39
			c0.23,1.84,0.43,3.69,0.71,5.52c0.12,0.82,0.47,1.58,1.2,2.09l0.02,0.01l-0.02-0.01c-0.02-0.12-0.03-0.25-0.06-0.37
			c-0.2-0.72-0.45-1.44-0.59-2.17c-0.17-0.87-0.24-1.76-0.36-2.65c-0.21-1.57-0.48-3.13-0.62-4.7c-0.14-1.63-0.17-3.28-0.22-4.92
			c-0.03-1.08,0.06-1.16,1.07-1.55c0.66-0.25,1.26-0.56,1.62-1.24c0.2-0.38,0.45-0.77,0.77-1.04c0.35-0.3,0.8-0.48,1.21-0.71
			c0.41-0.23,0.55-0.16,0.59,0.31c0.01,0.07,0.03,0.15,0.04,0.24c0.49-0.51,0.45-0.72-0.05-1.09c-0.29-0.22-0.55-0.29-0.89-0.12
			c-0.29,0.14-0.6,0.23-0.91,0.32c-0.29,0.09-0.58,0.16-0.94,0.25c0.14-0.8,0.59-1.25,1.12-1.64c0.34-0.24,0.7-0.47,1.05-0.7
			c0.09-0.04,0.17-0.07,0.26-0.11c0.3-0.16,0.61-0.31,0.91-0.47c0.14-0.07,0.27-0.14,0.41-0.21c0.06-0.03,0.12-0.06,0.18-0.08
			C106.06,67.16,106.16,67.11,106.26,67.06z M132.14,51.62c0,0.07,0,0.13,0.01,0.2c0.11,0.21,0.2,0.21,0.29-0.01
			c0.02-0.02,0.03-0.05,0.03-0.08c0.04-0.07,0.08-0.15,0.12-0.22c0.52-0.83,1.06-1.65,2.01-2.07c0.37-0.02,0.73-0.04,1.1-0.05
			c0.22,0.13,0.44,0.26,0.66,0.38c0.34,0.73,0.31,1.12-0.09,1.28c0.26,0.51,0.56,1.02,0.27,1.71c-0.26-0.55-0.04-1.21-0.66-1.57
			c0.09,0.55,0.17,1.01,0.24,1.46c-0.04,0.02-0.08,0.03-0.12,0.05c-0.26-0.22-0.51-0.44-0.77-0.65c-0.04,0.04-0.08,0.07-0.12,0.11
			c0.26,0.37,0.53,0.74,0.76,1.06c0.22-0.2,0.36-0.34,0.51-0.47c0.04,0.04,0.08,0.07,0.12,0.11c-0.17,0.35-0.33,0.69-0.53,1.11
			c0.96-0.66,1.26-2.91,0.64-4.2c-0.24-0.62-0.8-0.93-1.33-1.22c-0.33-0.18-0.89-0.3-1.17-0.13c-0.58,0.35-1.04,0.89-1.55,1.36
			c-0.07,0.1-0.13,0.2-0.2,0.29c-0.02,0.01-0.03,0.03-0.04,0.05C132.26,50.6,132.2,51.11,132.14,51.62z M105.39,55.53
			c-0.09,0.15-0.27,0.3-0.25,0.44c0.1,1.12,0.09,2.27,0.58,3.31c0.6,1.28,1.24,2.56,2,3.75c1.1,1.71,2.29,3.37,3.5,5.01
			c1.24,1.66,2.54,3.27,3.84,4.89c0.11,0.13,0.34,0.16,0.52,0.24c0.04-0.06,0.09-0.12,0.13-0.18c-0.91-1.43-1.75-2.91-2.73-4.28
			c-1.57-2.18-3.25-4.29-4.88-6.43c-0.05-0.08-0.09-0.17-0.14-0.25c-0.1-0.18-0.2-0.35-0.3-0.53c-0.04-0.1-0.08-0.19-0.12-0.29
			c-0.02-0.07-0.05-0.13-0.07-0.2c-0.04-0.07-0.07-0.14-0.11-0.21c-0.05-0.12-0.1-0.25-0.15-0.37c-0.04-0.12-0.08-0.24-0.11-0.36
			c-0.04-0.08-0.08-0.15-0.12-0.23c-0.03-0.11-0.06-0.22-0.09-0.33c-0.09-0.34-0.18-0.69-0.27-1.03c-0.07-0.28-0.14-0.56-0.2-0.84
			c-0.04-0.18-0.08-0.35-0.12-0.53c-0.02-0.12-0.05-0.23-0.07-0.35c-0.04-0.21-0.07-0.42-0.11-0.63c0-0.1-0.01-0.2-0.01-0.3
			c-0.05-0.19-0.09-0.39-0.14-0.58c-0.14-0.03-0.28-0.07-0.42-0.1c0.19-0.22,0.37-0.45,0.56-0.67c0.08-0.06,0.15-0.12,0.23-0.19
			c0.12-0.08,0.23-0.16,0.35-0.23c0.09-0.06,0.19-0.12,0.28-0.18c0.49-0.37,0.98-0.74,1.48-1.11c0.12-0.08,0.23-0.15,0.35-0.23
			c1.8-1.02,2.92-2.79,4.61-4.13c-1.97-1.21-3.87-1.2-5.83-0.14c0-0.05-0.01-0.1-0.01-0.16c0.39-0.3,0.78-0.6,1.17-0.9
			c0.15-0.12,0.29-0.25,0.44-0.37c0-0.03-0.01-0.07-0.01-0.1c-0.11-0.04-0.22-0.12-0.33-0.12c-0.64-0.01-1.28-0.01-1.92,0
			c-0.11,0-0.22,0.08-0.33,0.12c-0.03,0.01-0.06,0.03-0.07,0.06c-0.07,0.05-0.14,0.1-0.22,0.14c-0.06,0.05-0.12,0.09-0.18,0.14
			c-0.08,0.05-0.15,0.1-0.23,0.14c-0.09,0.08-0.17,0.16-0.26,0.24c-0.22,0.14-0.43,0.29-0.65,0.43c-0.12,0.1-0.24,0.2-0.35,0.3
			c0.05,0.62,0.1,1.25,0.14,1.87c0.02,0.33,0.04,0.66,0.06,0.98c0.05,0.58,0.1,1.17,0.14,1.75c0.1,0.79,0.2,1.58,0.29,2.36
			C105.28,55.27,105.33,55.4,105.39,55.53z M225.06,67.26c0.02-0.07,0.04-0.14,0.06-0.21c0.11-0.22,0.22-0.45,0.33-0.67
			c0.26-0.52,0.54-1.04,0.78-1.57c0.19-0.42,0.38-0.49,0.77-0.22c1.43,0.99,2.86,1.98,4.31,2.96c0.75,0.51,1.51,1.02,2.29,1.48
			c0.22,0.13,0.42,0.61,0.79,0.21c-0.04-0.49-0.06-0.98-0.13-1.45c-0.1-0.74-0.22-1.48-0.33-2.22c-0.06-0.41-0.12-0.82-0.18-1.23
			c-0.07-0.49-0.18-0.98-0.2-1.48c-0.08-1.74-0.13-3.47-0.33-5.21c-0.18-1.55-0.26-3.16,0.17-4.74c0.19-0.7,0.2-1.51-0.56-2.01
			c-1.21-0.8-2.46-1.57-3.65-2.4c-0.32-0.22-0.89-0.33-0.81-0.94c0.72-0.26,1.41-0.6,2.14-0.76c0.75-0.17,1.54-0.31,2.3-0.25
			c0.98,0.08,1.97,0.05,2.92,0.52c0.8,0.39,1.44,0.94,1.86,1.63c0.45,0.73,0.85,1.55,0.88,2.47c0.03,0.92,0.18,1.85,0.09,2.76
			c-0.1,1.04-0.07,2.08-0.5,3.11c-0.34,0.81-0.53,1.68-0.96,2.46c-0.11,0.2-0.16,0.47-0.32,0.58c-0.8,0.51-0.66,1.23-0.54,1.98
			c0.11,0.65,0.22,1.31,0.2,1.96c-0.04,0.92-0.17,1.84-0.32,2.74c-0.09,0.51-0.29,1.01-0.48,1.5c-0.19,0.47-0.4,0.94-0.66,1.37
			c-0.43,0.71-0.87,1.41-1.36,2.08c-0.36,0.49-0.81,0.93-1.29,1.48c0.29,0,0.45,0.04,0.57-0.01c0.43-0.17,0.83-0.38,1.26-0.56
			c1.48-0.61,2.72-1.59,3.9-2.63c1.57-1.38,2.84-3.04,3.83-4.89c0.1-0.18,0.12-0.4,0.22-0.59c0.44-0.84,0.91-1.66,1.13-2.6
			c0.09-0.4,0.26-0.79,0.37-1.19c0.21-0.8,0.54-1.6,0.58-2.41c0.1-2.08,0.07-4.17,0.08-6.25c0-0.39-0.02-0.79-0.12-1.16
			c-0.18-0.72-0.37-1.44-0.63-2.14c-0.29-0.79-0.56-1.6-1-2.31c-0.61-0.97-1.24-1.92-2.17-2.69c-0.94-0.77-1.89-1.47-3.04-1.87
			c-0.65-0.22-1.28-0.49-1.95-0.64c-0.6-0.13-1.23-0.1-1.84-0.17c-0.87-0.1-1.67-0.16-2.45,0.48c-1.33,1.1-2.58,2.24-3.47,3.75
			c-0.16,0.27-0.34,0.53-0.49,0.81c-0.2,0.38-0.37,0.77-0.55,1.16c-0.09,0.19-0.19,0.37-0.23,0.57c-0.05,0.24-0.04,0.49-0.06,0.74
			c0.2-0.05,0.41-0.08,0.6-0.15c0.24-0.09,0.46-0.23,0.76-0.38c0.06,0.36,0.13,0.6,0.13,0.83c-0.06,3.5,0.19,7-0.28,10.49
			c-0.16,1.19-0.11,2.41-0.52,3.56c-0.05,0.15-0.25,0.32-0.4,0.34c-0.41,0.06-0.82,0.04-1.24,0.05c-0.87,0.09-1.74,0.23-2.61,0.25
			c-1.71,0.04-3.42,0-5.13,0.02c-0.47,0-0.5-0.22-0.45-0.58c0.1-0.81,0.21-1.63,0.27-2.44c0.06-0.86,0.05-1.72,0.12-2.58
			c0.05-0.65,0.2-1.29,0.28-1.94c0.05-0.4,0.01-0.81,0.06-1.21c0.2-1.46,0.42-2.91,0.64-4.37c0.11-0.76,0.21-1.53,0.38-2.28
			c0.24-1.06,0.1-1.94-0.8-2.68c-0.62-0.5-1.13-1.14-1.66-1.74c-0.6-0.66-1.16-1.35-1.76-2c-0.1-0.11-0.32-0.13-0.49-0.13
			c-0.07,0-0.17,0.18-0.19,0.28c-0.16,1.28-0.02,2.57-0.37,3.85c-0.17,0.64-0.03,1.37-0.2,2.02c-0.29,1.07-0.18,2.18-0.57,3.25
			c-0.29,0.79-0.33,1.66-0.47,2.5c-0.05,0.3-0.02,0.62-0.1,0.92c-0.19,0.77-0.43,1.53-0.64,2.29c-0.16,0.56-0.28,1.14-0.45,1.69
			c-0.21,0.66-0.47,1.31-0.68,1.97c-0.1,0.33-0.34,0.67-0.04,1.04c0.54,0.65,1.05,1.32,1.6,1.97c0.6,0.72,1.22,1.44,1.85,2.15
			c0.25,0.29,0.27,0.58,0.15,0.93c-0.21,0.61-0.41,1.23-0.58,1.85c-0.15,0.54-0.03,0.68,0.53,0.66c0.45-0.01,0.9-0.11,1.35-0.1
			c1,0.04,2,0.12,3,0.2c0.35,0.03,0.7,0.09,1.04,0.16c0.71,0.14,1.42,0.27,2.09,0.58c0.59,0.27,1.23,0.41,1.95,0.64
			C223.94,69.5,224.5,68.38,225.06,67.26z M160.42,60.98c0.06,0.09,0.15,0.17,0.18,0.27c0.14,0.49,0.25,0.98,0.38,1.47
			c0.23,0.83,0.52,1.65,0.68,2.49c0.21,1.09,0.62,2.07,1.27,2.94c0.38,0.5,0.83,0.96,1.54,1.08c0.53,0.1,1.02,0.08,1.51-0.11
			c0.67-0.25,1.26-0.59,1.53-1.32c0.18-0.49,0.39-0.97,0.56-1.47c0.21-0.6,0.4-1.2,0.59-1.8c0.18-0.6,0.3-1.22,0.51-1.81
			c0.32-0.95,0.71-1.87,1.03-2.82c0.31-0.9,0.53-1.83,0.86-2.72c0.4-1.07,0.88-2.12,1.31-3.19c0.05-0.13,0.03-0.3-0.01-0.44
			c-0.18-0.59-0.39-1.17-0.57-1.76c-0.21-0.65-0.4-1.3-0.61-1.94c-0.17-0.49-0.36-0.98-0.55-1.47c-0.3-0.82-0.57-1.65-0.92-2.45
			c-0.42-0.96-0.91-1.89-1.36-2.84c-0.3-0.65-0.55-1.32-0.86-1.96c-0.12-0.26-0.34-0.47-0.52-0.71c-0.05,0.01-0.1,0.03-0.15,0.04
			c-0.04,0.29-0.12,0.59-0.12,0.88c-0.02,1.09,0.15,2.22-0.07,3.26c-0.3,1.47-0.14,2.98-0.62,4.42c-0.14,0.43-0.05,0.94-0.14,1.39
			c-0.22,1.09-0.48,2.17-0.73,3.25c-0.06,0.25-0.08,0.62-0.24,0.7c-0.36,0.17-0.44-0.26-0.62-0.46c-0.86-0.98-1.7-1.96-2.57-2.94
			c-0.47-0.53-0.96-1.05-1.44-1.57c-0.57-0.72-1.15-1.45-1.76-2.23c-0.39,0.44-0.22,0.9-0.21,1.3c0.01,0.44,0.13,0.87,0.2,1.32
			c-0.49-0.04-1.1-0.45-1.74-1.07c-0.11-0.11-0.31-0.18-0.46-0.16c-0.07,0.01-0.15,0.25-0.17,0.39c-0.15,1.43-0.02,2.9-0.55,4.28
			c-0.08,0.22-0.06,0.48-0.13,0.71c-0.33,1-0.67,1.99-1.02,2.98c-0.03,0.09-0.12,0.15-0.24,0.29c-0.05-0.18-0.08-0.27-0.09-0.36
			c-0.07-1.83-0.15-3.66-0.2-5.49c-0.03-0.98-0.01-1.95-0.01-2.93c0-0.58-0.08-1.09-0.48-1.6c-0.89-1.12-1.66-2.33-2.5-3.49
			c-0.71-0.97-1.44-1.92-2.18-2.86c-0.13-0.17-0.4-0.23-0.7-0.4c0,0.4-0.02,0.64,0,0.88c0.08,1.11,0.21,2.22,0.26,3.33
			c0.07,1.64,0.07,3.28,0.12,4.92c0.05,1.39,0.14,2.78,0.18,4.17c0.06,2.41-0.07,4.82,0.38,7.21c0.15,0.83,0.16,1.68,0.37,2.52
			c0.21,0.83,0.46,1.62,0.84,2.37c0.71,1.4,2.36,2.14,3.5,1.97c1.24-0.19,2.26-0.91,3.05-1.86c0.91-1.09,1.73-2.26,2.61-3.38
			C159.66,61.83,160.05,61.41,160.42,60.98z M53.86,68.32c0.64,0.52,1.26,1.08,1.93,1.56c0.33,0.23,0.8,0.25,1.14,0.47
			c0.72,0.45,1.51,0.58,2.31,0.62c1.31,0.06,2.59-0.04,3.8-0.66c0.52-0.27,1.11-0.41,1.52-0.87c0.53-0.59,1.15-1.13,1.59-1.78
			c0.64-0.94,0.93-2.06,1.17-3.16c0.23-1.03,0.31-2.1,0.41-3.15c0.07-0.72-0.05-1.5,0.15-2.18c0.34-1.12,0.27-2.25,0.3-3.37
			c0.09-2.68,0.03-5.37,0.02-8.06c0-0.21-0.05-0.47-0.18-0.62c-0.4-0.46-0.84-0.87-1.28-1.3c-1.25-1.21-2.5-2.41-3.77-3.61
			c-0.24-0.22-0.54-0.37-0.81-0.55c-0.05,0.03-0.09,0.05-0.14,0.08c0,0.24-0.03,0.48,0.01,0.72c0.04,0.3,0.17,0.59,0.21,0.89
			c0.08,0.72,0.12,1.45,0.2,2.17c0.07,0.56,0.26,1.11,0.26,1.66c0.03,2.72,0.02,5.44,0.01,8.16c0,0.29-0.05,0.58-0.09,0.87
			c-0.09,0.68-0.19,1.36-0.29,2.05c-0.14,0.87-0.28,1.73-0.43,2.6c-0.01,0.05-0.04,0.09-0.06,0.13c-0.23,0.66-0.54,1.3-0.65,1.97
			c-0.08,0.53-0.37,0.82-0.67,1.21c-0.27,0.35-0.19,0.96-0.41,1.38c-0.34,0.63-1,0.93-1.66,1.11c-0.81,0.22-1.61,0.58-2.5,0.3
			c-0.46-0.15-0.94-0.2-1.39-0.38c-0.36-0.14-0.67-0.4-1-0.61c-0.94-0.92-1.89-1.84-2.82-2.77c-0.08-0.08-0.12-0.23-0.12-0.35
			c0.02-1.43-0.05-2.87,0.12-4.28c0.21-1.68,0.02-3.39,0.44-5.05c0.15-0.57,0.04-1.2,0.14-1.79c0.22-1.34,0.52-2.67,0.72-4.02
			c0.07-0.45,0.17-0.95-0.2-1.39c-1.16-1.39-2.29-2.8-3.44-4.21c-0.27-0.33-0.55-0.64-0.94-1.11c-0.18,0.7-0.43,1.29-0.46,1.88
			c-0.09,1.87-0.34,3.71-0.7,5.54c-0.1,0.49-0.04,1-0.13,1.49c-0.24,1.35-0.53,2.69-0.82,4.16c-0.23-0.18-0.45-0.27-0.54-0.43
			c-0.53-0.94-1.05-1.9-1.54-2.86c-0.66-1.3-1.33-2.6-1.92-3.94c-0.4-0.93-0.97-1.75-1.46-2.62c-0.34-0.59-0.74-0.67-1.3-0.64
			c-0.45,0.03-0.91-0.01-1.36,0.06c-0.4,0.06-0.78,0.28-1.18,0.32c-0.46,0.04-0.75,0.23-0.97,0.61c-0.23,0.4-0.53,0.76-0.7,1.17
			c-0.15,0.36-0.49,0.69-0.3,1.16c0.1,0.26,0.14,0.55,0.18,0.84c0.05,0.38,0.05,0.77,0.09,1.16c0.06,0.59,0.19,1.18,0.19,1.76
			c0,0.57-0.15,1.14-0.22,1.71c-0.05,0.39-0.02,0.78-0.1,1.16c-0.19,0.81-0.46,1.59-0.63,2.4c-0.28,1.3-0.53,2.6-0.77,3.91
			c-0.04,0.19,0,0.42,0.07,0.61c0.18,0.52,0.39,1.04,0.59,1.55c0.13,0.33,0.27,0.66,0.39,0.99c0.34,0.96,0.66,1.92,1.02,2.87
			c0.15,0.4,0.37,0.77,0.51,1.17c0.17,0.46,0.26,0.95,0.45,1.41c0.14,0.35,0.39,0.66,0.58,0.98c0.06-0.01,0.12-0.02,0.18-0.03
			c1.02-3.76,1.68-7.6,2.46-11.45c0.24,0.26,0.42,0.55,0.68,0.72c1.06,0.69,2.13,1.35,3.21,2.01c0.97,0.59,1.16,0.86,0.82,1.58
			c-0.25,0.51,0,0.79,0.27,1.1c0.6,0.69,1.21,1.37,1.85,2.03c0.59,0.62,1.2,1.23,1.83,1.81c0.6,0.56,1.26,1.06,1.88,1.6
			c0.49,0.43,0.95,0.88,1.52,1.41c0.07-0.36,0.18-0.6,0.16-0.82c-0.12-1.26-0.28-2.52-0.42-3.78c0-0.03-0.05-0.06-0.04-0.09
			c0.05-0.23,0.06-0.62,0.18-0.66c0.33-0.12,0.68,0,0.85,0.37c0.17,0.37,0.28,0.78,0.51,1.12C52.85,67.02,53.37,67.66,53.86,68.32z
			 M21.86,64.62c0.28,0.09,0.48,0.19,0.7,0.22c0.1,0.01,0.26-0.08,0.33-0.17c0.04-0.05-0.03-0.22-0.1-0.3
			c-0.14-0.17-0.31-0.32-0.46-0.48c-0.43-0.47-0.67-0.98-0.63-1.67c0.07-1.32,0.02-2.64,0.04-3.96c0.01-0.52,0.04-1.04,0.09-1.55
			c0.08-0.71,0.2-1.42,0.28-2.13c0.05-0.48-0.04-1.01,0.12-1.45c0.42-1.18,0.01-2.5,0.64-3.63c0.04-0.08,0.01-0.19,0.02-0.29
			c0.09-0.64,0.21-1.27,0.25-1.91c0.02-0.31-0.06-0.66-0.19-0.95c-0.13-0.27-0.39-0.47-0.58-0.71c-0.77-0.95-1.54-1.91-2.31-2.86
			c-0.38-0.47-0.77-0.93-1.17-1.38c-0.1-0.11-0.27-0.16-0.41-0.23c-0.07,0.13-0.18,0.26-0.2,0.4c-0.16,1.17-0.33,2.34-0.46,3.52
			c-0.16,1.5-0.28,2.99-0.65,4.46c-0.27,1.08-0.3,2.23-0.46,3.34c-0.05,0.33-0.16,0.65-0.28,0.95c-0.02,0.05-0.36,0.05-0.4-0.01
			c-0.52-0.88-1.05-1.75-1.51-2.66c-0.59-1.16-1.09-2.37-1.68-3.53c-0.59-1.16-1.22-2.29-1.86-3.43c-0.18-0.32-0.35-0.68-0.86-0.64
			c-0.56,0.05-1.13-0.03-1.68,0.04c-0.6,0.08-1.18,0.26-1.77,0.43c-0.13,0.04-0.26,0.19-0.34,0.31c-0.31,0.5-0.64,0.99-0.89,1.51
			c-0.15,0.32-0.27,0.72-0.24,1.06c0.06,0.73,0.3,1.44,0.35,2.17c0.06,0.94,0.02,1.89,0.01,2.83c0,0.19-0.08,0.38-0.12,0.56
			c-0.08,0.39-0.17,0.78-0.25,1.17c-0.15,0.77-0.27,1.55-0.44,2.31c-0.19,0.85-0.46,1.69-0.63,2.55c-0.32,1.65,0.19,3.17,0.83,4.66
			c0.22,0.51,0.42,1.03,0.61,1.56c0.33,0.88,0.63,1.77,0.96,2.65c0.18,0.49,0.39,0.98,0.61,1.45c0.09,0.19,0.28,0.32,0.42,0.48
			c0.13-0.18,0.32-0.34,0.37-0.54c0.19-0.91,0.32-1.83,0.52-2.74c0.19-0.9,0.45-1.79,0.65-2.69c0.07-0.3,0.04-0.61,0.1-0.91
			c0.19-0.92,0.41-1.83,0.59-2.75c0.09-0.47,0.14-0.95,0.21-1.49c0.64,0.37,1.17,0.65,1.67,0.98c0.94,0.6,1.84,1.25,2.8,1.82
			c0.4,0.24,0.57,0.43,0.41,0.91c-0.15,0.43-0.29,0.91,0.1,1.33c0.76,0.82,1.49,1.67,2.27,2.46c0.91,0.92,1.87,1.8,2.82,2.67
			c0.52,0.47,1.07,0.9,1.62,1.33c0.16,0.13,0.37,0.19,0.56,0.29c0.04-0.21,0.13-0.42,0.12-0.62c-0.03-0.38-0.11-0.76-0.17-1.14
			c-0.12-0.71-0.24-1.42-0.36-2.13C21.75,65.6,21.61,65.11,21.86,64.62z M190.2,46.9c0.33,0.06,0.53,0.14,0.7,0.12
			c0.57-0.07,1.14-0.29,1.71-0.26c2.33,0.12,4.67-0.39,6.99,0.33c1.02,0.32,1.95,0.68,2.61,1.54c0.14,0.19,0.24,0.48,0.22,0.71
			c-0.11,0.94-0.8,1.48-1.52,1.97c-0.45,0.3-1.13,0.31-1.35,0.92c-0.13,0.36-0.15,0.75-0.24,1.12c-0.02,0.09-0.1,0.16-0.15,0.24
			c-0.04-0.01-0.09-0.03-0.13-0.04c-0.03-0.38-0.1-0.76-0.09-1.14c0.01-0.47-0.22-0.8-0.59-0.99c-0.89-0.45-1.81-0.86-2.71-1.28
			c-0.78-0.36-1.56-0.7-2.33-1.08c-0.36-0.18-0.49-0.01-0.54,0.29c-0.03,0.17,0.01,0.35,0.04,0.53c0.11,0.6,0.23,1.19,0.34,1.78
			c0.2,1.09,0.29,2.2,0.45,3.29c0.25,1.64,0.3,3.24,0.04,4.86c-0.14,0.84-0.25,1.68-0.41,2.51c-0.08,0.41-0.25,0.81-0.39,1.21
			c-0.1,0.32-0.23,0.63-0.31,0.96c-0.02,0.09,0.04,0.25,0.11,0.32c0.35,0.31,0.71,0.59,1.07,0.89c0.98,0.82,1.96,1.65,2.95,2.47
			c0.94,0.78,1.89,1.56,2.93,2.42c0.06-0.34,0.12-0.54,0.12-0.73c-0.03-1.09-0.06-2.17-0.11-3.26c-0.03-0.73-0.13-1.45-0.15-2.17
			c-0.03-1-0.01-2-0.01-3.01c0.38,0.27,0.68,0.58,0.93,0.92c0.73,0.99,1.47,1.97,2.16,2.99c0.37,0.55,0.71,1.14,0.94,1.76
			c0.13,0.34,0.26,0.51,0.6,0.46c0.95-0.13,1.91-0.26,2.85-0.43c1.12-0.2,2.23-0.44,3.34-0.64c0.52-0.09,1.06-0.12,1.58-0.21
			c0.1-0.02,0.25-0.17,0.26-0.27c0.01-0.13-0.06-0.32-0.16-0.41c-0.95-0.85-1.92-1.67-2.86-2.53c-0.92-0.84-1.81-1.71-2.71-2.57
			c-0.83-0.8-1.65-1.61-2.49-2.41c-0.22-0.21-0.26-0.4-0.01-0.61c0.12-0.1,0.23-0.22,0.34-0.34c0.73-0.77,1.56-1.44,2.07-2.41
			c0.25-0.48,0.6-0.91,0.84-1.39c0.36-0.7,0.82-1.41,0.96-2.16c0.27-1.54,0.28-3.07-0.51-4.55c-0.54-1.01-1.22-1.85-2.11-2.53
			c-0.5-0.38-1.05-0.72-1.61-1.01c-0.82-0.42-1.65-0.85-2.53-1.12c-1.11-0.34-2.25-0.58-3.4-0.78c-0.7-0.12-1.42-0.12-2.13-0.13
			c-0.21,0-0.46,0.1-0.61,0.25c-0.58,0.57-1.13,1.16-1.69,1.75c-0.76,0.82-1.53,1.65-2.27,2.49C190.9,45.95,190.6,46.38,190.2,46.9z
			 M71.72,72.13c0.06,0.01,0.13,0.02,0.19,0.03c0.28-0.63,0.58-1.25,0.83-1.9c0.34-0.86,0.64-1.73,0.96-2.6
			c0.12-0.33,0.2-0.67,0.33-1c0.37-0.94,0.74-1.88,1.16-2.8c0.16-0.36,0.15-0.91,0.69-0.97c0.33-0.04,0.68,0.04,1,0.11
			c0.85,0.2,1.69,0.52,2.55,0.61c1.19,0.12,2.22,0.57,3.25,1.1c0.13,0.07,0.31,0.05,0.46,0.08c0.24,0.05,0.5,0.05,0.7,0.16
			c0.54,0.32,1.05,0.7,1.58,1.04c0.68,0.44,1.39,0.84,2.06,1.29c0.87,0.57,1.72,1.18,2.6,1.74c0.13,0.08,0.36,0.02,0.54,0.02
			c-0.02-0.14-0.01-0.29-0.05-0.43c-0.17-0.6-0.35-1.19-0.53-1.79c-0.05-0.17-0.07-0.34-0.12-0.51c-0.19-0.59-0.4-1.17-0.57-1.76
			c-0.2-0.72-0.34-1.46-0.54-2.19c-0.18-0.66-0.46-1.29-0.62-1.95c-0.2-0.81-0.32-1.63-0.49-2.45c-0.08-0.37-0.23-0.73-0.3-1.1
			c-0.17-0.95-0.29-1.9-0.46-2.85c-0.2-1.12-0.45-2.23-0.62-3.35c-0.19-1.22-0.32-2.45-0.5-3.67c-0.02-0.14-0.13-0.31-0.24-0.39
			c-0.79-0.54-1.59-1.06-2.39-1.57c-0.58-0.37-1.21-0.65-1.34-1.48c-0.14-0.84-0.44-1.65-0.69-2.47c-0.05-0.16-0.2-0.28-0.3-0.42
			c-0.14,0.13-0.34,0.23-0.42,0.4c-0.44,0.88-0.83,1.79-1.29,2.67c-0.58,1.1-1.22,2.16-1.81,3.26c-0.45,0.82-0.83,1.68-1.28,2.5
			c-0.98,1.76-1.99,3.51-3,5.26c-0.65,1.12-1.27,2.25-1.98,3.32c-0.65,0.98-1.41,1.89-2.11,2.84c-0.14,0.19-0.34,0.44-0.31,0.63
			c0.08,0.51,0.26,1,0.41,1.5c0.18,0.59,0.39,1.17,0.54,1.77c0.19,0.73,0.32,1.47,0.52,2.2c0.19,0.69,0.45,1.36,0.65,2.04
			c0.21,0.7,0.38,1.41,0.59,2.11C71.45,71.49,71.6,71.81,71.72,72.13z M172.38,57.96c0.02,0,0.03,0,0.05,0c0,0.7-0.06,1.41,0.01,2.1
			c0.08,0.81,0.22,1.62,0.45,2.4c0.19,0.67,0.53,1.3,0.8,1.94c0.1,0.24,0.18,0.51,0.35,0.69c0.77,0.77,1.25,1.83,2.29,2.33
			c0.62,0.29,1.21,0.64,1.84,0.9c0.29,0.12,0.64,0.09,0.94,0.18c1.01,0.31,1.96,0.01,2.88-0.3c0.69-0.23,1.32-0.66,1.93-1.07
			c1.22-0.84,2.13-1.97,2.81-3.29c0.28-0.54,0.59-1.08,0.87-1.62c0.37-0.72,0.73-1.45,1.07-2.18c0.16-0.35,0.29-0.71,0.43-1.06
			c0.34-0.84,0.74-1.65,1.01-2.51c0.4-1.24,0.7-2.51,1.04-3.77c0.04-0.14,0.07-0.3,0.03-0.43c-0.27-0.88-0.51-1.78-0.87-2.63
			c-0.34-0.83-0.8-1.61-1.23-2.4c-0.32-0.59-0.62-1.21-1.03-1.73c-1-1.25-2.01-2.5-3.35-3.42c-0.56-0.38-1.15-0.63-1.81-0.79
			c-0.68-0.16-1.24,0.18-1.76,0.41c-0.82,0.36-1.62,0.78-2.38,1.31c-1.02,0.71-1.73,1.65-2.45,2.59c-0.57,0.74-1.05,1.57-1.44,2.42
			c-0.6,1.3-1.16,2.63-1.61,3.98c-0.34,1.02-0.56,2.1-0.72,3.17C172.41,56.11,172.43,57.04,172.38,57.96z M25.8,41.38
			c-0.06,0.03-0.12,0.06-0.19,0.1c-0.03,0.27-0.1,0.55-0.06,0.82c0.04,0.36,0.22,0.71,0.24,1.07c0.09,1.44,0.19,2.88,0.2,4.32
			c0.02,1.39-0.06,2.79-0.1,4.19c-0.02,0.52-0.01,1.04-0.1,1.55c-0.15,0.98-0.37,1.94-0.55,2.91c-0.15,0.83-0.28,1.67-0.43,2.5
			c-0.11,0.61-0.24,1.21-0.39,1.81c-0.1,0.39-0.29,0.76-0.37,1.16c-0.04,0.21,0,0.51,0.12,0.67c0.41,0.55,0.88,1.05,1.32,1.58
			c0.97,1.13,1.94,2.28,2.92,3.4c0.67,0.76,1.36,1.5,2.06,2.23c0.11,0.12,0.32,0.21,0.47,0.19c0.09-0.01,0.23-0.26,0.22-0.4
			c-0.03-0.51-0.18-1.01-0.17-1.51c0.09-3.26-0.19-6.51,0.16-9.77c0.2-1.86,0.17-3.76,0.21-5.64c0.03-1.37,0-2.74,0.01-4.1
			c0-0.45,0-0.92,0.11-1.35c0.18-0.77-0.03-1.33-0.67-1.8c-0.66-0.48-1.25-1.05-1.89-1.56C27.9,42.94,26.85,42.17,25.8,41.38z
			 M126.45,35.95c-0.2-0.69-0.69-1.12-1.24-1.48c-1.16-0.77-2.52-0.92-3.85-1.02c-1.98-0.14-3.96-0.15-5.92,0.27
			c-1.17,0.25-2.35,0.44-3.47,0.83c-1.24,0.43-2.44,1.01-3.62,1.6c-1.41,0.71-2.69,1.63-3.8,2.75c-0.26,0.26-0.44,0.59-0.61,0.82
			c0.29,0.04,0.54,0.03,0.74,0.12c0.06,0.03,0.05,0.43-0.05,0.53c-0.44,0.4-0.53-0.24-0.86-0.34c-0.07,0.36-0.2,0.7-0.21,1.04
			c-0.02,1.24-0.04,2.48,0.01,3.71c0.01,0.35,0.17,0.72,0.35,1.03c0.14,0.25,0.41,0.35,0.68,0.07c1.38-1.39,3.01-2.45,4.74-3.36
			c2.25-1.17,4.62-1.98,7.16-2.16c1.61-0.12,3.23-0.13,4.85-0.18c0.31-0.01,0.44-0.09,0.41-0.42c-0.07-0.99-0.12-1.97-0.16-2.96
			c-0.02-0.52,0-1.03,0-1.55c0.22,0.84,0.37,1.7,0.47,2.55c0.08,0.71,0.09,1.42,0.17,2.13c0.01,0.12,0.18,0.22,0.27,0.32
			c0.07-0.12,0.2-0.25,0.21-0.38c0.01-0.22-0.08-0.44-0.09-0.67c-0.11-1.61-0.22-3.23-0.32-4.84c-0.01-0.14,0.08-0.28,0.12-0.39
			C124.05,34.18,125.48,34.58,126.45,35.95z M85.59,35.78c-0.03,0.06-0.05,0.12-0.08,0.17c3.14,3.41,7.06,5.69,11.27,7.65
			c-0.56,0.27-1.12,0.49-1.7,0.62c-0.6,0.13-1.23,0.15-1.91,0.23c1.14,0.49,5.77,0.38,6.55-0.11c-1.28-0.53-2.59-1.03-3.85-1.63
			c-1.27-0.61-2.44-1.41-3.59-2.39c0.17,0,0.23-0.01,0.29,0c1.58,0.24,3.16,0.53,4.75,0.7c1.27,0.13,2.55,0.07,3.83,0.16
			c0.71,0.05,1.14-0.12,1.38-0.84c0.2-0.61,0.27-0.58-0.33-0.83c-2.27-0.95-4.5-1.97-6.53-3.38c-0.13-0.09-0.33-0.13-0.5-0.12
			c-0.94,0.06-1.87,0.2-2.81,0.2c-1.51,0.01-3.01-0.06-4.52-0.12c-0.35-0.01-0.7-0.09-1.06-0.14C86.4,35.89,86,35.83,85.59,35.78z
			 M135.37,67.2c0.03,0,0.06-0.01,0.1-0.01c0.06-1,0.11-2.01,0.17-3.08c0.44,0.11,0.8,0.17,1.15,0.29c0.28,0.09,0.41,0,0.42-0.27
			c0.02-1.62,0.04-3.24,0.06-4.85c0-0.02,0.04-0.04,0.09-0.08c0.11,0.06,0.22,0.13,0.42,0.26c-0.22-1.32-0.43-2.54-0.66-3.91
			c-0.65,1.01-1.24,1.89-1.77,2.8c-0.25,0.43-0.48,0.84-0.98,1.01c-0.09,0.03-0.21,0.16-0.22,0.26c-0.07,0.66-0.12,1.32-0.17,1.98
			c-0.08,0.97-0.17,1.93-0.22,2.9c-0.03,0.5-0.01,1.01-0.01,1.54c0.21-0.74,0.41-1.46,0.62-2.18c0.07,0.01,0.14,0.01,0.21,0.02
			C134.84,64.98,135.1,66.09,135.37,67.2z M135.81,41.34c1.23-1.64,2.14-3.36,3.03-5.09c-1.57,0.9-2.94,2.03-4.19,3.29
			C135.04,40.13,135.39,40.68,135.81,41.34z M131.43,51.2c0.06,0,0.13,0,0.19,0c0.23-1.2,0.46-2.39,0.67-3.59
			c0.03-0.15,0.01-0.37-0.09-0.45c-0.5-0.42-1.02-0.8-1.59-1.24C130.9,47.76,131.17,49.48,131.43,51.2z M125.4,80.91
			c-1.09,0.82-2.4,5.74-1.86,6.68C124.15,85.4,124.76,83.2,125.4,80.91z M136.94,42.91c1.03-0.72,3.28-3.33,3.36-4.01
			C138.85,40.03,137.08,40.77,136.94,42.91z M122.74,46.03c0.15-0.18,0.35-0.3,0.35-0.43c0-0.11-0.22-0.31-0.34-0.31
			c-0.12,0.01-0.29,0.2-0.32,0.34C122.41,45.72,122.6,45.86,122.74,46.03z"/>
		<path class="st1" d="M93.07,22.17c-0.1-0.03-0.19-0.07-0.29-0.1c-0.21-0.08-0.43-0.15-0.64-0.23c-0.27-0.06-0.55-0.13-0.82-0.19
			c-0.31-0.1-0.62-0.2-0.93-0.3c-0.08-0.01-0.17-0.02-0.25-0.02c-0.14-0.06-0.28-0.12-0.43-0.18c-0.05,0-0.11,0-0.16-0.01
			c-0.16-0.05-0.33-0.09-0.49-0.14c-0.13-0.02-0.25-0.03-0.38-0.05c0.02-0.1,0.05-0.2,0.07-0.29c0.52,0,1.05,0,1.57,0
			c0.16,0.02,0.31,0.06,0.47,0.06c1.71,0.01,3.41,0.01,5.12,0c0.19,0,0.38-0.04,0.56-0.07c0.68,0.01,1.36,0.02,2.04,0.03
			c0.09,0.07,0.17,0.19,0.26,0.19c0.76,0.04,1.52,0.07,2.29,0.1c0.06,0.01,0.13,0.02,0.19,0.03c0.38,0.06,0.76,0.12,1.14,0.17
			c0.18,0.01,0.36,0.01,0.54,0.02c0.14,0.27,0.35,0.27,0.59,0.15c0.13,0.01,0.25,0.03,0.38,0.04c0.37,0.1,0.75,0.2,1.12,0.3
			c0.09,0,0.17,0.01,0.26,0.01c0.19,0.05,0.38,0.1,0.57,0.15c0.02-0.12,0.04-0.23,0.06-0.35c-0.24-0.21-0.47-0.41-0.71-0.62
			c-0.11-0.08-0.21-0.16-0.32-0.24c-0.75-0.75-1.5-1.49-2.25-2.24c-0.09-0.11-0.17-0.21-0.26-0.32c-0.27-0.32-0.55-0.63-0.82-0.95
			c-0.05-0.07-0.1-0.15-0.16-0.22c-0.11-0.12-0.22-0.25-0.32-0.37c-0.08-0.1-0.17-0.21-0.25-0.31c-0.02-0.02-0.04-0.04-0.05-0.07
			c-0.05-0.07-0.1-0.15-0.16-0.22c-0.15-0.18-0.29-0.37-0.44-0.55c-0.07-0.1-0.14-0.19-0.2-0.29c0,0-0.01-0.01-0.01-0.01
			c0.09-0.05,0.17-0.1,0.26-0.15c0.31,0.19,0.62,0.39,0.93,0.58c0.11,0.04,0.22,0.08,0.33,0.13c0.03,0.01,0.05,0.03,0.06,0.06
			c0.12,0.07,0.23,0.14,0.35,0.22c0.21,0.08,0.42,0.17,0.64,0.25c0.46,0.2,0.92,0.39,1.37,0.59c0.13,0.04,0.25,0.09,0.38,0.13
			c0.11,0.04,0.23,0.08,0.34,0.11c0.02,0.01,0.05,0.02,0.06,0.04c0.14,0.06,0.28,0.11,0.41,0.17c0.12,0.03,0.24,0.05,0.36,0.08
			c0.1,0.05,0.21,0.1,0.31,0.15c0.16,0.04,0.32,0.07,0.48,0.11c0.46,0.13,0.92,0.26,1.37,0.39c0.13,0.01,0.25,0.02,0.38,0.04
			c0.13,0.05,0.27,0.1,0.4,0.16c0.09,0.01,0.19,0.02,0.28,0.03c0.26,0.09,0.53,0.18,0.79,0.27c0.13,0.02,0.26,0.03,0.4,0.05
			c0.14,0.03,0.28,0.06,0.42,0.1c0.15,0.03,0.3,0.06,0.45,0.09c0.44,0.13,0.88,0.27,1.31,0.4c0.12,0.03,0.24,0.07,0.36,0.1
			c0.13,0.05,0.26,0.1,0.39,0.14c0.13,0.03,0.26,0.06,0.39,0.09c0.36,0.14,0.72,0.27,1.08,0.41c0.06,0.01,0.12,0.02,0.19,0.03
			c0.1,0.05,0.2,0.1,0.31,0.15c0.09,0.01,0.19,0.02,0.28,0.03c0.18,0.07,0.36,0.14,0.53,0.21c0.03,0.01,0.04,0.03,0.06,0.05
			c0.18,0.07,0.36,0.15,0.54,0.22c0.05,0.01,0.1,0.01,0.15,0.02c0.16,0.08,0.32,0.15,0.47,0.23c0,0,0.01,0.01,0.01,0.01
			c0.14,0.05,0.28,0.1,0.43,0.16c0.05,0.03,0.1,0.06,0.15,0.09c0.08,0.04,0.16,0.07,0.24,0.11c0.21,0.09,0.43,0.18,0.64,0.27
			c0.15,0.07,0.29,0.14,0.44,0.21c0.18,0.09,0.36,0.18,0.54,0.27c0.1,0.06,0.2,0.11,0.31,0.17c0.09,0.01,0.19,0.02,0.28,0.03
			c0.09-0.01,0.18-0.01,0.27-0.02c-0.07-0.18-0.14-0.36-0.21-0.54c-0.06-0.11-0.12-0.22-0.19-0.34c-0.08-0.12-0.15-0.23-0.23-0.35
			c-0.09-0.14-0.19-0.29-0.28-0.43c-0.07-0.12-0.13-0.24-0.2-0.36c-0.02-0.02-0.04-0.04-0.05-0.07c-0.05-0.07-0.1-0.15-0.15-0.22
			c-0.08-0.12-0.17-0.23-0.25-0.35c-0.18-0.27-0.36-0.55-0.54-0.82c-0.15-0.18-0.3-0.36-0.44-0.54c-0.05-0.08-0.1-0.16-0.16-0.23
			c-0.11-0.12-0.21-0.25-0.32-0.37c-0.05-0.07-0.1-0.15-0.16-0.22c-0.02-0.02-0.04-0.04-0.05-0.06c-0.06-0.07-0.11-0.15-0.17-0.22
			c-0.23-0.27-0.45-0.54-0.68-0.81c-0.09-0.09-0.19-0.18-0.28-0.27c-0.33-0.38-0.65-0.77-0.98-1.15c0.1-0.01,0.2-0.02,0.3-0.03
			c0.21,0.09,0.43,0.18,0.64,0.26c0.21,0.11,0.42,0.21,0.63,0.32c0.18,0.08,0.36,0.17,0.54,0.25c0.07,0.03,0.13,0.06,0.2,0.09
			c0.06,0.03,0.13,0.07,0.19,0.1c0.21,0.11,0.42,0.23,0.62,0.34c0.12,0.05,0.23,0.1,0.35,0.15c0.08,0.05,0.15,0.1,0.23,0.15
			c0.03,0.01,0.05,0.03,0.06,0.05c0.1,0.06,0.2,0.11,0.3,0.17c0.07,0.03,0.14,0.06,0.21,0.09c0.08,0.05,0.16,0.11,0.24,0.16
			c0.04,0.03,0.09,0.07,0.13,0.1c0.08,0.04,0.15,0.08,0.23,0.12c0.03,0.01,0.05,0.03,0.06,0.06c0.08,0.04,0.16,0.09,0.24,0.13
			c0.48,0.33,0.96,0.66,1.44,1c0.08,0.06,0.15,0.11,0.23,0.17c0.21,0.18,0.43,0.36,0.64,0.54c0.16,0.12,0.33,0.25,0.49,0.37
			c0,0,0,0,0,0c0.1,0.09,0.21,0.18,0.31,0.28c0.68,0.68,1.36,1.37,2.05,2.05c0.06,0.07,0.12,0.14,0.18,0.21c0,0,0,0,0,0
			c0.06,0.06,0.12,0.13,0.18,0.19c0.05,0.08,0.11,0.17,0.16,0.25c-0.13,0-0.25,0.01-0.38,0.01c-0.15-0.16-0.3-0.31-0.44-0.47
			c-0.06-0.07-0.12-0.14-0.18-0.21c-1.04-0.93-2.06-1.89-3.14-2.78c-1.28-1.06-2.67-1.97-4.28-2.79c2.87,3.79,5.66,7.46,8.44,11.13
			c-0.04,0.04-0.07,0.09-0.11,0.13c-4.63-3.76-10.03-5.81-15.77-7.12c3.64,2.32,7.05,4.87,9.14,8.82c-1.6-0.62-3.18-1.25-4.89-1.56
			c1.35,0.64,2.68,1.31,3.79,2.37c-0.5-0.06-1-0.14-1.5-0.19c-0.51-0.05-1.03-0.12-1.55-0.12c-2.25-0.01-4.5,0.02-6.74-0.01
			c-1.14-0.02-2.27-0.12-3.41-0.21c-0.27-0.02-0.54-0.12-0.82-0.18c-0.02,0.05-0.04,0.09-0.05,0.14c2.34,1.45,4.68,2.9,7.02,4.35
			c-1.17,0.62-2.31,1.21-3.44,1.82c-0.27,0.14-0.53,0.31-0.77,0.51c-0.48,0.4-1.03,0.4-1.61,0.34c-1.05-0.11-2.1-0.17-3.14-0.31
			c-1.3-0.18-2.59-0.39-3.87-0.64c-0.98-0.19-1.94-0.46-2.91-0.68c-1.59-0.36-2.91-1.19-4.07-2.32c-1.34-1.3-2.67-2.61-4.01-3.92
			c-0.08-0.11-0.16-0.22-0.23-0.33c-0.54-0.61-1.08-1.22-1.62-1.83c-0.13-0.17-0.25-0.34-0.38-0.51c-0.1-0.12-0.2-0.25-0.31-0.37
			c-0.06-0.07-0.12-0.14-0.19-0.21c-0.17-0.22-0.34-0.44-0.51-0.65c-0.05-0.08-0.1-0.16-0.14-0.24c-0.11-0.13-0.21-0.25-0.32-0.38
			c-0.09-0.13-0.18-0.27-0.27-0.4c-0.05-0.05-0.09-0.11-0.14-0.16c0.05-0.11,0.09-0.23,0.14-0.34c0.12,0.05,0.23,0.11,0.35,0.16
			c0.08,0.04,0.17,0.08,0.25,0.11c0.05,0.03,0.09,0.06,0.14,0.09c0.33,0.13,0.66,0.25,0.99,0.38c0.06,0.01,0.12,0.02,0.19,0.04
			c0.1,0.05,0.21,0.1,0.31,0.14c0.16,0.03,0.32,0.07,0.48,0.1c0.04,0.05,0.07,0.13,0.11,0.14c0.55,0.09,1.1,0.18,1.65,0.27
			c0.19,0.01,0.38,0.03,0.58,0.04c0.17,0.05,0.33,0.1,0.5,0.15c0.22,0.01,0.45,0.02,0.67,0.03c0.11,0.08,0.22,0.21,0.33,0.22
			c1.05,0.04,2.09,0.06,3.14,0.09c0.57,0,1.15,0.01,1.72,0.01c0.23,0,0.46,0,0.69,0c0.73,0,1.46,0,2.19-0.02
			c0.18,0,0.35-0.05,0.52-0.08c0.13-0.06,0.26-0.12,0.38-0.19c-0.1-0.09-0.2-0.17-0.3-0.26c-0.02,0-0.04-0.01-0.06-0.03
			c-0.21-0.12-0.41-0.25-0.62-0.37c-0.05-0.03-0.1-0.06-0.15-0.09c-0.08-0.03-0.16-0.07-0.24-0.11c-0.09-0.05-0.17-0.1-0.26-0.14
			c-0.07-0.03-0.13-0.06-0.2-0.09c-0.09-0.04-0.19-0.08-0.28-0.12c-0.26-0.13-0.53-0.25-0.79-0.38c-0.07-0.02-0.13-0.04-0.2-0.07
			c-0.39-0.44-0.94-0.49-1.47-0.6c-0.06-0.01-0.12-0.03-0.18-0.04C93.34,22.27,93.2,22.22,93.07,22.17z M113.73,27.32
			c0,0.01,0,0.03,0,0.04c0.05,0,0.09,0,0.14,0c0-0.01,0-0.03,0-0.04C113.82,27.32,113.78,27.32,113.73,27.32z"/>
		<path class="st2" d="M53.86,68.32c-0.49-0.66-1.01-1.3-1.47-1.98c-0.22-0.33-0.33-0.75-0.51-1.12c-0.17-0.36-0.52-0.49-0.85-0.37
			c-0.13,0.05-0.13,0.43-0.18,0.66c-0.01,0.02,0.04,0.06,0.04,0.09c0.14,1.26,0.3,2.52,0.42,3.78c0.02,0.22-0.08,0.45-0.16,0.82
			c-0.58-0.53-1.04-0.98-1.52-1.41c-0.62-0.54-1.27-1.04-1.88-1.6c-0.63-0.58-1.24-1.19-1.83-1.81c-0.63-0.66-1.24-1.34-1.85-2.03
			c-0.27-0.31-0.51-0.59-0.27-1.1c0.35-0.72,0.15-0.99-0.82-1.58c-1.08-0.66-2.15-1.32-3.21-2.01c-0.26-0.17-0.44-0.46-0.68-0.72
			c-0.78,3.85-1.44,7.69-2.46,11.45c-0.06,0.01-0.12,0.02-0.18,0.03c-0.2-0.33-0.44-0.63-0.58-0.98c-0.19-0.45-0.28-0.94-0.45-1.41
			c-0.15-0.4-0.37-0.77-0.51-1.17c-0.35-0.95-0.67-1.92-1.02-2.87c-0.12-0.33-0.26-0.66-0.39-0.99c-0.2-0.52-0.41-1.03-0.59-1.55
			c-0.07-0.19-0.1-0.42-0.07-0.61c0.24-1.31,0.48-2.61,0.77-3.91c0.18-0.81,0.45-1.59,0.63-2.4c0.09-0.37,0.06-0.77,0.1-1.16
			c0.07-0.57,0.21-1.14,0.22-1.71c0-0.59-0.13-1.18-0.19-1.76c-0.04-0.39-0.04-0.77-0.09-1.16c-0.03-0.28-0.07-0.57-0.18-0.84
			c-0.19-0.47,0.15-0.8,0.3-1.16c0.17-0.42,0.47-0.78,0.7-1.17c0.22-0.38,0.51-0.57,0.97-0.61c0.4-0.03,0.78-0.26,1.18-0.32
			c0.45-0.07,0.91-0.03,1.36-0.06c0.56-0.03,0.96,0.05,1.3,0.64c0.5,0.87,1.06,1.69,1.46,2.62c0.58,1.34,1.26,2.64,1.92,3.94
			c0.49,0.97,1.01,1.92,1.54,2.86c0.09,0.16,0.31,0.26,0.54,0.43c0.29-1.47,0.57-2.81,0.82-4.16c0.09-0.49,0.04-1.01,0.13-1.49
			c0.36-1.83,0.61-3.67,0.7-5.54c0.03-0.59,0.28-1.17,0.46-1.88c0.4,0.47,0.68,0.78,0.94,1.11c1.15,1.4,2.28,2.82,3.44,4.21
			c0.37,0.44,0.27,0.94,0.2,1.39c-0.2,1.34-0.51,2.67-0.72,4.02c-0.1,0.59,0.01,1.22-0.14,1.79c-0.43,1.66-0.24,3.37-0.44,5.05
			c-0.18,1.41-0.1,2.85-0.12,4.28c0,0.12,0.04,0.27,0.12,0.35c0.93,0.93,1.88,1.85,2.82,2.77c0,0.14-0.07,0.34,0,0.42
			c0.46,0.51,0.47,1.08,0.28,1.7C53.84,68.15,53.86,68.24,53.86,68.32z"/>
		<path class="st3" d="M21.86,64.62c-0.25,0.49-0.11,0.98-0.03,1.46c0.11,0.71,0.24,1.42,0.36,2.13c0.06,0.38,0.14,0.76,0.17,1.14
			c0.01,0.2-0.07,0.42-0.12,0.62c-0.19-0.09-0.39-0.16-0.56-0.29c-0.55-0.43-1.1-0.86-1.62-1.33c-0.96-0.87-1.91-1.75-2.82-2.67
			c-0.79-0.79-1.52-1.64-2.27-2.46c-0.38-0.42-0.24-0.9-0.1-1.33c0.16-0.48-0.01-0.67-0.41-0.91c-0.96-0.57-1.86-1.22-2.8-1.82
			c-0.51-0.32-1.04-0.61-1.67-0.98c-0.07,0.54-0.12,1.02-0.21,1.49c-0.18,0.92-0.41,1.83-0.59,2.75c-0.06,0.3-0.04,0.61-0.1,0.91
			c-0.21,0.9-0.46,1.79-0.65,2.69c-0.19,0.91-0.32,1.83-0.52,2.74c-0.04,0.2-0.24,0.36-0.37,0.54c-0.14-0.16-0.33-0.3-0.42-0.48
			c-0.23-0.47-0.43-0.96-0.61-1.45c-0.33-0.88-0.64-1.77-0.96-2.65c-0.19-0.52-0.39-1.04-0.61-1.56c-0.64-1.49-1.15-3.01-0.83-4.66
			c0.17-0.86,0.44-1.69,0.63-2.55c0.17-0.76,0.29-1.54,0.44-2.31c0.08-0.39,0.16-0.78,0.25-1.17c0.04-0.19,0.12-0.37,0.12-0.56
			c0.01-0.94,0.05-1.89-0.01-2.83c-0.05-0.73-0.28-1.44-0.35-2.17c-0.03-0.35,0.09-0.74,0.24-1.06c0.25-0.53,0.58-1.02,0.89-1.51
			c0.08-0.13,0.21-0.27,0.34-0.31c0.58-0.17,1.17-0.35,1.77-0.43c0.55-0.07,1.12,0,1.68-0.04c0.51-0.04,0.68,0.32,0.86,0.64
			c0.64,1.13,1.27,2.27,1.86,3.43c0.59,1.16,1.09,2.37,1.68,3.53c0.46,0.91,0.99,1.78,1.51,2.66c0.04,0.07,0.38,0.06,0.4,0.01
			c0.12-0.31,0.24-0.63,0.28-0.95c0.16-1.11,0.18-2.26,0.46-3.34c0.37-1.47,0.49-2.97,0.65-4.46c0.13-1.18,0.29-2.35,0.46-3.52
			c0.02-0.14,0.13-0.27,0.2-0.4c0.14,0.08,0.31,0.12,0.41,0.23c0.4,0.45,0.79,0.92,1.17,1.38c0.77,0.95,1.54,1.91,2.31,2.86
			c0.19,0.24,0.45,0.44,0.58,0.71c0.13,0.29,0.21,0.63,0.19,0.95c-0.04,0.64-0.16,1.27-0.25,1.91c-0.01,0.1,0.02,0.21-0.02,0.29
			c-0.63,1.14-0.22,2.45-0.64,3.63c-0.16,0.44-0.07,0.96-0.12,1.45c-0.08,0.71-0.2,1.42-0.28,2.13c-0.06,0.52-0.09,1.04-0.09,1.55
			c-0.02,1.32,0.03,2.64-0.04,3.96c-0.04,0.69,0.2,1.2,0.63,1.67c0.15,0.17,0.32,0.31,0.46,0.48c0.07,0.08,0.14,0.25,0.1,0.3
			c-0.07,0.09-0.22,0.18-0.33,0.17C22.34,64.81,22.14,64.72,21.86,64.62z"/>
		<path class="st4" d="M225.32,63.36c0.41-0.01,0.83,0.01,1.24-0.05c0.15-0.02,0.35-0.19,0.4-0.34c0.4-1.15,0.36-2.37,0.52-3.56
			c0.47-3.49,0.21-6.99,0.28-10.49c0-0.23-0.07-0.47-0.13-0.83c-0.3,0.15-0.52,0.29-0.76,0.38c-0.19,0.08-0.4,0.1-0.6,0.15
			c0.02-0.25,0.01-0.5,0.06-0.74c0.04-0.2,0.14-0.38,0.23-0.57c0.18-0.39,0.35-0.78,0.55-1.16c0.15-0.28,0.33-0.54,0.49-0.81
			c0.88-1.5,2.13-2.65,3.47-3.75c0.78-0.64,1.58-0.58,2.45-0.48c0.61,0.07,1.24,0.04,1.84,0.17c0.66,0.14,1.3,0.41,1.95,0.64
			c1.15,0.4,2.1,1.09,3.04,1.87c0.93,0.76,1.56,1.71,2.17,2.69c0.44,0.71,0.72,1.52,1,2.31c0.26,0.7,0.45,1.42,0.63,2.14
			c0.09,0.37,0.12,0.77,0.12,1.16c-0.01,2.08,0.02,4.17-0.08,6.25c-0.04,0.81-0.37,1.61-0.58,2.41c-0.11,0.4-0.27,0.79-0.37,1.19
			c-0.22,0.94-0.69,1.76-1.13,2.6c-0.1,0.18-0.12,0.4-0.22,0.59c-0.99,1.85-2.26,3.5-3.83,4.89c-1.18,1.04-2.42,2.01-3.9,2.63
			c-0.42,0.18-0.83,0.39-1.26,0.56c-0.12,0.05-0.28,0.01-0.57,0.01c0.49-0.55,0.93-0.99,1.29-1.48c0.49-0.67,0.94-1.37,1.36-2.08
			c0.26-0.43,0.47-0.9,0.66-1.37c0.19-0.49,0.39-0.98,0.48-1.5c0.16-0.91,0.29-1.82,0.32-2.74c0.03-0.65-0.09-1.31-0.2-1.96
			c-0.12-0.75-0.26-1.47,0.54-1.98c0.16-0.11,0.21-0.38,0.32-0.58c0.43-0.78,0.63-1.65,0.96-2.46c0.43-1.02,0.4-2.07,0.5-3.11
			c0.09-0.91-0.06-1.84-0.09-2.76c-0.03-0.92-0.44-1.74-0.88-2.47c-0.42-0.69-1.06-1.23-1.86-1.63c-0.96-0.47-1.95-0.45-2.92-0.52
			c-0.76-0.06-1.55,0.07-2.3,0.25c-0.73,0.17-1.42,0.5-2.14,0.76c-0.08,0.61,0.49,0.71,0.81,0.94c1.2,0.83,2.44,1.59,3.65,2.4
			c0.75,0.5,0.74,1.31,0.56,2.01c-0.42,1.58-0.35,3.19-0.17,4.74c0.2,1.74,0.25,3.47,0.33,5.21c0.02,0.49,0.13,0.99,0.2,1.48
			c0.06,0.41,0.12,0.82,0.18,1.23c0.11,0.74,0.23,1.48,0.33,2.22c0.06,0.48,0.08,0.96,0.13,1.45c-0.36,0.39-0.57-0.09-0.79-0.21
			c-0.79-0.46-1.54-0.97-2.29-1.48c-1.44-0.98-2.87-1.97-4.31-2.96c-0.39-0.27-0.58-0.21-0.77,0.22c-0.24,0.53-0.52,1.05-0.78,1.57
			c-0.33-0.46-0.51-1-0.34-1.52C225.27,64.36,225.49,63.9,225.32,63.36z"/>
		<path class="st5" d="M190.2,46.9c0.4-0.52,0.7-0.95,1.05-1.34c0.74-0.84,1.51-1.67,2.27-2.49c0.55-0.59,1.11-1.19,1.69-1.75
			c0.15-0.14,0.41-0.25,0.61-0.25c0.71,0.01,1.43,0.01,2.13,0.13c1.14,0.2,2.29,0.43,3.4,0.78c0.87,0.27,1.7,0.7,2.53,1.12
			c0.56,0.28,1.11,0.62,1.61,1.01c0.89,0.68,1.57,1.52,2.11,2.53c0.78,1.48,0.78,3.01,0.51,4.55c-0.13,0.75-0.6,1.46-0.96,2.16
			c-0.24,0.48-0.59,0.91-0.84,1.39c-0.51,0.97-1.34,1.64-2.07,2.41c-0.11,0.12-0.22,0.23-0.34,0.34c-0.25,0.21-0.2,0.41,0.01,0.61
			c0.83,0.8,1.65,1.61,2.49,2.41c0.9,0.86,1.79,1.73,2.71,2.57c0.94,0.86,1.91,1.68,2.86,2.53c0.1,0.09,0.17,0.28,0.16,0.41
			c-0.01,0.1-0.15,0.26-0.26,0.27c-0.52,0.09-1.06,0.11-1.58,0.21c-1.12,0.2-2.23,0.44-3.34,0.64c-0.95,0.17-1.9,0.3-2.85,0.43
			c-0.34,0.05-0.47-0.12-0.6-0.46c-0.24-0.62-0.57-1.21-0.94-1.76c-0.69-1.02-1.43-2-2.16-2.99c-0.26-0.34-0.56-0.65-0.93-0.92
			c0,1-0.02,2,0.01,3.01c0.02,0.73,0.12,1.45,0.15,2.17c0.05,1.08,0.08,2.17,0.11,3.26c0,0.2-0.06,0.39-0.12,0.73
			c-1.04-0.86-1.99-1.64-2.93-2.42c-0.99-0.82-1.97-1.65-2.95-2.47c-0.36-0.3-0.72-0.58-1.07-0.89c-0.08-0.07-0.14-0.23-0.11-0.32
			c0.08-0.32,0.2-0.64,0.31-0.96c0.13-0.4,0.3-0.8,0.39-1.21c0.16-0.83,0.27-1.67,0.41-2.51c0.27-1.62,0.21-3.22-0.04-4.86
			c-0.16-1.09-0.26-2.2-0.45-3.29c-0.11-0.6-0.23-1.19-0.34-1.78c-0.03-0.17-0.07-0.36-0.04-0.53c0.05-0.3,0.18-0.46,0.54-0.29
			c0.77,0.38,1.55,0.72,2.33,1.08c0.91,0.42,1.82,0.83,2.71,1.28c0.37,0.19,0.6,0.52,0.59,0.99c-0.01,0.38,0.06,0.76,0.09,1.14
			c0.04,0.01,0.09,0.03,0.13,0.04c0.05-0.08,0.13-0.15,0.15-0.24c0.09-0.37,0.11-0.76,0.24-1.12c0.22-0.61,0.9-0.61,1.35-0.92
			c0.73-0.49,1.41-1.02,1.52-1.97c0.03-0.23-0.07-0.52-0.22-0.71c-0.66-0.85-1.59-1.22-2.61-1.54c-2.32-0.72-4.66-0.21-6.99-0.33
			c-0.56-0.03-1.13,0.19-1.71,0.26C190.72,47.04,190.53,46.96,190.2,46.9z"/>
		<path class="st6" d="M71.72,72.13c-0.13-0.32-0.28-0.64-0.37-0.97c-0.21-0.7-0.38-1.41-0.59-2.11c-0.2-0.68-0.46-1.35-0.65-2.04
			c-0.2-0.73-0.33-1.47-0.52-2.2c-0.16-0.59-0.37-1.18-0.54-1.77c-0.15-0.5-0.33-0.99-0.41-1.5c-0.03-0.19,0.17-0.44,0.31-0.63
			c0.7-0.95,1.46-1.86,2.11-2.84c0.71-1.07,1.34-2.2,1.98-3.32c1.01-1.75,2.02-3.5,3-5.26c0.46-0.82,0.84-1.68,1.28-2.5
			c0.59-1.09,1.23-2.16,1.81-3.26c0.46-0.87,0.85-1.79,1.29-2.67c0.08-0.16,0.28-0.27,0.42-0.4c0.1,0.14,0.25,0.27,0.3,0.42
			c0.25,0.82,0.55,1.63,0.69,2.47c0.14,0.83,0.76,1.11,1.34,1.48c0.8,0.52,1.6,1.04,2.39,1.57c0.12,0.08,0.22,0.25,0.24,0.39
			c0.18,1.22,0.3,2.45,0.5,3.67c0.18,1.12,0.43,2.23,0.62,3.35c0.17,0.95,0.29,1.9,0.46,2.85c0.07,0.37,0.22,0.73,0.3,1.1
			c0.17,0.81,0.29,1.64,0.49,2.45c0.16,0.66,0.44,1.29,0.62,1.95c0.2,0.72,0.34,1.46,0.54,2.19c0.16,0.59,0.38,1.17,0.57,1.76
			c0.05,0.17,0.07,0.34,0.12,0.51c0.17,0.6,0.36,1.19,0.53,1.79c0.04,0.14,0.04,0.28,0.05,0.43c-0.18,0-0.41,0.06-0.54-0.02
			c-0.88-0.56-1.73-1.17-2.6-1.74c-0.68-0.44-1.38-0.85-2.06-1.29c-0.53-0.34-1.04-0.72-1.58-1.04c-0.2-0.12-0.46-0.12-0.7-0.16
			c-0.15-0.03-0.33-0.02-0.46-0.08c-1.03-0.52-2.07-0.98-3.25-1.1c-0.86-0.09-1.69-0.42-2.55-0.61c-0.33-0.08-0.68-0.15-1-0.11
			c-0.54,0.06-0.53,0.61-0.69,0.97c-0.41,0.92-0.78,1.86-1.16,2.8c-0.13,0.33-0.21,0.67-0.33,1c-0.31,0.87-0.62,1.74-0.96,2.6
			c-0.25,0.64-0.55,1.26-0.83,1.9C71.85,72.15,71.79,72.14,71.72,72.13z M81.07,52.25c-0.07-0.04-0.15-0.07-0.22-0.11
			c-1,1.8-1.94,3.64-2.87,5.66c1.24,0,2.34,0.01,3.44-0.02c0.09,0,0.25-0.26,0.25-0.39c-0.02-0.53-0.08-1.07-0.14-1.6
			C81.38,54.61,81.22,53.43,81.07,52.25z"/>
		<path class="st7" d="M172.38,57.96c0.05-0.92,0.03-1.85,0.16-2.76c0.16-1.07,0.37-2.14,0.72-3.17c0.45-1.36,1.01-2.68,1.61-3.98
			c0.39-0.85,0.88-1.68,1.44-2.42c0.72-0.94,1.43-1.88,2.45-2.59c0.76-0.53,1.56-0.95,2.38-1.31c0.53-0.23,1.09-0.57,1.76-0.41
			c0.66,0.16,1.25,0.41,1.81,0.79c1.35,0.92,2.36,2.16,3.35,3.42c0.41,0.52,0.71,1.14,1.03,1.73c0.43,0.79,0.89,1.57,1.23,2.4
			c0.35,0.85,0.59,1.75,0.87,2.63c0.04,0.13,0,0.29-0.03,0.43c-0.34,1.26-0.65,2.53-1.04,3.77c-0.27,0.86-0.67,1.68-1.01,2.51
			c-0.14,0.35-0.27,0.72-0.43,1.06c-0.35,0.73-0.7,1.46-1.07,2.18c-0.28,0.55-0.59,1.08-0.87,1.62c-0.68,1.32-1.59,2.45-2.81,3.29
			c-0.61,0.42-1.24,0.85-1.93,1.07c-0.92,0.3-1.88,0.61-2.88,0.3c-0.3-0.09-0.65-0.06-0.94-0.18c-0.63-0.27-1.22-0.61-1.84-0.9
			c-1.05-0.5-1.52-1.56-2.29-2.33c-0.17-0.17-0.25-0.45-0.35-0.69c-0.28-0.64-0.61-1.27-0.8-1.94c-0.22-0.78-0.36-1.59-0.45-2.4
			c-0.07-0.69-0.01-1.4-0.01-2.1C172.41,57.96,172.4,57.96,172.38,57.96z M184.28,50.63c-0.17-1.41-0.2-2.73-0.68-3.97
			c-0.31-0.79-0.57-1.61-0.93-2.37c-0.21-0.44-0.55-0.83-0.89-1.18c-0.25-0.26-0.65-0.36-0.92-0.06c-0.51,0.58-0.98,1.2-1.4,1.84
			c-0.24,0.37-0.32,0.83-0.49,1.25c-0.49,1.21-0.31,2.45-0.14,3.69c0.06,0.41,0.17,0.81,0.25,1.22c0.22,1.12-0.43,2.1-0.47,3.2
			c-0.05,1.23-0.26,2.45-0.38,3.68c-0.06,0.58-0.13,1.16-0.11,1.74c0.02,0.65,0.07,1.3,0.22,1.93c0.09,0.36,0.33,0.78,0.63,0.98
			c0.88,0.56,1.53,0.16,2.16-0.76c0.92-1.34,1.43-2.89,1.91-4.42c0.4-1.3,0.82-2.62,0.89-4.01
			C183.98,52.42,184.17,51.47,184.28,50.63z"/>
		<path class="st8" d="M160.42,60.98c-0.37,0.43-0.75,0.85-1.1,1.3c-0.87,1.12-1.69,2.29-2.61,3.38c-0.79,0.95-1.81,1.67-3.05,1.86
			c-1.14,0.17-2.78-0.57-3.5-1.97c-0.39-0.76-0.63-1.55-0.84-2.37c-0.21-0.84-0.22-1.69-0.37-2.52c-0.44-2.39-0.31-4.81-0.38-7.21
			c-0.04-1.39-0.14-2.78-0.18-4.17c-0.05-1.64-0.05-3.28-0.12-4.92c-0.05-1.11-0.17-2.22-0.26-3.33c-0.02-0.24,0-0.48,0-0.88
			c0.3,0.16,0.56,0.23,0.7,0.4c0.75,0.94,1.48,1.89,2.18,2.86c0.84,1.16,1.61,2.37,2.5,3.49c0.4,0.51,0.48,1.01,0.48,1.6
			c0,0.98-0.02,1.96,0.01,2.93c0.05,1.83,0.13,3.66,0.2,5.49c0,0.09,0.04,0.18,0.09,0.36c0.12-0.14,0.21-0.2,0.24-0.29
			c0.35-0.99,0.69-1.98,1.02-2.98c0.07-0.23,0.05-0.49,0.13-0.71c0.54-1.39,0.4-2.85,0.55-4.28c0.02-0.14,0.09-0.39,0.17-0.39
			c0.15-0.02,0.35,0.05,0.46,0.16c0.64,0.62,1.25,1.03,1.74,1.07c-0.07-0.45-0.19-0.89-0.2-1.32c-0.01-0.4-0.18-0.85,0.21-1.3
			c0.62,0.78,1.19,1.5,1.76,2.23c-0.1,0.26-0.2,0.53-0.28,0.75c0.13,0.15,0.24,0.26,0.34,0.38c-0.13,0.09-0.26,0.18-0.4,0.28
			c-0.01,0.01-0.04,0.01-0.04,0.02c-0.06,0.11-0.12,0.23-0.17,0.35c0.11,0,0.23,0.03,0.33,0c0.29-0.1,0.51,0.03,0.42,0.31
			c-0.14,0.44-0.35,0.85-0.52,1.27c0.27,0.54-0.09,1.06-0.12,1.61c0.08,0.04,0.19,0.09,0.33,0.15c-0.14,0.22-0.27,0.4-0.38,0.58
			c0.55,0.76,0.55,1.03,0.14,1.72c-0.04,0.06,0.04,0.24,0.11,0.3c0.09,0.07,0.24,0.06,0.43,0.09c-0.18,0.62-0.35,1.2-0.55,1.87
			c0.01,0.02,0.08,0.15,0.14,0.28c-0.04,0-0.09,0-0.13-0.01c-0.04,0.26-0.07,0.51-0.12,0.85c0.58-0.23,0.67,0.02,0.64,0.41
			C160.41,60.75,160.42,60.87,160.42,60.98z"/>
		<path class="st9" d="M160.42,60.98c0-0.11-0.01-0.23,0-0.34c0.03-0.38-0.06-0.63-0.64-0.41c0.05-0.34,0.08-0.6,0.12-0.85
			c0.04,0,0.09,0,0.13,0.01c-0.06-0.13-0.13-0.25-0.14-0.28c0.2-0.67,0.37-1.26,0.55-1.87c-0.19-0.04-0.34-0.03-0.43-0.09
			c-0.07-0.05-0.15-0.23-0.11-0.3c0.41-0.69,0.41-0.96-0.14-1.72c0.12-0.18,0.24-0.36,0.38-0.58c-0.14-0.07-0.25-0.12-0.33-0.15
			c0.03-0.55,0.39-1.06,0.12-1.61c0.17-0.41,0.38-0.83,0.52-1.27c0.09-0.28-0.13-0.41-0.42-0.31c-0.1,0.04-0.22,0-0.33,0
			c0.06-0.12,0.11-0.23,0.17-0.35c0.01-0.01,0.03-0.01,0.04-0.02c0.13-0.09,0.26-0.18,0.4-0.28c-0.11-0.12-0.21-0.23-0.34-0.38
			c0.08-0.22,0.18-0.49,0.28-0.75c0.48,0.52,0.97,1.04,1.44,1.57c0.86,0.97,1.71,1.96,2.57,2.94c0.18,0.2,0.26,0.64,0.62,0.46
			c0.16-0.08,0.18-0.45,0.24-0.7c0.25-1.08,0.51-2.16,0.73-3.25c0.09-0.46,0-0.96,0.14-1.39c0.47-1.44,0.32-2.96,0.62-4.42
			c0.21-1.05,0.05-2.17,0.07-3.26c0.01-0.29,0.08-0.59,0.12-0.88c0.05-0.01,0.1-0.03,0.15-0.04c0.18,0.23,0.39,0.45,0.52,0.71
			c0.31,0.64,0.56,1.31,0.86,1.96c0.44,0.95,0.94,1.88,1.36,2.84c0.35,0.8,0.62,1.63,0.92,2.45c0.18,0.49,0.38,0.97,0.55,1.47
			c0.22,0.64,0.41,1.29,0.61,1.94c0.19,0.59,0.39,1.17,0.57,1.76c0.04,0.14,0.06,0.31,0.01,0.44c-0.43,1.06-0.91,2.11-1.31,3.19
			c-0.33,0.89-0.55,1.82-0.86,2.72c-0.32,0.95-0.71,1.87-1.03,2.82c-0.2,0.59-0.33,1.21-0.51,1.81c-0.18,0.61-0.38,1.21-0.59,1.8
			c-0.17,0.49-0.38,0.97-0.56,1.47c-0.26,0.73-0.85,1.07-1.53,1.32c-0.49,0.18-0.98,0.2-1.51,0.11c-0.71-0.13-1.16-0.58-1.54-1.08
			c-0.65-0.87-1.07-1.86-1.27-2.94c-0.16-0.84-0.45-1.66-0.68-2.49c-0.13-0.49-0.25-0.98-0.38-1.47
			C160.57,61.15,160.48,61.07,160.42,60.98z"/>
		<path class="st10" d="M225.32,63.36c0.17,0.54-0.06,1-0.22,1.51c-0.16,0.52,0.02,1.06,0.34,1.52c-0.11,0.22-0.22,0.45-0.33,0.67
			c-0.02,0.07-0.04,0.14-0.06,0.21c-0.56,1.12-1.12,2.23-1.63,3.24c-0.72-0.23-1.36-0.38-1.95-0.64c-0.67-0.31-1.38-0.44-2.09-0.58
			c-0.34-0.07-0.69-0.13-1.04-0.16c-1-0.08-2-0.16-3-0.2c-0.45-0.02-0.9,0.08-1.35,0.1c-0.56,0.02-0.68-0.13-0.53-0.66
			c0.17-0.62,0.37-1.24,0.58-1.85c0.12-0.35,0.1-0.64-0.15-0.93c-0.62-0.71-1.24-1.42-1.85-2.15c-0.54-0.65-1.05-1.32-1.6-1.97
			c-0.31-0.37-0.06-0.71,0.04-1.04c0.21-0.66,0.47-1.31,0.68-1.97c0.17-0.56,0.3-1.13,0.45-1.69c0.21-0.76,0.44-1.52,0.64-2.29
			c0.07-0.29,0.05-0.61,0.1-0.92c0.14-0.84,0.18-1.71,0.47-2.5c0.39-1.06,0.28-2.18,0.57-3.25c0.17-0.64,0.03-1.37,0.2-2.02
			c0.35-1.27,0.21-2.57,0.37-3.85c0.01-0.11,0.12-0.28,0.19-0.28c0.16,0,0.39,0.02,0.49,0.13c0.6,0.65,1.16,1.34,1.76,2
			c0.54,0.6,1.05,1.23,1.66,1.74c0.91,0.74,1.04,1.62,0.8,2.68c-0.17,0.75-0.27,1.52-0.38,2.28c-0.22,1.45-0.44,2.91-0.64,4.37
			c-0.05,0.4-0.01,0.81-0.06,1.21c-0.08,0.65-0.22,1.29-0.28,1.94c-0.07,0.86-0.06,1.72-0.12,2.58c-0.06,0.82-0.17,1.63-0.27,2.44
			c-0.04,0.36-0.01,0.59,0.45,0.58c1.71-0.02,3.42,0.02,5.13-0.02C223.59,63.58,224.45,63.44,225.32,63.36z"/>
		<path class="st11" d="M53.86,68.32c0-0.08-0.02-0.17,0-0.24c0.2-0.61,0.18-1.18-0.28-1.7c-0.07-0.08,0-0.27,0-0.42
			c0.33,0.21,0.64,0.47,1,0.61c0.44,0.18,0.93,0.23,1.39,0.38c0.88,0.28,1.69-0.07,2.5-0.3c0.67-0.18,1.32-0.48,1.66-1.11
			c0.22-0.42,0.14-1.03,0.41-1.38c0.3-0.38,0.59-0.68,0.67-1.21c0.11-0.67,0.42-1.32,0.65-1.97c0.02-0.05,0.05-0.09,0.06-0.13
			c0.14-0.87,0.29-1.73,0.43-2.6c0.11-0.68,0.2-1.36,0.29-2.05c0.04-0.29,0.09-0.58,0.09-0.87c0.01-2.72,0.02-5.44-0.01-8.16
			c-0.01-0.55-0.2-1.1-0.26-1.66c-0.09-0.72-0.12-1.45-0.2-2.17c-0.03-0.3-0.16-0.59-0.21-0.89c-0.04-0.23-0.01-0.48-0.01-0.72
			c0.05-0.03,0.09-0.05,0.14-0.08c0.27,0.18,0.58,0.33,0.81,0.55c1.27,1.19,2.52,2.4,3.77,3.61c0.44,0.42,0.88,0.84,1.28,1.3
			c0.13,0.15,0.18,0.41,0.18,0.62c0.01,2.69,0.06,5.38-0.02,8.06c-0.04,1.11,0.03,2.25-0.3,3.37c-0.21,0.68-0.08,1.45-0.15,2.18
			c-0.11,1.05-0.19,2.12-0.41,3.15c-0.24,1.1-0.53,2.21-1.17,3.16c-0.44,0.65-1.06,1.18-1.59,1.78c-0.41,0.46-1,0.6-1.52,0.87
			c-1.21,0.63-2.49,0.72-3.8,0.66c-0.81-0.04-1.6-0.16-2.31-0.62c-0.34-0.22-0.81-0.24-1.14-0.47
			C55.12,69.41,54.5,68.85,53.86,68.32z"/>
		<path class="st12" d="M25.8,41.38c1.05,0.79,2.1,1.56,3.13,2.37c0.64,0.5,1.23,1.07,1.89,1.56c0.64,0.47,0.85,1.03,0.67,1.8
			c-0.1,0.43-0.1,0.9-0.11,1.35c-0.01,1.37,0.02,2.74-0.01,4.1c-0.04,1.88-0.01,3.77-0.21,5.64c-0.35,3.26-0.07,6.52-0.16,9.77
			c-0.01,0.5,0.14,1.01,0.17,1.51c0.01,0.13-0.13,0.39-0.22,0.4c-0.15,0.02-0.36-0.08-0.47-0.19c-0.7-0.73-1.39-1.47-2.06-2.23
			c-0.99-1.12-1.95-2.26-2.92-3.4c-0.45-0.52-0.91-1.03-1.32-1.58c-0.12-0.17-0.16-0.46-0.12-0.67c0.08-0.39,0.27-0.77,0.37-1.16
			c0.15-0.6,0.27-1.2,0.39-1.81c0.15-0.83,0.28-1.67,0.43-2.5c0.18-0.97,0.39-1.94,0.55-2.91c0.08-0.51,0.08-1.03,0.1-1.55
			c0.04-1.4,0.12-2.79,0.1-4.19c-0.02-1.44-0.11-2.88-0.2-4.32c-0.02-0.36-0.2-0.71-0.24-1.07c-0.03-0.27,0.04-0.54,0.06-0.82
			C25.68,41.44,25.74,41.41,25.8,41.38z"/>
		<path class="st13" d="M126.45,35.95c-0.97-1.37-2.4-1.77-4.01-1.96c-0.04,0.11-0.13,0.26-0.12,0.39c0.1,1.61,0.2,3.23,0.32,4.84
			c0.02,0.22,0.1,0.45,0.09,0.67c-0.01,0.13-0.14,0.25-0.21,0.38c-0.1-0.11-0.26-0.21-0.27-0.32c-0.07-0.71-0.08-1.43-0.17-2.13
			c-0.1-0.86-0.25-1.71-0.47-2.55c0,0.52-0.02,1.04,0,1.55c0.04,0.99,0.09,1.98,0.16,2.96c0.02,0.33-0.1,0.41-0.41,0.42
			c-1.62,0.04-3.24,0.06-4.85,0.18c-2.54,0.18-4.91,0.99-7.16,2.16c-1.73,0.9-3.36,1.96-4.74,3.36c-0.28,0.28-0.54,0.18-0.68-0.07
			c-0.18-0.31-0.34-0.68-0.35-1.03c-0.04-1.24-0.03-2.47-0.01-3.71c0.01-0.34,0.13-0.68,0.21-1.04c0.32,0.1,0.42,0.75,0.86,0.34
			c0.1-0.09,0.11-0.5,0.05-0.53c-0.2-0.1-0.45-0.09-0.74-0.12c0.17-0.23,0.36-0.56,0.61-0.82c1.11-1.13,2.4-2.04,3.8-2.75
			c1.18-0.6,2.38-1.17,3.62-1.6c1.12-0.39,2.31-0.58,3.47-0.83c1.96-0.42,3.94-0.41,5.92-0.27c1.33,0.1,2.68,0.25,3.85,1.02
			C125.76,34.83,126.25,35.26,126.45,35.95z M113.99,36.8c-0.07-0.02-0.14-0.03-0.2-0.05c-0.55,0-1.09,0.01-1.64,0.01
			c-0.01-0.08-0.03-0.15-0.04-0.23c0.65-0.36,1.35-0.24,2.04-0.27c0.28-0.01,0.58-0.05,0.82-0.18c0.35-0.19,0.69-0.44,0.97-0.73
			c0.14-0.15,0.28-0.52,0.19-0.64c-0.19-0.27-0.51-0.2-0.76,0.02c-0.05,0.04-0.09,0.09-0.14,0.13c-0.49,0.38-0.95,0.75-1.67,0.64
			c-0.45-0.07-0.96-0.02-1.39,0.13c-0.96,0.35-1.73,1.01-2.24,1.91c-0.69,1.2-0.99,2.53-1.17,3.89c-0.01,0.08,0.25,0.29,0.36,0.28
			c0.53-0.08,1.07-0.18,1.58-0.36c0.94-0.32,1.92-0.58,2.76-1.07C115.03,39.37,115.25,37.77,113.99,36.8z M103.81,44.67
			c0.09,0.42,0.24,0.65,0.54,0.58c0.17-0.04,0.4-0.32,0.39-0.46c-0.02-0.19-0.24-0.46-0.41-0.5
			C104.19,44.27,103.99,44.53,103.81,44.67z M104.11,43.12c0.08-0.01,0.16-0.01,0.24-0.02c0.08-0.24,0.2-0.49,0.22-0.73
			c0.01-0.1-0.29-0.32-0.36-0.29c-0.18,0.08-0.44,0.28-0.44,0.42C103.78,42.71,103.99,42.91,104.11,43.12z"/>
		<path class="st14" d="M118.96,49.39c-0.2-0.07-0.39-0.13-0.59-0.2c-0.07-0.03-0.13-0.06-0.2-0.09c-0.13-0.04-0.25-0.08-0.38-0.13
			c-0.13-0.05-0.27-0.1-0.4-0.15c-0.1-0.04-0.19-0.09-0.29-0.13c-0.06-0.03-0.13-0.07-0.19-0.1c-0.32-0.1-0.65-0.2-0.97-0.3
			c-0.26-0.05-0.53-0.1-0.79-0.15c-0.16-0.03-0.32-0.07-0.47-0.1c-0.26,0.09-0.52,0.17-0.78,0.26c-0.22-0.08-0.51-0.1-0.66-0.26
			c-0.5-0.53-0.93-1.13-1.44-1.65c-0.2-0.21-0.53-0.36-0.82-0.42c-0.81-0.17-1.63-0.29-2.43-0.43c1.16-1.4,7.97-3.31,11.04-3.01
			c-1.78,1.13-3.79,1.9-5.41,3.38c1.1,0.59,1.75-0.27,2.58-0.58c-0.21,0.31-0.42,0.63-0.67,1.01c0.18,0.1,0.35,0.2,0.52,0.3
			c0.81,0.46,1.62,0.92,2.42,1.38c0.06,0.05,0.12,0.1,0.18,0.15c-0.02-0.08-0.04-0.17-0.05-0.25c-0.35-0.48-0.73-0.95-1.05-1.45
			c-0.21-0.33-0.2-0.71,0.11-0.98c0.75-0.64,1.52-1.26,2.3-1.86c0.08-0.06,0.39,0.04,0.46,0.14c0.24,0.38,0.42,0.79,0.66,1.26
			c-0.62,0.08-1.18,0.16-1.73,0.23c-0.63,0.08-1.01,0.5-1.36,0.95c0.03,0.04,0.06,0.08,0.09,0.12c0.1-0.07,0.19-0.14,0.29-0.21
			c0.39-0.23,0.76-0.49,1.17-0.65c0.23-0.09,0.53-0.19,0.7,0.24c0.29,0.7,0.94,1.1,1.46,1.02c0.74-0.11,1.22-0.59,1.41-1.48
			c0.57,0.09,1.2-0.24,1.81,0.27c0.1-0.13,0.24-0.31,0.47-0.61c-0.9,0-1.65,0-2.41,0c-0.36,0-0.82,0.14-1.07-0.03
			c-0.24-0.17-0.27-0.65-0.4-0.99c-0.1-0.25-0.2-0.5-0.32-0.8c0.41-0.14,0.74-0.33,1.23-0.29c1.38,0.1,2.4,0.75,3.31,1.73
			c0.63,0.67,1.35,1.26,2.04,1.88c0.25,0.22,0.29,0.37,0.03,0.67c-0.76,0.85-1.26,1.87-1.64,2.94c-0.05,0.17-0.1,0.33-0.16,0.5
			c-0.14,0.26-0.07,0.68-0.53,0.69c-0.06-0.03-0.13-0.07-0.19-0.1c-0.46-0.13-0.91-0.26-1.37-0.39c-0.2-0.06-0.39-0.11-0.59-0.17
			c-0.24-0.07-0.48-0.15-0.71-0.22c-0.02-0.36-0.04-0.72-0.07-1.08c-0.01-0.06-0.02-0.13-0.02-0.19c-0.03-0.23-0.05-0.46-0.08-0.69
			c-0.03-0.29-0.05-0.59-0.08-0.88c0.02-0.41,0.41-0.28,0.61-0.42c0.03,0,0.04,0,0.06-0.03c0.42-0.12,0.8-0.27,1.06-0.8
			c-0.54,0.22-0.94,0.39-1.35,0.56c-0.1,0-0.2,0.01-0.29,0.01c-0.59,0.05-1.18,0.1-1.77,0.15c-0.42-0.01-0.83-0.02-1.25-0.03
			c-0.05,0.03-0.11,0.06-0.16,0.09c0.05,0.02,0.1,0.05,0.15,0.07c0.36,0.04,0.72,0.07,1.08,0.11c0.12,0,0.23,0.01,0.35,0.01
			c0.14,0.02,0.29,0.03,0.43,0.05c0.13,0.01,0.26,0.01,0.39,0.02c0.02,0.03,0.05,0.06,0.07,0.08c0.05,0.16,0.1,0.33,0.15,0.49
			c0.01,0.29,0.02,0.59,0.04,0.88c-0.01,0.14-0.03,0.29-0.01,0.42c0.16,0.95,0.16,0.95-0.74,1c-0.16-0.05-0.32-0.09-0.48-0.14
			c-0.13-0.02-0.26-0.05-0.4-0.07c-0.18-0.05-0.37-0.1-0.55-0.15c-0.08-0.04-0.16-0.07-0.24-0.11c-0.1-0.01-0.19-0.03-0.29-0.04
			C119.48,49.58,119.22,49.49,118.96,49.39z"/>
		<path class="st15" d="M85.59,35.78c0.4,0.06,0.81,0.12,1.21,0.17c0.35,0.05,0.7,0.13,1.06,0.14c1.5,0.05,3.01,0.12,4.52,0.12
			c0.94,0,1.87-0.14,2.81-0.2c0.16-0.01,0.37,0.03,0.5,0.12c2.03,1.41,4.26,2.43,6.53,3.38c0.59,0.25,0.53,0.22,0.33,0.83
			c-0.24,0.73-0.67,0.89-1.38,0.84c-1.27-0.09-2.56-0.03-3.83-0.16c-1.59-0.16-3.17-0.46-4.75-0.7c-0.06-0.01-0.12,0-0.29,0
			c1.15,0.99,2.32,1.79,3.59,2.39c1.26,0.6,2.57,1.09,3.85,1.63c-0.79,0.49-5.41,0.61-6.55,0.11c0.68-0.08,1.31-0.11,1.91-0.23
			c0.58-0.12,1.13-0.34,1.7-0.62c-4.21-1.96-8.13-4.25-11.27-7.65C85.54,35.89,85.56,35.83,85.59,35.78z"/>
		<path class="st14" d="M105.58,47.44c0.09-0.08,0.17-0.16,0.26-0.24c0.08-0.05,0.15-0.1,0.23-0.14c0.06-0.05,0.12-0.09,0.18-0.14
			c0.07-0.05,0.14-0.1,0.22-0.14c0.01-0.03,0.04-0.05,0.07-0.06c0.86,0,1.72,0,2.58,0c0,0.03,0.01,0.07,0.01,0.1
			c-0.15,0.12-0.29,0.25-0.44,0.37c-0.39,0.3-0.78,0.6-1.17,0.9c0,0.05,0.01,0.1,0.01,0.16c1.96-1.05,3.86-1.07,5.83,0.14
			c-1.69,1.34-2.81,3.11-4.61,4.13c-0.12,0.08-0.23,0.15-0.35,0.23c-0.49,0.37-0.98,0.74-1.48,1.11c-0.09,0.06-0.19,0.12-0.28,0.18
			c-0.12,0.08-0.23,0.16-0.35,0.23c-0.08,0.06-0.15,0.12-0.23,0.19c-0.19,0.22-0.37,0.45-0.56,0.67c-0.1,0-0.19,0.01-0.29,0.01
			c-0.1-0.79-0.2-1.58-0.29-2.36c-0.02-0.36-0.03-0.72-0.05-1.08c-0.02-0.23-0.06-0.45-0.09-0.67c-0.02-0.33-0.04-0.66-0.06-0.98
			c-0.05-0.62-0.1-1.25-0.14-1.87c0.12-0.1,0.24-0.2,0.35-0.3C105.15,47.72,105.37,47.58,105.58,47.44z M107.72,50.55
			c-0.36-0.07-0.77-0.05-0.83-0.56c0.43-0.28,0.86-0.56,1.27-0.83c1.15,0.87,2.08,0.75,2.57-0.29c0.05-0.12,0.09-0.24,0.14-0.36
			c0.01-0.16,0.02-0.31,0.03-0.58c0.63,0.16,1.19,0.3,1.75,0.44c-0.47-0.45-1.02-0.64-1.62-0.58c-1.14,0.12-2.13,0.66-3.11,1.2
			c-0.42,0.24-0.78,0.58-1.17,0.88c-0.17,0.16-0.35,0.33-0.56,0.52c0.54,0.17,0.97,0.31,1.4,0.44c0.03,0.01,0.08-0.04,0.13-0.06
			c1.31,0.17,3.15-0.55,3.59-1.5C110.23,50.03,109.08,50.6,107.72,50.55z"/>
		<path class="st16" d="M105.37,67.5c-0.3,0.16-0.61,0.31-0.91,0.47c-0.09,0.04-0.17,0.07-0.26,0.11c-0.35,0.23-0.71,0.46-1.05,0.7
			c-0.54,0.38-0.98,0.83-1.12,1.64c0.35-0.09,0.65-0.16,0.94-0.25c0.31-0.09,0.62-0.18,0.91-0.32c0.34-0.17,0.6-0.1,0.89,0.12
			c0.51,0.37,0.54,0.58,0.05,1.09c-0.02-0.1-0.04-0.17-0.04-0.24c-0.05-0.46-0.18-0.54-0.59-0.31c-0.41,0.23-0.86,0.41-1.21,0.71
			c-0.32,0.28-0.57,0.66-0.77,1.04c-0.36,0.67-0.96,0.98-1.62,1.24c-1.02,0.39-1.1,0.48-1.07,1.55c0.05,1.64,0.08,3.28,0.22,4.92
			c0.14,1.57,0.41,3.13,0.62,4.7c0.12,0.88,0.19,1.77,0.36,2.65c0.14,0.74,0.4,1.45,0.59,2.17c0.03,0.12,0.04,0.25,0.06,0.37l0.01,0
			c-0.73-0.51-1.07-1.27-1.2-2.09c-0.28-1.84-0.47-3.68-0.71-5.52c-0.23-1.8-0.45-3.6-0.69-5.39c-0.13-0.98-0.38-1.95-0.39-2.93
			c-0.03-2.23,1.12-3.83,2.94-4.99c0.73-0.47,1.52-0.85,2.29-1.27c0.07-0.03,0.14-0.06,0.21-0.09c0.11-0.05,0.22-0.09,0.33-0.14
			c0.19-0.06,0.37-0.13,0.56-0.19c0.06-0.02,0.12-0.05,0.18-0.07c0.07-0.03,0.14-0.07,0.21-0.1c0.12-0.03,0.24-0.07,0.36-0.1
			c0.31-0.04,0.62-0.09,0.94-0.13c-0.05,0.08-0.09,0.16-0.13,0.25c0,0,0,0,0,0c-0.1,0.05-0.2,0.1-0.3,0.15
			c-0.06,0.03-0.12,0.06-0.18,0.08C105.49,67.07,105.47,67.35,105.37,67.5z"/>
		<path class="st14" d="M135.37,67.2c-0.27-1.11-0.53-2.22-0.8-3.33c-0.07-0.01-0.14-0.01-0.21-0.02c-0.2,0.72-0.41,1.44-0.62,2.18
			c0-0.53-0.02-1.04,0.01-1.54c0.06-0.97,0.15-1.93,0.22-2.9c0.05-0.66,0.1-1.32,0.17-1.98c0.01-0.1,0.13-0.22,0.22-0.26
			c0.5-0.18,0.73-0.58,0.98-1.01c0.53-0.91,1.13-1.79,1.77-2.8c0.23,1.37,0.44,2.59,0.66,3.91c-0.21-0.13-0.32-0.19-0.42-0.26
			c-0.04,0.04-0.08,0.06-0.09,0.08c-0.02,1.62-0.04,3.24-0.06,4.85c0,0.28-0.14,0.37-0.42,0.27c-0.35-0.11-0.71-0.18-1.15-0.29
			c-0.06,1.07-0.12,2.08-0.17,3.08C135.43,67.19,135.4,67.19,135.37,67.2z"/>
		<path class="st17" d="M105.93,55.23c0.05,0.19,0.09,0.39,0.14,0.58c0,0.1,0.01,0.2,0.01,0.3c0.04,0.21,0.07,0.42,0.11,0.63
			c0.02,0.12,0.05,0.23,0.07,0.35c0.04,0.18,0.08,0.35,0.12,0.53c0.07,0.28,0.14,0.56,0.2,0.84c0.09,0.34,0.18,0.69,0.27,1.03
			c0.03,0.11,0.06,0.22,0.09,0.33c0.04,0.08,0.08,0.15,0.12,0.23c0.04,0.12,0.08,0.24,0.11,0.36c0.05,0.12,0.1,0.25,0.15,0.37
			c0.04,0.07,0.07,0.14,0.11,0.21c0.02,0.07,0.05,0.13,0.07,0.2c0.04,0.1,0.08,0.19,0.12,0.29c0.1,0.18,0.2,0.35,0.3,0.53
			c0.05,0.08,0.09,0.17,0.14,0.25c1.63,2.14,3.31,4.25,4.88,6.43c0.99,1.37,1.83,2.85,2.73,4.28c-0.04,0.06-0.09,0.12-0.13,0.18
			c-0.18-0.08-0.41-0.11-0.52-0.24c-1.29-1.62-2.6-3.23-3.84-4.89c-1.22-1.63-2.41-3.29-3.5-5.01c-0.76-1.19-1.39-2.47-2-3.75
			c-0.49-1.03-0.48-2.19-0.58-3.31c-0.01-0.14,0.16-0.29,0.25-0.44C105.57,55.43,105.75,55.33,105.93,55.23z"/>
		<path class="st18" d="M135.81,41.34c-0.42-0.66-0.78-1.21-1.16-1.8c1.25-1.26,2.62-2.39,4.19-3.29
			C137.96,37.98,137.04,39.7,135.81,41.34z"/>
		<path class="st19" d="M128.22,24.72c-0.02-0.06-0.05-0.12-0.07-0.18c-0.03-0.07-0.07-0.14-0.1-0.2c-0.11-0.24-0.22-0.49-0.33-0.73
			c-0.04-0.08-0.08-0.17-0.13-0.25c-0.11-0.25-0.22-0.5-0.33-0.75c-0.04-0.08-0.07-0.15-0.11-0.23c-0.04-0.08-0.07-0.16-0.11-0.23
			c-0.04-0.08-0.07-0.17-0.11-0.25c-0.32-0.64-0.63-1.27-0.95-1.91c-0.09-0.17-0.18-0.35-0.26-0.52c-0.04-0.09-0.08-0.19-0.13-0.28
			c0.04-0.07,0.08-0.13,0.12-0.2c0.23,0.23,0.46,0.45,0.68,0.68c0.05,0.07,0.11,0.14,0.16,0.21c0.41,0.5,0.83,1.01,1.24,1.51
			c0.05,0.11,0.1,0.22,0.15,0.34c0.04,0.16,0.09,0.31,0.13,0.47c0.03,0.07,0.07,0.14,0.1,0.22c0.03,0.12,0.07,0.24,0.1,0.37
			c0.03,0.07,0.06,0.15,0.08,0.22c0.04,0.09,0.08,0.18,0.12,0.26c0.03,0.14,0.06,0.29,0.09,0.43c0.06,0.22,0.13,0.44,0.19,0.65
			c0.03,0.07,0.07,0.14,0.1,0.22c0,0.08,0.01,0.17,0.01,0.25c0.06,0.18,0.11,0.35,0.17,0.53c0.01,0.06,0.01,0.11,0.02,0.17
			c0.04,0.08,0.07,0.16,0.11,0.23c0.02,0.16,0.04,0.32,0.05,0.48c0.03,0.07,0.06,0.13,0.08,0.2c0.08,0.39,0.15,0.78,0.23,1.16
			c-0.06,0-0.11-0.01-0.17-0.01c-0.27-0.35-0.55-0.7-0.82-1.05c0.01-0.08,0.01-0.16,0.02-0.24c0.06-0.05,0.11-0.1,0.17-0.15
			c0-0.07,0-0.14,0-0.21c-0.07-0.19-0.13-0.37-0.2-0.56c-0.05-0.08-0.09-0.15-0.14-0.23c-0.01-0.06-0.03-0.12-0.04-0.18
			C128.31,24.86,128.27,24.79,128.22,24.72z"/>
		<path class="st20" d="M131.43,51.2c-0.27-1.72-0.53-3.45-0.81-5.28c0.56,0.43,1.09,0.82,1.59,1.24c0.09,0.08,0.11,0.31,0.09,0.45
			c-0.21,1.2-0.44,2.39-0.67,3.59C131.56,51.21,131.49,51.21,131.43,51.2z"/>
		<path class="st20" d="M134.6,49.43c-0.95,0.42-1.49,1.23-2.01,2.07c-0.04,0.07-0.08,0.15-0.12,0.22c0,0.03-0.01,0.06-0.03,0.08
			c-0.1,0-0.19,0.01-0.29,0.01c0-0.07,0-0.13-0.01-0.2c0.39-0.47,0.17-1.01,0.17-1.52c0-0.02,0.02-0.04,0.04-0.05
			c0.07-0.1,0.13-0.2,0.2-0.29c0.51-0.47,0.97-1.01,1.55-1.36c0.28-0.16,0.84-0.05,1.17,0.13c0.52,0.29,1.08,0.6,1.33,1.22
			c-0.08,0.01-0.16,0.01-0.25,0.02c-0.22-0.13-0.44-0.26-0.66-0.38C135.32,49.23,134.95,49.14,134.6,49.43z"/>
		<path class="st21" d="M125.4,80.91c-0.64,2.29-1.25,4.49-1.86,6.68C123,86.65,124.31,81.74,125.4,80.91z"/>
		<path class="st19" d="M136.94,42.91c0.14-2.14,1.9-2.88,3.36-4.01C140.22,39.57,137.97,42.19,136.94,42.91z"/>
		<path class="st22" d="M136.35,49.76c0.08-0.01,0.16-0.01,0.25-0.02c0.62,1.3,0.32,3.54-0.64,4.2c0.2-0.42,0.37-0.76,0.53-1.11
			c-0.04-0.04-0.08-0.07-0.12-0.11c-0.15,0.14-0.3,0.27-0.51,0.47c-0.23-0.33-0.5-0.7-0.76-1.06c0.04-0.04,0.08-0.07,0.12-0.11
			c0.26,0.22,0.51,0.44,0.77,0.65c0.04-0.02,0.08-0.03,0.12-0.05c-0.07-0.45-0.15-0.91-0.24-1.46c0.62,0.36,0.4,1.01,0.66,1.57
			c0.29-0.69,0-1.2-0.27-1.71C136.67,50.88,136.69,50.49,136.35,49.76z"/>
		<path class="st22" d="M128.56,26.26c-0.01,0.08-0.01,0.16-0.02,0.24c-0.4-0.54-0.8-1.09-1.21-1.63c-0.45-0.6-0.9-1.19-1.34-1.79
			c0.07-0.06,0.14-0.13,0.2-0.19c0.47,0.62,0.96,1.24,1.41,1.88C127.94,25.25,128.24,25.76,128.56,26.26z"/>
		<path class="st22" d="M96.48,20.65c-0.19,0.02-0.38,0.07-0.56,0.07c-1.71,0-3.41,0-5.12,0c-0.16,0-0.31-0.04-0.47-0.06
			c0.09-0.03,0.18-0.09,0.27-0.1c1.42-0.04,2.84-0.09,4.26-0.09C95.4,20.47,95.94,20.58,96.48,20.65z"/>
		<path class="st22" d="M92.71,24.89c-1.05-0.03-2.09-0.04-3.14-0.09c-0.11,0-0.22-0.14-0.33-0.22c1.08,0.05,2.15,0.11,3.23,0.17
			C92.55,24.76,92.63,24.85,92.71,24.89z"/>
		<path class="st23" d="M106.26,67.06c0.04-0.08,0.09-0.16,0.13-0.25c-0.32,0.05-0.63,0.09-0.94,0.13c0.63-0.22,1.23-0.6,1.95-0.32
			C107.02,66.77,106.64,66.92,106.26,67.06z"/>
		<path class="st22" d="M101.07,20.96c-0.76-0.03-1.53-0.05-2.29-0.1c-0.09-0.01-0.17-0.13-0.26-0.19c0.8,0.06,1.59,0.12,2.39,0.19
			C100.97,20.87,101.02,20.93,101.07,20.96z"/>
		<path class="st23" d="M109.12,46.71c-0.86,0-1.72,0-2.58,0c0.11-0.04,0.22-0.12,0.33-0.12c0.64-0.01,1.28-0.01,1.92,0
			C108.9,46.6,109.01,46.67,109.12,46.71z"/>
		<path class="st24" d="M121.36,47.25c-0.12,0-0.23-0.01-0.35-0.01c0.06-0.08,0.13-0.16,0.19-0.25c0.59-0.05,1.18-0.1,1.77-0.15
			c-0.26,0.16-0.52,0.32-0.78,0.48c-0.13-0.01-0.26-0.01-0.39-0.02C121.69,46.98,121.53,47.11,121.36,47.25z"/>
		<path class="st24" d="M123.27,46.82c0.41-0.17,0.81-0.34,1.35-0.56c-0.26,0.53-0.65,0.69-1.06,0.8
			C123.46,46.98,123.36,46.9,123.27,46.82z"/>
		<path class="st24" d="M121.7,50.19c0.91-0.05,0.9-0.05,0.74-1c-0.02-0.14,0.01-0.28,0.01-0.42c0.07,0.45,0.19,0.89,0.2,1.34
			C122.66,50.4,122.09,50.45,121.7,50.19z"/>
		<path class="st23" d="M122.74,46.03c-0.14-0.17-0.33-0.31-0.31-0.4c0.03-0.14,0.2-0.33,0.32-0.34c0.11-0.01,0.34,0.2,0.34,0.31
			C123.08,45.73,122.89,45.85,122.74,46.03z"/>
		<path class="st22" d="M87.48,24.37c-0.55-0.09-1.1-0.17-1.65-0.27c-0.04-0.01-0.07-0.09-0.11-0.14c0.52,0.07,1.04,0.14,1.55,0.23
			C87.35,24.21,87.41,24.31,87.48,24.37z"/>
		<path class="st23" d="M104.58,48.16c0.05,0.62,0.1,1.25,0.14,1.87C104.68,49.41,104.63,48.79,104.58,48.16z"/>
		<path class="st23" d="M104.78,51.02c0.03,0.22,0.07,0.45,0.09,0.67c0.03,0.36,0.04,0.72,0.05,1.08
			C104.88,52.19,104.83,51.61,104.78,51.02z"/>
		<path class="st22" d="M93.65,22.36c0.53,0.11,1.07,0.17,1.47,0.6C94.63,22.76,94.14,22.56,93.65,22.36z"/>
		<path class="st22" d="M132.32,50.1c-0.01,0.51,0.22,1.05-0.17,1.52C132.2,51.11,132.26,50.6,132.32,50.1z"/>
		<path class="st22" d="M103.91,16.74c-0.46-0.2-0.92-0.39-1.37-0.59C102.99,16.34,103.45,16.54,103.91,16.74z"/>
		<path class="st22" d="M107.62,17.92c-0.46-0.13-0.92-0.26-1.37-0.39C106.71,17.66,107.16,17.79,107.62,17.92z"/>
		<path class="st22" d="M112.05,19.04c-0.44-0.13-0.88-0.27-1.31-0.4C111.18,18.77,111.61,18.91,112.05,19.04z"/>
		<path class="st22" d="M102.39,21.17c-0.38-0.06-0.76-0.12-1.14-0.17C101.64,21.05,102.01,21.11,102.39,21.17z"/>
		<path class="st22" d="M114.27,19.79c-0.36-0.14-0.72-0.27-1.08-0.41C113.55,19.51,113.91,19.65,114.27,19.79z"/>
		<path class="st24" d="M123.07,49.27c0.02,0.36,0.04,0.72,0.07,1.08C123.11,49.99,123.09,49.63,123.07,49.27z"/>
		<path class="st22" d="M84.75,23.69c-0.33-0.13-0.66-0.25-0.99-0.38C84.09,23.44,84.42,23.56,84.75,23.69z"/>
		<path class="st22" d="M134.6,49.43c0.35-0.29,0.72-0.2,1.1-0.05C135.33,49.4,134.97,49.41,134.6,49.43z"/>
		<path class="st22" d="M105.02,21.67c-0.37-0.1-0.75-0.2-1.12-0.3C104.27,21.47,104.64,21.57,105.02,21.67z"/>
		<path class="st1" d="M126.19,22.89c-0.07,0.06-0.14,0.13-0.2,0.19c-0.1-0.1-0.19-0.19-0.29-0.29c0.01-0.14,0.03-0.29,0.04-0.43
			C125.89,22.54,126.04,22.71,126.19,22.89z"/>
		<path class="st22" d="M118.02,18.56c0.18,0.27,0.36,0.55,0.54,0.82C118.38,19.11,118.2,18.83,118.02,18.56z"/>
		<path class="st22" d="M90.38,21.34c0.31,0.1,0.62,0.2,0.93,0.3C91.01,21.54,90.7,21.44,90.38,21.34z"/>
		<path class="st23" d="M105.93,55.23c-0.18,0.1-0.36,0.19-0.54,0.29c-0.06-0.13-0.11-0.26-0.17-0.39c0.1,0,0.2-0.01,0.29-0.01
			C105.65,55.16,105.79,55.2,105.93,55.23z"/>
		<path class="st22" d="M105.91,21.49c-0.02,0.12-0.04,0.23-0.06,0.35c-0.19-0.05-0.38-0.1-0.57-0.15
			C105.51,21.67,105.81,21.91,105.91,21.49z"/>
		<path class="st24" d="M123.5,47.09c-0.2,0.14-0.59,0.01-0.61,0.42c0-0.12-0.02-0.33,0.01-0.34
			C123.09,47.12,123.29,47.11,123.5,47.09z"/>
		<path class="st22" d="M125.74,22.36c-0.01,0.14-0.03,0.29-0.04,0.43c-0.14-0.17-0.28-0.35-0.43-0.52c0.13,0,0.25-0.01,0.38-0.01
			C125.68,22.29,125.71,22.33,125.74,22.36z"/>
		<path class="st23" d="M106.59,58.46c-0.07-0.28-0.14-0.56-0.2-0.84C106.45,57.9,106.52,58.18,106.59,58.46z"/>
		<path class="st22" d="M109.48,18.41c-0.26-0.09-0.53-0.18-0.79-0.27C108.95,18.23,109.21,18.32,109.48,18.41z"/>
		<path class="st22" d="M95.32,23.03c0.26,0.13,0.53,0.25,0.79,0.38C95.85,23.28,95.58,23.16,95.32,23.03z"/>
		<path class="st24" d="M118.96,49.39c0.26,0.1,0.52,0.2,0.78,0.29C119.48,49.58,119.22,49.49,118.96,49.39z"/>
		<path class="st22" d="M119.9,21.49c0.07,0.18,0.14,0.36,0.21,0.54c-0.09,0.01-0.18,0.01-0.27,0.02
			C119.86,21.86,119.88,21.67,119.9,21.49z"/>
		<path class="st23" d="M105.58,47.44c-0.22,0.14-0.43,0.29-0.65,0.43C105.15,47.72,105.37,47.58,105.58,47.44z"/>
		<path class="st24" d="M113.9,48.29c0.26-0.09,0.52-0.17,0.78-0.26C114.41,48.12,114.15,48.21,113.9,48.29z"/>
		<path class="st24" d="M115.15,48.14c0.26,0.05,0.53,0.1,0.79,0.15C115.68,48.24,115.41,48.19,115.15,48.14z"/>
		<path class="st22" d="M83.02,22.95c-0.05,0.11-0.09,0.23-0.14,0.34c-0.07-0.13-0.13-0.27-0.2-0.4
			C82.79,22.9,82.91,22.92,83.02,22.95z"/>
		<path class="st22" d="M97.91,24.37c0.1,0.09,0.2,0.17,0.3,0.26c-0.13,0.06-0.26,0.12-0.38,0.19
			C97.94,24.68,98.16,24.57,97.91,24.37z"/>
		<path class="st22" d="M116.36,15.22c-0.21-0.11-0.42-0.21-0.63-0.32C115.94,15.01,116.15,15.11,116.36,15.22z"/>
		<path class="st22" d="M95.12,24.91c-0.23,0-0.46,0-0.69,0C94.66,24.91,94.89,24.91,95.12,24.91z"/>
		<path class="st22" d="M103.52,21.33c-0.24,0.13-0.45,0.12-0.59-0.15C103.13,21.23,103.32,21.28,103.52,21.33z"/>
		<path class="st22" d="M92.14,21.84c0.21,0.08,0.43,0.15,0.64,0.23C92.56,21.99,92.35,21.91,92.14,21.84z"/>
		<path class="st24" d="M123.85,50.57c0.2,0.06,0.39,0.11,0.59,0.17C124.19,50.88,123.97,50.9,123.85,50.57z"/>
		<path class="st22" d="M88.76,20.65c-0.02,0.1-0.05,0.2-0.07,0.29c-0.09-0.06-0.17-0.12-0.26-0.19
			C88.53,20.72,88.65,20.69,88.76,20.65z"/>
		<path class="st24" d="M122.97,48.39c0.03,0.23,0.05,0.46,0.08,0.69C123.02,48.85,122.99,48.62,122.97,48.39z"/>
		<path class="st22" d="M117.92,16c-0.21-0.11-0.42-0.23-0.62-0.34C117.51,15.78,117.71,15.89,117.92,16z"/>
		<path class="st22" d="M97.24,23.97c0.21,0.12,0.41,0.25,0.62,0.37C97.65,24.22,97.44,24.09,97.24,23.97z"/>
		<path class="st22" d="M89.06,20.99c0.16,0.05,0.33,0.09,0.49,0.14C89.38,21.09,89.22,21.04,89.06,20.99z"/>
		<path class="st22" d="M88.56,24.56c-0.17-0.05-0.33-0.1-0.5-0.15C88.23,24.46,88.39,24.51,88.56,24.56z"/>
		<path class="st22" d="M129.04,25.32c-0.06-0.18-0.11-0.35-0.17-0.53C128.92,24.96,128.98,25.14,129.04,25.32z"/>
		<path class="st22" d="M84.75,25.71c0.13,0.17,0.25,0.34,0.38,0.51C85.01,26.04,84.88,25.88,84.75,25.71z"/>
		<path class="st23" d="M108.69,47.19c0.15-0.12,0.29-0.25,0.44-0.37C108.98,46.94,108.84,47.06,108.69,47.19z"/>
		<path class="st24" d="M122.42,47.89c-0.05-0.16-0.1-0.33-0.15-0.49C122.32,47.56,122.37,47.72,122.42,47.89z"/>
		<path class="st22" d="M122.77,19.26c-0.16-0.12-0.33-0.25-0.49-0.37C122.44,19.01,122.61,19.14,122.77,19.26z"/>
		<path class="st22" d="M115.57,20.21c-0.18-0.07-0.36-0.14-0.53-0.21C115.22,20.07,115.4,20.14,115.57,20.21z"/>
		<path class="st22" d="M116.17,20.49c-0.18-0.07-0.36-0.15-0.54-0.22C115.81,20.34,115.99,20.41,116.17,20.49z"/>
		<path class="st23" d="M105.37,67.5c0.09-0.15,0.12-0.44,0.41-0.21C105.64,67.36,105.51,67.43,105.37,67.5z"/>
		<path class="st22" d="M116.8,20.73c-0.16-0.08-0.32-0.15-0.47-0.23C116.48,20.58,116.64,20.66,116.8,20.73z"/>
		<path class="st24" d="M126.53,50.54c0.05-0.17,0.1-0.33,0.16-0.5C126.64,50.21,126.59,50.38,126.53,50.54z"/>
		<path class="st22" d="M125.72,19.45c0.09,0.17,0.18,0.35,0.26,0.52C125.9,19.8,125.81,19.62,125.72,19.45z"/>
		<path class="st22" d="M93.07,22.17c0.13,0.05,0.27,0.1,0.4,0.15C93.34,22.27,93.2,22.22,93.07,22.17z"/>
		<path class="st22" d="M108.41,18.11c-0.13-0.05-0.27-0.1-0.4-0.16C108.14,18,108.27,18.05,108.41,18.11z"/>
		<path class="st23" d="M104.7,67.22c-0.19,0.06-0.37,0.13-0.56,0.19C104.33,67.35,104.52,67.28,104.7,67.22z"/>
		<path class="st22" d="M83.02,23.45c0.09,0.13,0.18,0.27,0.27,0.4C83.2,23.72,83.11,23.58,83.02,23.45z"/>
		<path class="st22" d="M118.71,21.57c-0.15-0.07-0.29-0.14-0.44-0.21C118.41,21.43,118.56,21.5,118.71,21.57z"/>
		<path class="st22" d="M89.71,21.14c0.14,0.06,0.28,0.12,0.43,0.18C89.99,21.26,89.85,21.2,89.71,21.14z"/>
		<path class="st22" d="M112.8,19.28c-0.13-0.05-0.26-0.1-0.39-0.14C112.54,19.19,112.67,19.23,112.8,19.28z"/>
		<path class="st22" d="M100.23,14.92c-0.09,0.05-0.17,0.1-0.26,0.15c-0.03-0.06-0.07-0.11-0.1-0.17
			C99.99,14.91,100.11,14.91,100.23,14.92z"/>
		<path class="st22" d="M110.29,18.55c-0.14-0.03-0.28-0.06-0.42-0.1C110.01,18.49,110.15,18.52,110.29,18.55z"/>
		<path class="st22" d="M128.56,23.67c-0.03-0.14-0.06-0.29-0.09-0.43C128.5,23.38,128.53,23.52,128.56,23.67z"/>
		<path class="st22" d="M117.23,20.9c-0.14-0.05-0.28-0.1-0.43-0.16C116.95,20.79,117.09,20.84,117.23,20.9z"/>
		<path class="st24" d="M120.82,49.98c0.13,0.02,0.26,0.05,0.4,0.07C121.08,50.03,120.95,50,120.82,49.98z"/>
		<path class="st22" d="M105.1,17.19c-0.14-0.06-0.28-0.11-0.41-0.17C104.83,17.08,104.96,17.13,105.1,17.19z"/>
		<path class="st22" d="M125.71,18.96c-0.04,0.07-0.08,0.13-0.12,0.2c-0.04-0.07-0.08-0.13-0.12-0.2
			C125.55,18.97,125.63,18.97,125.71,18.96z"/>
		<path class="st22" d="M119.01,20.02c0.07,0.12,0.13,0.24,0.2,0.36C119.14,20.26,119.08,20.14,119.01,20.02z"/>
		<path class="st22" d="M115.77,15.82c0.09,0.09,0.19,0.18,0.28,0.27C115.96,16,115.86,15.91,115.77,15.82z"/>
		<path class="st22" d="M85.24,23.87c-0.1-0.05-0.21-0.1-0.31-0.14C85.03,23.77,85.14,23.82,85.24,23.87z"/>
		<path class="st22" d="M100.82,16.21c0.08,0.1,0.17,0.21,0.25,0.31C100.99,16.42,100.9,16.32,100.82,16.21z"/>
		<path class="st23" d="M108.4,52.74c0.12-0.08,0.23-0.15,0.35-0.23C108.63,52.59,108.52,52.67,108.4,52.74z"/>
		<path class="st22" d="M105.77,17.42c-0.1-0.05-0.21-0.1-0.31-0.15C105.56,17.32,105.66,17.37,105.77,17.42z"/>
		<path class="st22" d="M102.37,18.07c0.09,0.11,0.17,0.21,0.26,0.32C102.54,18.28,102.46,18.18,102.37,18.07z"/>
		<path class="st22" d="M114.76,19.97c-0.1-0.05-0.2-0.1-0.31-0.15C114.55,19.87,114.66,19.92,114.76,19.97z"/>
		<path class="st22" d="M119.49,20.81c0.08,0.11,0.15,0.23,0.23,0.35C119.64,21.04,119.56,20.92,119.49,20.81z"/>
		<path class="st22" d="M119.55,22.01c-0.1-0.06-0.2-0.11-0.31-0.17C119.35,21.9,119.45,21.96,119.55,22.01z"/>
		<path class="st22" d="M86.75,28.04c0.08,0.11,0.16,0.22,0.23,0.33C86.9,28.26,86.83,28.15,86.75,28.04z"/>
		<path class="st22" d="M104.88,20.63c0.11,0.08,0.21,0.16,0.32,0.24C105.09,20.79,104.99,20.71,104.88,20.63z"/>
		<path class="st22" d="M101.9,15.9c-0.12-0.07-0.23-0.14-0.35-0.22C101.67,15.75,101.78,15.83,101.9,15.9z"/>
		<path class="st24" d="M117.4,48.82c0.13,0.05,0.27,0.1,0.4,0.15C117.67,48.92,117.53,48.87,117.4,48.82z"/>
		<path class="st22" d="M123.08,19.54c-0.1-0.09-0.21-0.18-0.31-0.28C122.88,19.36,122.98,19.45,123.08,19.54z"/>
		<path class="st22" d="M129.36,27.55c0.06,0,0.11,0.01,0.17,0.01c-0.01,0.05-0.01,0.1-0.02,0.14
			C129.46,27.66,129.41,27.6,129.36,27.55z"/>
		<path class="st22" d="M101.49,15.62c-0.11-0.04-0.22-0.08-0.33-0.13C101.27,15.54,101.38,15.58,101.49,15.62z"/>
		<path class="st23" d="M106.95,59.83c-0.03-0.11-0.06-0.22-0.09-0.33C106.89,59.61,106.92,59.72,106.95,59.83z"/>
		<path class="st23" d="M106.08,56.11c0-0.1-0.01-0.2-0.01-0.3C106.08,55.91,106.08,56.01,106.08,56.11z"/>
		<path class="st22" d="M104.63,16.98c-0.11-0.04-0.23-0.08-0.34-0.11C104.4,16.91,104.51,16.94,104.63,16.98z"/>
		<path class="st23" d="M105.96,67.2c0.1-0.05,0.2-0.1,0.3-0.15C106.16,67.11,106.06,67.16,105.96,67.2z"/>
		<path class="st22" d="M132.15,51.81c0.1,0,0.19-0.01,0.29-0.01C132.35,52.03,132.26,52.03,132.15,51.81z"/>
		<path class="st23" d="M106.26,57.09c-0.03-0.12-0.05-0.23-0.07-0.35C106.21,56.86,106.24,56.97,106.26,57.09z"/>
		<path class="st23" d="M107.19,60.42c-0.04-0.12-0.08-0.24-0.11-0.36C107.11,60.18,107.15,60.3,107.19,60.42z"/>
		<path class="st22" d="M115.09,14.64c-0.1,0.01-0.2,0.02-0.3,0.03C114.86,14.42,114.96,14.44,115.09,14.64z"/>
		<path class="st22" d="M99.98,15.08c0.07,0.1,0.14,0.19,0.2,0.29C100.11,15.27,100.05,15.17,99.98,15.08z"/>
		<path class="st22" d="M118.86,16.52c-0.1-0.06-0.2-0.11-0.3-0.17C118.66,16.41,118.76,16.47,118.86,16.52z"/>
		<path class="st22" d="M127.94,21.7c-0.05-0.11-0.1-0.22-0.15-0.34C127.84,21.48,127.89,21.59,127.94,21.7z"/>
		<path class="st23" d="M107.64,61.49c-0.04-0.1-0.08-0.19-0.12-0.29C107.56,61.3,107.6,61.4,107.64,61.49z"/>
		<path class="st22" d="M132.55,49.75c-0.07,0.1-0.13,0.2-0.2,0.29C132.42,49.95,132.49,49.85,132.55,49.75z"/>
		<path class="st23" d="M106.65,54.04c0.09-0.06,0.19-0.12,0.28-0.18C106.83,53.92,106.74,53.98,106.65,54.04z"/>
		<path class="st22" d="M117.11,15.56c-0.07-0.03-0.13-0.06-0.2-0.09C116.97,15.5,117.04,15.53,117.11,15.56z"/>
		<path class="st22" d="M129.16,25.72c-0.04-0.08-0.07-0.16-0.11-0.23C129.09,25.56,129.13,25.64,129.16,25.72z"/>
		<path class="st22" d="M128.39,25.11c0.05,0.08,0.09,0.15,0.14,0.23C128.48,25.26,128.44,25.19,128.39,25.11z"/>
		<path class="st22" d="M84.26,25.12c0.06,0.07,0.12,0.14,0.19,0.21C84.38,25.26,84.32,25.19,84.26,25.12z"/>
		<path class="st22" d="M128.22,24.72c0.04,0.07,0.08,0.14,0.13,0.21C128.31,24.86,128.27,24.79,128.22,24.72z"/>
		<path class="st23" d="M106.07,47.05c-0.08,0.05-0.15,0.1-0.23,0.14C105.92,47.15,105.99,47.1,106.07,47.05z"/>
		<path class="st24" d="M116.91,48.58c0.06,0.03,0.13,0.07,0.19,0.1C117.04,48.65,116.98,48.62,116.91,48.58z"/>
		<path class="st22" d="M117.62,21.09c-0.08-0.04-0.16-0.07-0.24-0.11C117.47,21.02,117.54,21.06,117.62,21.09z"/>
		<path class="st24" d="M118.18,49.1c0.07,0.03,0.13,0.06,0.2,0.09C118.31,49.16,118.25,49.13,118.18,49.1z"/>
		<path class="st22" d="M128.73,25.9c0,0.07,0,0.14,0,0.21C128.73,26.04,128.73,25.97,128.73,25.9z"/>
		<path class="st23" d="M106.46,46.77c-0.07,0.05-0.14,0.1-0.22,0.14C106.32,46.87,106.39,46.82,106.46,46.77z"/>
		<path class="st22" d="M121.64,18.35c-0.08-0.06-0.15-0.11-0.23-0.17C121.49,18.23,121.57,18.29,121.64,18.35z"/>
		<path class="st22" d="M124.65,21.6c0.06,0.07,0.12,0.14,0.18,0.21C124.77,21.73,124.71,21.66,124.65,21.6z"/>
		<path class="st24" d="M120.03,49.72c0.08,0.04,0.16,0.07,0.24,0.11C120.19,49.8,120.11,49.76,120.03,49.72z"/>
		<path class="st22" d="M125.31,21.8c-0.06-0.07-0.12-0.14-0.18-0.21C125.19,21.67,125.25,21.74,125.31,21.8z"/>
		<path class="st22" d="M117.42,17.78c0.05,0.08,0.1,0.16,0.16,0.23C117.52,17.94,117.47,17.86,117.42,17.78z"/>
		<path class="st22" d="M125.49,22c-0.06-0.06-0.12-0.13-0.18-0.19C125.37,21.87,125.43,21.94,125.49,22z"/>
		<path class="st22" d="M126.93,21.88c0.04,0.08,0.07,0.17,0.11,0.25C127.01,22.05,126.97,21.97,126.93,21.88z"/>
		<path class="st22" d="M116.95,17.19c0.05,0.07,0.1,0.15,0.16,0.22C117.05,17.33,117,17.26,116.95,17.19z"/>
		<path class="st22" d="M128.17,22.39c-0.03-0.07-0.07-0.14-0.1-0.22C128.1,22.24,128.14,22.31,128.17,22.39z"/>
		<path class="st22" d="M119.97,17.18c-0.08-0.04-0.16-0.09-0.24-0.13C119.81,17.09,119.89,17.14,119.97,17.18z"/>
		<path class="st22" d="M127.15,22.37c0.04,0.08,0.07,0.15,0.11,0.23C127.23,22.52,127.19,22.45,127.15,22.37z"/>
		<path class="st24" d="M125.81,51.13c0.06,0.03,0.13,0.07,0.19,0.1C125.94,51.2,125.87,51.17,125.81,51.13z"/>
		<path class="st22" d="M132.47,51.72c0.04-0.07,0.08-0.15,0.12-0.22C132.55,51.57,132.51,51.65,132.47,51.72z"/>
		<path class="st22" d="M128.35,22.97c-0.03-0.07-0.06-0.15-0.08-0.22C128.3,22.82,128.33,22.9,128.35,22.97z"/>
		<path class="st22" d="M116.73,16.9c0.06,0.07,0.11,0.15,0.17,0.22C116.84,17.05,116.78,16.98,116.73,16.9z"/>
		<path class="st22" d="M83.62,23.22c-0.08-0.04-0.17-0.08-0.25-0.11C83.46,23.14,83.54,23.18,83.62,23.22z"/>
		<path class="st22" d="M126.56,19.85c-0.05-0.07-0.11-0.14-0.16-0.21C126.45,19.71,126.5,19.78,126.56,19.85z"/>
		<path class="st23" d="M106.07,54.46c0.08-0.06,0.15-0.12,0.23-0.19C106.22,54.33,106.15,54.4,106.07,54.46z"/>
		<path class="st22" d="M101.4,16.9c0.05,0.07,0.1,0.15,0.16,0.22C101.5,17.05,101.45,16.97,101.4,16.9z"/>
		<path class="st22" d="M119.67,16.99c-0.08-0.04-0.15-0.08-0.23-0.12C119.52,16.91,119.59,16.95,119.67,16.99z"/>
		<path class="st22" d="M128.86,24.54c-0.03-0.07-0.07-0.14-0.1-0.22C128.79,24.39,128.82,24.46,128.86,24.54z"/>
		<path class="st22" d="M127.59,23.35c0.04,0.08,0.08,0.17,0.13,0.25C127.68,23.52,127.63,23.44,127.59,23.35z"/>
		<path class="st22" d="M96.39,23.53c0.07,0.03,0.13,0.06,0.2,0.09C96.52,23.6,96.46,23.57,96.39,23.53z"/>
		<path class="st22" d="M119.3,16.77c-0.08-0.05-0.16-0.11-0.24-0.16C119.15,16.66,119.23,16.72,119.3,16.77z"/>
		<path class="st22" d="M96.85,23.77c0.08,0.04,0.16,0.07,0.24,0.11C97.01,23.84,96.93,23.81,96.85,23.77z"/>
		<path class="st22" d="M129.3,26.4c-0.03-0.07-0.06-0.13-0.08-0.2C129.24,26.27,129.27,26.33,129.3,26.4z"/>
		<path class="st23" d="M107.45,61c-0.04-0.07-0.07-0.14-0.11-0.21C107.38,60.86,107.41,60.93,107.45,61z"/>
		<path class="st22" d="M118.81,19.73c0.05,0.07,0.1,0.15,0.15,0.22C118.91,19.88,118.86,19.8,118.81,19.73z"/>
		<path class="st23" d="M108.09,62.27c-0.05-0.08-0.09-0.17-0.14-0.25C108,62.1,108.04,62.19,108.09,62.27z"/>
		<path class="st22" d="M118.5,16.3c-0.08-0.05-0.15-0.1-0.23-0.15C118.35,16.2,118.43,16.25,118.5,16.3z"/>
		<path class="st23" d="M105.09,67.05c-0.07,0.03-0.14,0.07-0.21,0.1C104.95,67.11,105.02,67.08,105.09,67.05z"/>
		<path class="st22" d="M83.6,24.23c0.05,0.08,0.1,0.16,0.14,0.24C83.7,24.39,83.65,24.31,83.6,24.23z"/>
		<path class="st4" d="M225.06,67.26c0.02-0.07,0.04-0.14,0.06-0.21C225.1,67.13,225.08,67.2,225.06,67.26z"/>
		<path class="st22" d="M128.05,24.34c0.03,0.07,0.07,0.14,0.1,0.2C128.12,24.47,128.08,24.4,128.05,24.34z"/>
		<path class="st23" d="M103.82,67.54c-0.07,0.03-0.14,0.06-0.21,0.09C103.68,67.61,103.75,67.58,103.82,67.54z"/>
		<path class="st23" d="M104.2,68.08c0.09-0.04,0.17-0.07,0.26-0.11C104.37,68.01,104.29,68.04,104.2,68.08z"/>
		<path class="st22" d="M100.62,15.92c0.05,0.07,0.1,0.15,0.16,0.22C100.72,16.07,100.67,15.99,100.62,15.92z"/>
		<polygon class="st16" points="101.36,89.84 101.38,89.85 101.37,89.84 		"/>
		<path class="st0" d="M113.73,27.32c0.05,0,0.09,0,0.14,0c0,0.01,0,0.03,0,0.04c-0.05,0-0.09,0-0.14,0
			C113.73,27.35,113.73,27.33,113.73,27.32z"/>
		<path class="st25" d="M81.07,52.25c0.15,1.18,0.31,2.36,0.45,3.54c0.06,0.53,0.12,1.07,0.14,1.6c0,0.13-0.16,0.39-0.25,0.39
			c-1.1,0.03-2.2,0.02-3.44,0.02c0.93-2.02,1.87-3.86,2.87-5.66C80.92,52.17,80.99,52.21,81.07,52.25z"/>
		<path class="st26" d="M184.28,50.63c-0.11,0.84-0.3,1.79-0.35,2.74c-0.07,1.39-0.48,2.71-0.89,4.01
			c-0.47,1.53-0.99,3.08-1.91,4.42c-0.63,0.92-1.29,1.32-2.16,0.76c-0.3-0.19-0.54-0.62-0.63-0.98c-0.15-0.62-0.2-1.28-0.22-1.93
			c-0.02-0.58,0.05-1.16,0.11-1.74c0.12-1.23,0.34-2.45,0.38-3.68c0.04-1.09,0.69-2.08,0.47-3.2c-0.08-0.41-0.2-0.81-0.25-1.22
			c-0.17-1.24-0.35-2.48,0.14-3.69c0.17-0.41,0.25-0.88,0.49-1.25c0.42-0.65,0.89-1.26,1.4-1.84c0.27-0.3,0.67-0.2,0.92,0.06
			c0.34,0.36,0.68,0.74,0.89,1.18c0.36,0.77,0.62,1.58,0.93,2.37C184.08,47.9,184.11,49.22,184.28,50.63z"/>
		<path class="st27" d="M112.15,36.76c0.55,0,1.09-0.01,1.64-0.01c0.07,0.02,0.14,0.03,0.2,0.05c1.26,0.97,1.04,2.57-0.53,3.5
			c-0.84,0.49-1.83,0.75-2.76,1.07c-0.51,0.17-1.05,0.27-1.58,0.36c-0.11,0.02-0.37-0.2-0.36-0.28c0.18-1.36,0.48-2.69,1.17-3.89
			c0.52-0.9,1.28-1.55,2.24-1.91c0.43-0.16,0.94-0.2,1.39-0.13c0.71,0.11,1.18-0.25,1.67-0.64c0.05-0.04,0.09-0.09,0.14-0.13
			c0.25-0.21,0.57-0.29,0.76-0.02c0.08,0.11-0.05,0.49-0.19,0.64c-0.28,0.29-0.62,0.54-0.97,0.73c-0.24,0.13-0.54,0.17-0.82,0.18
			c-0.69,0.02-1.39-0.09-2.04,0.27c-0.63,0.29-1.09,0.73-1.35,1.39c-0.24,0.61-0.11,1.41,0.35,1.73c0.64,0.45,1.26,0.59,1.84,0.07
			c0.1-0.06,0.19-0.12,0.29-0.18c0.05-0.06,0.09-0.13,0.14-0.19c-0.07,0.04-0.14,0.08-0.21,0.12c-0.1,0.05-0.2,0.1-0.3,0.16
			c-0.1,0.01-0.19,0.04-0.29,0.04c-0.78,0.04-1.32-0.3-1.51-0.95c-0.19-0.67,0.08-1.32,0.72-1.71
			C111.91,36.93,112.03,36.84,112.15,36.76z M113.7,38.91c0.4-0.62,0.27-1.19-0.29-1.39c-0.42-0.15-0.9-0.16-1.23,0.17
			c-0.18,0.18-0.24,0.54-0.25,0.83c-0.01,0.12,0.24,0.35,0.38,0.36c0.22,0.01,0.47-0.1,0.66-0.23
			C113.3,38.41,113.55,38.38,113.7,38.91z M109.91,39.66c-0.1,0.38-0.18,0.71-0.28,1.13c0.42-0.11,0.73-0.18,1.07-0.27
			C110.4,40.19,110.18,39.95,109.91,39.66z M113.83,38.98c-0.07-0.06-0.11-0.1-0.15-0.11c-0.02,0-0.08,0.06-0.08,0.08
			c0,0.05,0.04,0.09,0.06,0.14C113.71,39.07,113.75,39.04,113.83,38.98z M113.56,39.24c-0.01-0.01-0.02-0.03-0.03-0.03
			c-0.01,0-0.02,0.02-0.03,0.03c0.01,0.01,0.02,0.03,0.03,0.03C113.54,39.27,113.55,39.25,113.56,39.24z"/>
		<path class="st23" d="M112.95,39.72c-0.58,0.52-1.2,0.38-1.84-0.07c-0.46-0.32-0.59-1.12-0.35-1.73c0.26-0.65,0.72-1.1,1.35-1.39
			c0.01,0.08,0.03,0.15,0.04,0.23c-0.12,0.08-0.24,0.17-0.36,0.24c-0.63,0.39-0.91,1.04-0.72,1.71c0.18,0.65,0.72,0.99,1.51,0.95
			c0.1-0.01,0.19-0.03,0.29-0.04C112.9,39.65,112.92,39.69,112.95,39.72z"/>
		<path class="st28" d="M103.81,44.67c0.17-0.14,0.37-0.4,0.52-0.38c0.17,0.03,0.39,0.31,0.41,0.5c0.01,0.15-0.22,0.43-0.39,0.46
			C104.06,45.32,103.9,45.09,103.81,44.67z"/>
		<path class="st28" d="M104.11,43.12c-0.13-0.21-0.34-0.41-0.35-0.62c-0.01-0.14,0.26-0.34,0.44-0.42
			c0.07-0.03,0.36,0.19,0.36,0.29c-0.01,0.25-0.14,0.49-0.22,0.73C104.27,43.11,104.19,43.12,104.11,43.12z"/>
		<path class="st23" d="M113.99,36.8c-0.07-0.02-0.14-0.03-0.2-0.05C113.86,36.76,113.92,36.78,113.99,36.8z"/>
		<path class="st0" d="M121.2,46.99c-0.06,0.08-0.13,0.16-0.19,0.25c-0.36-0.04-0.72-0.07-1.08-0.11c0-0.06,0.01-0.11,0.01-0.17
			C120.37,46.97,120.79,46.98,121.2,46.99z"/>
		<path class="st0" d="M121.36,47.25c0.16-0.14,0.32-0.26,0.43,0.05C121.65,47.28,121.51,47.26,121.36,47.25z"/>
		<path class="st24" d="M119.95,46.96c0,0.06-0.01,0.11-0.01,0.17c-0.05-0.02-0.1-0.05-0.15-0.07
			C119.84,47.02,119.9,46.99,119.95,46.96z"/>
		<path class="st0" d="M119.15,47.93c0.02,0.08,0.04,0.17,0.05,0.25c-0.06-0.05-0.12-0.1-0.18-0.15
			C119.07,48,119.11,47.96,119.15,47.93z"/>
		<path class="st28" d="M110.73,48.87c-0.49,1.04-1.42,1.16-2.57,0.29c-0.41,0.27-0.84,0.55-1.27,0.83
			c-0.05-0.04-0.1-0.08-0.14-0.12c0.39-0.3,0.75-0.64,1.17-0.88c0.98-0.55,1.97-1.08,3.11-1.2c0.6-0.06,1.15,0.13,1.62,0.58
			c-0.56-0.14-1.12-0.28-1.75-0.44c-0.01,0.27-0.02,0.43-0.03,0.58c-0.09-0.06-0.17-0.15-0.27-0.19c-0.12-0.04-0.28-0.1-0.37-0.06
			c-0.1,0.06-0.22,0.23-0.2,0.33c0.02,0.1,0.18,0.2,0.31,0.25C110.46,48.9,110.6,48.87,110.73,48.87z"/>
		<path class="st24" d="M107.72,50.55c1.35,0.05,2.5-0.52,3.59-1.28c-0.44,0.94-2.28,1.66-3.59,1.5
			C107.72,50.7,107.72,50.63,107.72,50.55z"/>
		<path class="st23" d="M110.73,48.87c-0.13,0-0.27,0.03-0.38-0.02c-0.12-0.05-0.29-0.15-0.31-0.25c-0.02-0.1,0.09-0.28,0.2-0.33
			c0.09-0.05,0.25,0.01,0.37,0.06c0.1,0.04,0.18,0.12,0.27,0.19C110.82,48.63,110.78,48.75,110.73,48.87z"/>
		<path class="st28" d="M107.72,50.55c0,0.07,0,0.15,0,0.22c-0.04,0.02-0.09,0.07-0.13,0.06c-0.43-0.13-0.87-0.27-1.4-0.44
			c0.21-0.2,0.38-0.36,0.55-0.52c0.05,0.04,0.09,0.08,0.14,0.12C106.95,50.5,107.37,50.48,107.72,50.55z"/>
		<path class="st17" d="M113.7,38.91c-0.15-0.53-0.4-0.5-0.74-0.26c-0.19,0.13-0.44,0.23-0.66,0.23c-0.14,0-0.39-0.24-0.38-0.36
			c0.01-0.29,0.07-0.65,0.25-0.83c0.33-0.33,0.81-0.32,1.23-0.17C113.97,37.72,114.1,38.29,113.7,38.91z"/>
		<path class="st21" d="M109.91,39.66c0.26,0.29,0.49,0.53,0.79,0.86c-0.34,0.09-0.65,0.16-1.07,0.27
			C109.73,40.37,109.82,40.04,109.91,39.66z"/>
		<path class="st22" d="M112.87,39.62c0.1-0.05,0.2-0.1,0.3-0.16c0.02,0.03,0.05,0.05,0.07,0.08c-0.1,0.06-0.19,0.12-0.29,0.18
			C112.92,39.69,112.9,39.65,112.87,39.62z"/>
		<path class="st22" d="M113.17,39.46c0.07-0.04,0.14-0.08,0.21-0.12c-0.05,0.06-0.09,0.13-0.14,0.19
			C113.22,39.51,113.19,39.49,113.17,39.46z"/>
		<path class="st22" d="M113.83,38.98c-0.08,0.06-0.12,0.09-0.17,0.12c-0.02-0.05-0.06-0.09-0.06-0.14c0-0.03,0.06-0.09,0.08-0.08
			C113.72,38.88,113.75,38.92,113.83,38.98z"/>
		<path class="st22" d="M113.56,39.24c-0.01,0.01-0.02,0.03-0.03,0.03c-0.01,0-0.02-0.02-0.03-0.03c0.01-0.01,0.02-0.03,0.03-0.03
			C113.54,39.21,113.55,39.23,113.56,39.24z"/>
	</g>
</g>
</svg>
