<?xml version="1.0" encoding="utf-8"?>
<!-- Generator: Adobe Illustrator 23.0.1, SVG Export Plug-In . SVG Version: 6.00 Build 0)  -->
<svg version="1.1" id="Layer_1" xmlns="http://www.w3.org/2000/svg" xmlns:xlink="http://www.w3.org/1999/xlink" x="0px" y="0px"
	 viewBox="0 0 250 100" style="enable-background:new 0 0 250 100;" xml:space="preserve">
<style type="text/css">
	.st0{fill:#CAA713;}
	.st1{fill:#E9BD08;}
	.st2{fill:#DAB20D;}
	.st3{fill:#F1C305;}
	.st4{fill:#F0C206;}
	.st5{fill:#D0AB11;}
	.st6{fill:#E2B80B;}
	.st7{fill:#D4AE10;}
	.st8{fill:#EDC006;}
	.st9{fill:#F1C306;}
	.st10{fill:#F1C407;}
	.st11{fill:#F1C50B;}
	.st12{fill:#F1C408;}
	.st13{fill:#F1C50D;}
	.st14{fill:#F2C612;}
	.st15{fill:#F5D54F;}
	.st16{fill:#F3CC2A;}
	.st17{fill:#F5D34A;}
	.st18{fill:#F2C716;}
</style>
<g>
	<g>
		<path class="st0" d="M232.4,73.17c0.27-0.6,0.79-0.92,1.15-1.4c0.52-0.71,1-1.43,1.44-2.19c0.25-0.43,0.4-0.9,0.61-1.34
			c0.21-0.45,0.39-0.95,0.47-1.44c0.14-0.91,0.21-1.83,0.34-2.74c0.1-0.68-0.03-1.35-0.2-2.01c-0.19-0.73-0.26-1.45,0.53-1.92
			c0.22-0.13,0.22-0.42,0.34-0.63c0.42-0.76,0.78-1.55,0.91-2.42c0.01-0.08,0.03-0.17,0.08-0.22c0.39-0.49,0.31-1.1,0.38-1.66
			c0.19-1.55,0.21-3.12-0.12-4.64c-0.28-1.29-0.96-2.46-2.14-3.21c-0.73-0.46-1.57-0.58-2.42-0.71c-1.05-0.15-2.07,0-3.08,0.16
			c-0.78,0.12-1.54,0.45-2.27,0.78c-0.29,0.13-0.04,0.46,0.14,0.58c1.02,0.68,2.08,1.31,3.08,2.02c0.45,0.31,0.97,0.53,1.35,0.92
			c0.65,0.69,0.47,1.52,0.25,2.32c-0.06,0.22-0.12,0.43-0.11,0.66c0,0.2,0.02,0.39,0,0.59c-0.19,1.98,0.31,3.93,0.31,5.9
			c0,0.69,0.07,1.39,0.06,2.09c-0.01,0.69,0.15,1.34,0.32,1.99c0.11,0.42,0.11,0.85,0.06,1.25c-0.09,0.66,0.3,1.2,0.35,1.83
			c0.04,0.48-0.01,0.96,0.11,1.44c0.05,0.21-0.19,0.35-0.39,0.18c-0.49-0.41-1.08-0.68-1.61-1.03c-0.76-0.5-1.52-1.01-2.27-1.53
			c-1.03-0.71-2.05-1.41-3.07-2.14c-0.44-0.31-0.62-0.26-0.83,0.22c-0.41,0.95-0.92,1.85-1.36,2.78c-0.3,0.63-0.66,1.23-0.91,1.89
			c-0.12,0.33-0.32,0.63-0.5,0.93c-0.06,0.1-0.14,0.17-0.28,0.08c-0.54-0.36-1.15-0.52-1.77-0.7c-0.52-0.16-1.06-0.28-1.57-0.46
			c-0.93-0.32-1.89-0.15-2.82-0.35c-0.98-0.21-1.96-0.05-2.94,0c-0.63,0.03-0.69-0.08-0.59-0.7c0.09-0.6,0.4-1.13,0.56-1.71
			c0.15-0.52,0.06-0.87-0.26-1.21c-1.15-1.2-2.08-2.59-3.22-3.81c-0.37-0.39-0.24-0.8-0.05-1.15c0.35-0.64,0.53-1.33,0.69-2.02
			c0.13-0.55,0.32-1.09,0.48-1.64c0.22-0.76,0.14-1.59,0.58-2.31c0.14-0.22,0.03-0.58,0.09-0.86c0.19-0.86,0.26-1.76,0.51-2.59
			c0.32-1.06,0.22-2.16,0.56-3.2c0.2-0.64-0.02-1.33,0.18-1.97c0.39-1.27,0.25-2.59,0.38-3.89c0.01-0.14,0.04-0.27,0.18-0.31
			c0.18-0.06,0.4-0.02,0.49,0.12c0.48,0.76,1.21,1.3,1.78,1.99c0.52,0.62,1.02,1.3,1.67,1.8c0.92,0.71,1.07,1.63,0.76,2.64
			c-0.23,0.75-0.17,1.54-0.37,2.28c-0.38,1.43-0.24,2.94-0.63,4.37c-0.11,0.4-0.04,0.81-0.05,1.21c-0.02,0.66-0.08,1.3-0.28,1.94
			c-0.22,0.72-0.11,1.49-0.1,2.23c0,0.96-0.2,1.89-0.29,2.83c-0.03,0.35,0.01,0.55,0.44,0.55c1.73-0.02,3.45,0,5.18-0.01
			c1.09-0.01,2.15-0.26,3.23-0.36c0.1-0.01,0.2-0.02,0.29,0c0.61,0.07,0.51,0.02,0.73-0.54c0.43-1.1,0.19-2.28,0.49-3.37
			c0.26-0.94,0.1-1.86,0.17-2.79c0.2-2.49,0.04-4.97,0.09-7.46c0.01-0.3,0.07-0.7-0.18-0.86c-0.3-0.19-0.56,0.11-0.8,0.31
			c-0.11,0.1-0.3,0.24-0.48,0.09c-0.2-0.17-0.18-0.47-0.08-0.58c0.41-0.45,0.37-1.06,0.65-1.56c1.06-1.9,2.43-3.5,4.13-4.85
			c0.8-0.64,1.62-0.64,2.53-0.51c0.67,0.09,1.36,0.05,2.02,0.22c0.49,0.12,0.96,0.31,1.45,0.46c0.73,0.22,1.41,0.55,2.03,0.98
			c0.99,0.68,1.95,1.4,2.62,2.44c0.4,0.62,0.86,1.19,1.21,1.85c0.28,0.53,0.31,1.15,0.66,1.63c0.47,0.67,0.28,1.5,0.6,2.2
			c0.17,0.36,0.13,0.77,0.13,1.15c0.01,2.08,0.12,4.17-0.06,6.25c-0.07,0.83-0.21,1.68-0.58,2.46c-0.17,0.35-0.27,0.76-0.36,1.14
			c-0.24,0.95-0.72,1.78-1.16,2.63c-0.11,0.21-0.14,0.45-0.26,0.67c-0.97,1.81-2.22,3.41-3.75,4.77c-1.18,1.05-2.46,2-3.92,2.68
			c-0.42,0.19-0.9,0.22-1.27,0.54C232.75,73.29,232.56,73.27,232.4,73.17z"/>
		<path class="st1" d="M62.72,51.35c0-1.27-0.03-2.54,0.01-3.81c0.02-0.68-0.21-1.3-0.31-1.95c-0.11-0.74-0.02-1.49-0.17-2.22
			c-0.06-0.32-0.16-0.62-0.26-0.92c-0.08-0.23-0.08-0.48,0.1-0.63c0.18-0.16,0.37,0.04,0.5,0.15c0.64,0.56,1.28,1.12,1.9,1.7
			c0.76,0.72,1.51,1.46,2.26,2.19c0.44,0.43,0.87,0.85,1.29,1.29c0.15,0.15,0.17,0.37,0.17,0.59c0,2.7,0.06,5.41-0.03,8.11
			c-0.04,1.11,0.03,2.25-0.31,3.36c-0.2,0.65-0.02,1.39-0.13,2.08c-0.2,1.23-0.25,2.48-0.6,3.69c-0.15,0.52-0.21,1.04-0.44,1.55
			c-0.37,0.81-0.83,1.53-1.42,2.19c-0.66,0.73-1.42,1.25-2.35,1.65c-1.92,0.84-3.82,0.82-5.73,0.21c-1.34-0.43-2.47-1.28-3.45-2.29
			c-0.57-0.58-1.02-1.27-1.4-2c-0.18-0.35-0.35-0.7-0.49-1.08c-0.13-0.34-0.48-0.45-0.82-0.37c-0.37,0.09-0.22,0.44-0.18,0.66
			c0.04,0.23,0.09,0.45,0.06,0.67c-0.11,0.84,0.26,1.61,0.34,2.43c0,0.03,0.04,0.06,0.03,0.09c-0.03,0.46,0.25,1.05-0.2,1.31
			c-0.26,0.15-0.58-0.39-0.86-0.62c-0.9-0.75-1.82-1.49-2.66-2.29c-0.87-0.83-1.7-1.7-2.48-2.62c-0.43-0.51-0.92-0.97-1.31-1.52
			c-0.09-0.14-0.13-0.26-0.09-0.41c0.32-1.23,0.28-1.28-0.73-1.88c-1.08-0.64-2.15-1.32-3.22-1.99c-0.21-0.13-0.37-0.32-0.45-0.56
			c-0.03-0.1-0.08-0.13-0.17-0.12c-0.11,0.01-0.12,0.09-0.12,0.18c0.01,0.91-0.27,1.79-0.46,2.65c-0.17,0.8-0.21,1.65-0.51,2.42
			c-0.11,0.29-0.08,0.61-0.15,0.9c-0.31,1.34-0.64,2.67-0.85,4.03c-0.06,0.37-0.27,0.71-0.4,1.07c-0.12,0.33-0.3,0.06-0.36-0.07
			c-0.25-0.51-0.55-1.01-0.69-1.56c-0.13-0.51-0.39-0.96-0.55-1.46c-0.36-1.1-0.77-2.19-1.2-3.26c-0.33-0.83-0.48-1.73-0.96-2.5
			c-0.08-0.12-0.09-0.34-0.03-0.47c0.33-0.77,0.28-1.61,0.46-2.4c0.31-1.35,0.6-2.71,0.97-4.05c0.1-0.36,0.03-0.74,0.07-1.11
			c0.06-0.61,0.25-1.22,0.21-1.81c-0.03-0.55-0.13-1.11-0.2-1.67c-0.05-0.37-0.03-0.74-0.05-1.11c-0.02-0.31-0.01-0.6-0.18-0.89
			c-0.25-0.44,0.1-0.84,0.31-1.14c0.26-0.37,0.39-0.79,0.65-1.15c0.27-0.36,0.53-0.62,1.01-0.62c0.39,0,0.8,0,1.14-0.3
			c0.16-0.15,0.41-0.05,0.61-0.07c0.15-0.01,0.29-0.01,0.44-0.01c1.23-0.01,1.18,0.02,1.87,1.01c0.78,1.1,1.29,2.34,1.86,3.54
			c0.53,1.11,1.08,2.22,1.62,3.33c0.37,0.74,0.84,1.43,1.18,2.19c0.07,0.16,0.21,0.35,0.45,0.31c0.27-0.04,0.1-0.26,0.16-0.39
			c0.46-1.1,0.33-2.31,0.69-3.42c0.17-0.54,0.05-1.09,0.17-1.63c0.38-1.86,0.68-3.72,0.72-5.63c0.01-0.48,0.2-0.96,0.33-1.44
			c0.03-0.12,0.08-0.27,0.24-0.27c0.13,0,0.15,0.13,0.22,0.22c0.3,0.41,0.62,0.81,0.95,1.2c0.65,0.79,1.32,1.58,1.97,2.37
			c0.37,0.44,0.72,0.9,1.1,1.33c0.18,0.21,0.28,0.42,0.27,0.7c-0.02,0.68-0.07,1.34-0.33,1.99c-0.18,0.42-0.02,0.89-0.15,1.34
			c-0.31,1.14-0.16,2.36-0.45,3.49c-0.37,1.44-0.13,2.9-0.35,4.33c-0.23,1.51-0.2,3.04-0.2,4.56c0,0.17-0.02,0.35,0.13,0.5
			c0.83,0.86,1.58,1.8,2.53,2.53c1.05,0.8,2.24,1.35,3.56,1.29c1.09-0.05,2.15-0.39,3.01-1.1c0.34-0.28,0.59-0.69,0.54-1.19
			c-0.03-0.33,0.03-0.58,0.36-0.77c0.26-0.15,0.33-0.47,0.44-0.76c0.26-0.7,0.3-1.46,0.63-2.13c0.04-0.07,0.1-0.15,0.09-0.22
			c-0.12-1.04,0.52-1.95,0.45-2.99c-0.03-0.52,0.05-1.05,0.23-1.56c0.09-0.27,0.13-0.56,0.13-0.86
			C62.72,54.08,62.72,52.71,62.72,51.35C62.72,51.35,62.72,51.35,62.72,51.35z"/>
		<path class="st2" d="M165.1,69.32c-1.04,0-2.31-0.84-2.64-1.81c-0.13-0.37-0.36-0.68-0.48-1.06c-0.32-0.97-0.56-1.96-0.84-2.93
			c-0.21-0.73-0.19-1.52-0.56-2.22c-0.06-0.11-0.05-0.25-0.21-0.28c-0.17-0.03-0.16,0.12-0.22,0.21c-0.39,0.6-0.91,1.11-1.35,1.67
			c-0.42,0.53-0.83,1.06-1.22,1.6c-0.69,0.96-1.41,1.92-2.46,2.48c-0.85,0.45-1.73,0.75-2.83,0.37c-1.24-0.44-1.94-1.29-2.46-2.35
			c-0.25-0.53-0.35-1.16-0.54-1.72c-0.36-1.04-0.18-2.15-0.52-3.17c-0.1-0.3-0.11-0.64-0.11-0.96c0.02-1.41-0.13-2.82-0.11-4.24
			c0.01-1.28,0-2.57-0.11-3.84c-0.22-2.59-0.16-5.19-0.2-7.79c-0.01-0.84-0.13-1.67-0.25-2.5c-0.02-0.15-0.15-0.41,0.13-0.49
			c0.28-0.08,0.46,0.11,0.6,0.31c0.67,0.95,1.42,1.85,2.09,2.8c0.56,0.78,1.13,1.54,1.69,2.31c0.35,0.48,0.7,0.98,1.08,1.45
			c0.2,0.24,0.26,0.61,0.25,0.96c-0.01,0.94-0.02,1.89,0,2.83c0.06,1.96,0.21,3.92,0.2,5.88c0,0.13-0.07,0.33,0.16,0.34
			c0.17,0.01,0.16-0.17,0.19-0.29c0.15-0.54,0.39-1.03,0.6-1.55c0.21-0.52,0.35-1.1,0.48-1.65c0.09-0.37,0.13-0.74,0.3-1.1
			c0.24-0.52,0.09-1.12,0.18-1.68c0.11-0.63,0.09-1.29,0.12-1.94c0.01-0.15,0.01-0.31,0.18-0.36c0.17-0.05,0.32-0.01,0.43,0.14
			c0.31,0.43,0.83,0.6,1.2,0.97c0.12,0.12,0.33,0.24,0.48,0.12c0.12-0.1,0.06-0.29,0.01-0.45c-0.15-0.55-0.17-1.12-0.16-1.68
			c0-0.14,0.01-0.28,0.14-0.34c0.16-0.07,0.2,0.08,0.29,0.18c1.36,1.56,2.65,3.18,4.06,4.7c0.61,0.65,1.15,1.36,1.72,2.05
			c0.12,0.15,0.26,0.19,0.43,0.16c0.22-0.04,0.2-0.21,0.22-0.38c0.04-0.43,0.08-0.83,0.32-1.23c0.17-0.28,0.11-0.69,0.15-1.04
			c0.13-0.97,0.18-1.98,0.45-2.89c0.33-1.11,0.16-2.24,0.43-3.33c0.34-1.34,0.16-2.71,0.21-4.07c0.01-0.16-0.04-0.35,0.03-0.48
			c0.08-0.16-0.03-0.47,0.21-0.48c0.14,0,0.34,0.21,0.42,0.37c0.32,0.64,0.67,1.27,0.9,1.94c0.15,0.43,0.41,0.78,0.57,1.21
			c0.31,0.81,0.76,1.56,1.08,2.38c0.27,0.68,0.51,1.37,0.78,2.04c0.21,0.51,0.38,1.05,0.55,1.56c0.2,0.59,0.43,1.19,0.59,1.8
			c0.15,0.59,0.28,1.21,0.56,1.76c0.08,0.17,0.07,0.28,0,0.45c-0.52,1.2-0.99,2.41-1.45,3.63c-0.35,0.93-0.54,1.92-1.01,2.81
			c-0.16,0.3-0.22,0.67-0.31,1c-0.3,1.08-0.69,2.12-0.98,3.2c-0.14,0.51-0.31,1.03-0.48,1.54c-0.18,0.54-0.39,1.07-0.62,1.59
			c-0.31,0.71-0.87,1.06-1.54,1.3C165.66,69.22,165.39,69.37,165.1,69.32z"/>
		<path class="st3" d="M127.9,25.66c-2.79-4-6.27-7.23-10.61-9.52c2.83,3.64,5.6,7.33,8.28,11.11c-4.67-3.7-10.05-5.75-15.8-7.07
			c3.63,2.33,7.05,4.88,9.15,8.83c-1.7-0.69-3.41-1.33-5.22-1.67c1.47,0.65,2.9,1.35,4.15,2.38c-0.07,0.17-0.19,0.1-0.29,0.08
			c-0.95-0.21-1.92-0.31-2.89-0.31c-2.21,0.01-4.43,0.05-6.64-0.01c-1.26-0.04-2.53-0.07-3.78-0.32c-0.15-0.03-0.32-0.06-0.55,0.06
			c2.38,1.47,4.72,2.92,7.13,4.42c-1.24,0.58-2.41,1.07-3.47,1.77c-0.28,0.19-0.6,0.33-0.85,0.55c-0.44,0.38-0.95,0.39-1.47,0.3
			c-1.07-0.17-2.17-0.13-3.23-0.32c-1.02-0.18-2.05-0.26-3.07-0.47c-0.91-0.18-1.84-0.32-2.74-0.56c-1.7-0.45-3.34-1.02-4.67-2.27
			c-1.4-1.31-2.83-2.59-4.13-4.01c-1.57-1.72-3.03-3.51-4.4-5.39c-0.07-0.1-0.22-0.2-0.08-0.33c0.1-0.09,0.2,0,0.31,0.05
			c1.32,0.63,2.7,1.03,4.14,1.32c1.69,0.34,3.4,0.39,5.1,0.55c1.72,0.16,3.45,0.04,5.17,0.07c0.08,0,0.19,0.02,0.24-0.02
			c0.12-0.11,0.36-0.05,0.39-0.24c0.04-0.21-0.19-0.25-0.31-0.32c-1.5-0.88-3.08-1.59-4.73-2.13c-1.11-0.36-2.22-0.71-3.35-1
			c-0.3-0.08-0.61-0.19-0.94-0.2c-0.13-0.01-0.28-0.08-0.26-0.23c0.02-0.15,0.18-0.1,0.29-0.1c0.59-0.01,1.17-0.01,1.76-0.03
			c1.4-0.05,2.79-0.19,4.19-0.08c1.22,0.1,2.45,0,3.65,0.15c1.48,0.18,2.97,0.19,4.43,0.49c0.89,0.19,1.82,0.27,2.68,0.61
			c0.17,0.07,0.29,0.01,0.38-0.12c0.12-0.16-0.04-0.24-0.13-0.31c-0.86-0.67-1.64-1.43-2.4-2.21c-1.2-1.22-2.24-2.57-3.28-3.92
			c-0.07-0.09-0.1-0.19-0.15-0.29c0.15-0.1,0.27-0.07,0.38,0.01c1.66,1.1,3.53,1.73,5.38,2.4c0.96,0.35,1.99,0.47,2.97,0.77
			c1.16,0.36,2.36,0.59,3.52,0.94c1.42,0.43,2.82,0.93,4.2,1.45c1,0.38,1.96,0.89,2.93,1.34c0.12,0.05,0.23,0.13,0.35,0.15
			c0.12,0.02,0.28,0.06,0.36-0.06c0.08-0.12,0.01-0.24-0.06-0.36c-0.79-1.4-1.7-2.72-2.68-3.99c-0.72-0.92-1.47-1.82-2.31-2.63
			c-0.09-0.09-0.23-0.18-0.14-0.33c0.1-0.16,0.21-0.04,0.33,0.01c2.56,1.1,4.98,2.42,7.14,4.21c1.84,1.52,3.42,3.28,4.82,5.2
			c0.34,0.46,0.62,0.97,0.94,1.45C127.97,25.58,127.94,25.62,127.9,25.66z"/>
		<path class="st4" d="M21.73,65.35c-0.01,0.35,0.04,0.69,0.19,1c0.27,0.58,0.14,1.21,0.25,1.81c0.08,0.42,0.03,0.86,0.2,1.28
			c0.07,0.17,0.11,0.46-0.15,0.55c-0.2,0.07-0.4-0.06-0.53-0.25c-0.32-0.43-0.81-0.67-1.21-1.02c-1.24-1.1-2.5-2.18-3.6-3.44
			c-0.51-0.59-1.06-1.14-1.61-1.69c-0.53-0.52-0.65-1.07-0.4-1.71c0.18-0.47-0.03-0.64-0.38-0.88c-0.92-0.63-1.9-1.14-2.81-1.78
			c-0.45-0.31-0.94-0.59-1.41-0.89c-0.21-0.14-0.31,0-0.34,0.17c-0.04,0.2-0.04,0.42-0.06,0.63c-0.09,0.92-0.28,1.85-0.51,2.73
			c-0.22,0.85-0.33,1.72-0.53,2.57c-0.23,0.96-0.5,1.91-0.62,2.9c-0.06,0.52-0.35,1-0.31,1.55c0.01,0.17-0.07,0.43-0.36,0.44
			c-0.25,0-0.35-0.15-0.43-0.38c-0.17-0.49-0.4-0.96-0.57-1.46c-0.32-0.93-0.67-1.86-1.05-2.77c-0.36-0.87-0.59-1.78-0.98-2.64
			c-0.27-0.59-0.55-1.23-0.49-1.93c0.07-0.8-0.02-1.61,0.31-2.39c0.13-0.31-0.01-0.74,0.13-1.05c0.34-0.76,0.24-1.61,0.62-2.35
			c0.1-0.2,0.09-0.41,0.08-0.62c0-0.31,0-0.63,0.12-0.91c0.54-1.29,0.28-2.64,0.2-3.94c-0.04-0.66-0.26-1.34-0.35-2.02
			c-0.04-0.29,0-0.59,0.14-0.82c0.35-0.57,0.62-1.18,1.03-1.71c0.11-0.14,0.21-0.28,0.36-0.3c1.19-0.12,2.3-0.72,3.55-0.46
			c0.42,0.09,0.55,0.36,0.73,0.62c0.73,1.09,1.34,2.26,1.88,3.46c0.54,1.18,1.06,2.38,1.67,3.52c0.48,0.9,1.01,1.77,1.49,2.66
			c0.11,0.2,0.28,0.22,0.45-0.01c0.19-0.24,0.25-0.52,0.22-0.77c-0.08-0.91,0.3-1.74,0.38-2.62c0.1-1.19,0.37-2.36,0.57-3.54
			c0.18-1.05,0.05-2.14,0.38-3.15c0.25-0.75,0.09-1.5,0.24-2.24c0.09-0.45,0.3-0.33,0.53-0.17c0.13,0.09,0.2,0.25,0.3,0.38
			c0.9,1.09,1.79,2.19,2.69,3.28c0.38,0.46,0.76,0.91,1.16,1.35c0.26,0.28,0.3,0.61,0.21,0.95c-0.18,0.64-0.27,1.29-0.27,1.96
			c0,0.08,0.02,0.18-0.02,0.24c-0.54,0.83-0.27,1.8-0.46,2.69c-0.29,1.33-0.15,2.71-0.43,4.02c-0.47,2.21-0.13,4.43-0.27,6.64
			c-0.03,0.53,0.47,0.69,0.65,1.07c0.09,0.19,0.3,0.32,0.46,0.49c0.07,0.07,0.2,0.12,0.11,0.28c-0.08,0.15-0.18,0.22-0.33,0.21
			c-0.08-0.01-0.16-0.03-0.24-0.05C21.71,64.67,21.71,64.67,21.73,65.35z"/>
		<path class="st5" d="M195.49,46.73c-1.21,0.08-2.37-0.07-3.52,0.12c-0.38,0.06-0.73,0.24-1.13,0.21c-0.2-0.02-0.46-0.01-0.52-0.17
			c-0.06-0.17,0.08-0.41,0.22-0.55c1.36-1.44,2.62-2.98,4.01-4.4c0.55-0.56,1.05-0.98,1.95-0.8c0.81,0.16,1.69,0.01,2.5,0.24
			c0.9,0.25,1.85,0.38,2.71,0.72c0.7,0.28,1.4,0.61,2.08,0.98c0.56,0.31,1.12,0.59,1.61,1.02c0.86,0.75,1.59,1.56,2.13,2.59
			c0.77,1.46,0.77,2.97,0.51,4.49c-0.13,0.77-0.52,1.51-0.93,2.22c-0.33,0.57-0.72,1.1-1.05,1.66c-0.5,0.84-1.24,1.47-1.94,2.14
			c-0.57,0.55-0.57,0.57-0.07,1.14c0.98,1.11,2.16,2.01,3.21,3.04c0.59,0.58,1.16,1.19,1.79,1.71c0.98,0.81,1.8,1.81,2.85,2.53
			c0.16,0.11,0.17,0.26,0.16,0.43c-0.01,0.18-0.13,0.22-0.28,0.28c-0.52,0.18-1.07-0.01-1.58,0.18c-1.06,0.39-2.2,0.43-3.3,0.58
			c-0.97,0.14-1.9,0.49-2.89,0.5c-0.35,0-0.48-0.13-0.59-0.48c-0.21-0.63-0.6-1.18-0.94-1.76c-0.62-1.07-1.48-1.96-2.17-2.98
			c-0.2-0.3-0.53-0.52-0.68-0.86c-0.02-0.04-0.11-0.07-0.17-0.06c-0.13,0.02-0.11,0.14-0.1,0.24c0,0.9-0.06,1.8,0.04,2.68
			c0.08,0.76,0.01,1.52,0.14,2.27c0.18,1.09,0.13,2.2,0.12,3.3c0,0.56-0.07,0.63-0.53,0.32c-0.57-0.38-1.1-0.83-1.63-1.27
			c-1.04-0.87-2.07-1.76-3.1-2.63c-0.6-0.51-1.21-1-1.81-1.51c-0.09-0.08-0.2-0.19-0.11-0.32c0.19-0.29,0.15-0.67,0.32-0.95
			c0.24-0.38,0.21-0.83,0.39-1.21c0.38-0.81,0.24-1.68,0.39-2.51c0.29-1.62,0.35-3.24-0.08-4.85c-0.02-0.08-0.02-0.16-0.01-0.24
			c0.1-0.97-0.23-1.88-0.34-2.82c-0.09-0.74-0.14-1.47-0.43-2.16c-0.04-0.08-0.01-0.19-0.01-0.29c0.02-0.46,0.2-0.54,0.61-0.33
			c0.72,0.35,1.49,0.64,2.19,1.03c0.7,0.38,1.48,0.57,2.14,1.02c0.12,0.08,0.27,0.1,0.41,0.15c0.55,0.2,0.8,0.54,0.81,1.13
			c0.01,0.31-0.01,0.61,0.09,0.91c0.03,0.09,0,0.2,0.14,0.21c0.19,0.01,0.14-0.14,0.15-0.24c0.06-0.38,0.07-0.76,0.23-1.12
			c0.26-0.57,0.89-0.59,1.32-0.88c0.73-0.49,1.4-1.01,1.55-1.95c0.05-0.28-0.04-0.54-0.23-0.76c-0.7-0.85-1.65-1.17-2.66-1.54
			C198.13,46.59,196.78,46.88,195.49,46.73z"/>
		<path class="st6" d="M90.33,69.13c-0.41,0.01-0.65-0.34-0.93-0.53c-1.61-1.11-3.31-2.06-4.9-3.2c-0.26-0.18-0.54-0.34-0.8-0.52
			c-0.15-0.1-0.35-0.22-0.59-0.08c-0.17,0.1-0.34-0.01-0.5-0.1c-0.46-0.3-0.98-0.47-1.49-0.66c-1.21-0.45-2.49-0.55-3.74-0.8
			c-0.41-0.08-0.8-0.29-1.24-0.32c-0.35-0.02-0.57-0.04-0.72,0.38c-0.37,1.03-0.82,2.03-1.2,3.05c-0.24,0.65-0.45,1.32-0.73,1.94
			c-0.47,1.04-0.82,2.13-1.23,3.2c-0.01,0.03-0.01,0.07-0.03,0.09c-0.18,0.16-0.23,0.53-0.46,0.51c-0.23-0.02-0.19-0.36-0.26-0.57
			c-0.46-1.34-0.87-2.7-1.18-4.09c-0.1-0.43-0.27-0.87-0.4-1.31c-0.11-0.37-0.2-0.74-0.29-1.11c-0.15-0.6-0.38-1.17-0.53-1.77
			c-0.09-0.37-0.1-0.81-0.26-1.11c-0.47-0.88,0.23-1.29,0.62-1.81c0.61-0.82,1.22-1.63,1.73-2.53c0.41-0.73,0.93-1.41,1.33-2.15
			c0.32-0.59,0.7-1.13,1.02-1.72c0.38-0.71,0.78-1.42,1.18-2.12c0.47-0.81,0.93-1.63,1.4-2.45c0.52-0.89,0.99-1.81,1.46-2.72
			c0.41-0.79,0.81-1.59,1.23-2.37c0.35-0.66,0.62-1.36,1.04-1.99c0.24-0.35,0.42-0.79,0.55-1.22c0.08-0.25,0.25-0.35,0.45-0.36
			c0.23-0.02,0.25,0.21,0.28,0.38c0.12,0.86,0.56,1.63,0.69,2.48c0.13,0.84,0.76,1.14,1.37,1.52c0.79,0.5,1.57,1.02,2.36,1.54
			c0.22,0.15,0.32,0.36,0.28,0.63c-0.08,0.55,0.16,1.04,0.29,1.55c0.17,0.62,0.02,1.26,0.18,1.88c0.27,1.12,0.41,2.26,0.6,3.39
			c0.16,0.95,0.32,1.9,0.53,2.84c0.16,0.76,0.26,1.54,0.52,2.28c0.12,0.34,0.23,0.68,0.21,1.03c-0.03,0.39,0.26,0.65,0.31,1.01
			c0.19,1.23,0.61,2.41,0.93,3.6c0.27,1,0.52,2.02,0.97,2.98c0.15,0.32,0.12,0.71,0.29,1.06C90.76,69.09,90.51,69.13,90.33,69.13z
			 M80.76,57.86c0.23-0.02,0.39-0.03,0.56-0.04c0.31-0.01,0.35-0.15,0.33-0.44c-0.11-1.61-0.33-3.21-0.56-4.81
			c-0.02-0.12,0.02-0.28-0.14-0.33c-0.18-0.05-0.25,0.12-0.33,0.23c-0.06,0.08-0.07,0.18-0.12,0.27c-0.45,0.87-0.92,1.73-1.36,2.6
			c-0.35,0.7-0.67,1.42-1.01,2.13c-0.11,0.24-0.03,0.32,0.22,0.33C79.18,57.81,80.01,57.76,80.76,57.86z"/>
		<path class="st7" d="M172.37,57.98c0.07-0.92-0.13-1.87,0.13-2.76c0.3-1.04,0.34-2.14,0.7-3.17c0.48-1.35,0.95-2.7,1.62-3.97
			c0.44-0.83,0.88-1.67,1.45-2.41c0.72-0.94,1.43-1.88,2.45-2.6c0.76-0.53,1.56-0.95,2.38-1.31c0.53-0.23,1.09-0.57,1.76-0.41
			c0.68,0.16,1.28,0.42,1.85,0.81c1.33,0.91,2.35,2.13,3.31,3.39c0.4,0.52,0.7,1.15,1.06,1.7c0.53,0.8,0.86,1.69,1.26,2.55
			c0.37,0.8,0.57,1.69,0.82,2.54c0.05,0.15-0.02,0.31-0.06,0.47c-0.34,1.22-0.68,2.45-1.05,3.66c-0.26,0.84-0.4,1.77-0.95,2.53
			c-0.22,0.31-0.3,0.73-0.44,1.1c-0.3,0.76-0.7,1.46-1.08,2.17c-0.3,0.57-0.63,1.12-0.91,1.7c-0.32,0.65-0.78,1.2-1.23,1.77
			c-0.69,0.87-1.54,1.59-2.51,2.06c-1.31,0.63-2.66,1.01-4.24,0.65c-1.27-0.29-2.25-0.92-3.23-1.64c-0.48-0.35-0.72-0.93-1.13-1.36
			c-0.65-0.67-0.81-1.57-1.21-2.36c-0.41-0.79-0.37-1.67-0.62-2.5C172.23,59.75,172.44,58.85,172.37,57.98z M184.22,50.49
			c-0.15-1.24-0.26-2.52-0.62-3.78c-0.31-1.05-0.77-2.01-1.26-2.97c-0.17-0.33-0.47-0.53-0.75-0.73c-0.22-0.15-0.51-0.19-0.73,0.02
			c-0.55,0.53-0.97,1.16-1.41,1.78c-0.29,0.41-0.34,0.9-0.51,1.34c-0.47,1.22-0.34,2.46-0.11,3.69c0.07,0.39,0.16,0.78,0.24,1.18
			c0.22,1.12-0.31,2.14-0.49,3.19c-0.28,1.64-0.3,3.3-0.47,4.94c-0.08,0.86,0.06,1.75,0.21,2.61c0.18,1.01,1.36,1.35,2.17,0.73
			c0.5-0.38,0.74-0.93,1.05-1.43c0.68-1.13,1.08-2.39,1.46-3.62c0.39-1.25,0.84-2.52,0.86-3.86c0-0.21,0.02-0.43,0.08-0.63
			C184.16,52.15,184.11,51.33,184.22,50.49z"/>
		<path class="st8" d="M31.56,46.44c-0.34,2.2-0.1,4.25-0.2,6.29c-0.09,1.81-0.03,3.64-0.22,5.44c-0.32,3.24-0.07,6.48-0.15,9.72
			c-0.01,0.53,0.27,1.05,0.19,1.61c-0.02,0.16,0.01,0.35-0.19,0.4c-0.18,0.04-0.35,0.04-0.51-0.16c-0.65-0.81-1.44-1.52-2.09-2.32
			c-0.96-1.19-2.07-2.25-2.98-3.48c-0.38-0.51-0.83-0.97-1.27-1.44c-0.2-0.22-0.21-0.45-0.1-0.7c0.38-0.82,0.66-1.67,0.68-2.59
			c0.01-0.36,0.24-0.66,0.29-1c0.08-0.61,0.04-1.25,0.24-1.82c0.34-0.97,0.29-1.99,0.52-2.97c0.26-1.08,0.08-2.2,0.12-3.3
			c0.04-0.84,0.16-1.69,0.08-2.52c-0.13-1.41,0.04-2.82-0.19-4.22c-0.06-0.35-0.16-0.68-0.23-1.03c-0.03-0.12-0.06-0.26-0.04-0.38
			c0.04-0.29,0.07-0.59,0.51-0.33c0.56,0.33,1.1,0.69,1.61,1.1c0.66,0.53,1.32,1.06,1.98,1.59c0.5,0.4,1.01,0.79,1.49,1.22
			C31.4,45.81,31.54,46.19,31.56,46.44z"/>
		<path class="st3" d="M103.71,40.11c0.38,0.02,0.48,0.73,0.93,0.27c0.16-0.16,0.19-0.34,0.04-0.52c-0.24-0.3-0.5-0.17-0.85,0.09
			c0.48-0.98,1.2-1.55,1.92-2.11c1.91-1.48,4.04-2.57,6.31-3.35c1.08-0.37,2.2-0.59,3.34-0.78c1.92-0.31,3.85-0.35,5.78-0.24
			c1.38,0.08,2.76,0.26,3.99,1c0.57,0.34,1.03,0.87,1.23,1.49c-0.38-0.45-0.78-0.88-1.28-1.19c-0.79-0.47-1.67-0.63-2.56-0.78
			c-0.3-0.05-0.34,0.23-0.27,0.43c0.12,0.32,0.1,0.64,0.1,0.96c0,1.34,0.26,2.68,0.2,4.02c-0.01,0.15,0.08,0.31,0.1,0.47
			c0.02,0.16,0.02,0.36-0.2,0.38c-0.21,0.02-0.25-0.15-0.27-0.33c-0.05-0.63-0.14-1.26-0.15-1.89c-0.02-0.97-0.33-1.89-0.43-2.85
			c-0.15,0.54-0.12,1.1-0.05,1.63c0.14,1,0.08,2.01,0.14,3.02c0.02,0.3-0.11,0.38-0.37,0.35c-1.85-0.23-3.7-0.03-5.53,0.21
			c-1.98,0.26-3.9,0.84-5.72,1.73c-2.03,0.99-3.93,2.16-5.54,3.77c-0.26,0.25-0.52,0.17-0.66-0.05c-0.21-0.32-0.39-0.66-0.39-1.07
			c0.01-1.22,0.02-2.44,0-3.66C103.52,40.76,103.78,40.48,103.71,40.11z M113.75,35.52c-0.62-0.05-1.15-0.02-1.6,0.15
			c-1.17,0.44-2.01,1.29-2.52,2.46c-0.25,0.57-0.45,1.16-0.62,1.75c-0.14,0.5-0.22,1.03-0.28,1.55c-0.03,0.23,0.06,0.36,0.38,0.33
			c0.81-0.1,1.59-0.31,2.35-0.57c0.98-0.34,1.95-0.71,2.72-1.48c0.88-0.89,0.77-2.62-0.61-3.02c-0.89-0.26-2.76,0.36-2.56,1.73
			c0.07,0.5,0.4,1.08,0.87,1.24c0.45,0.16,1.31-0.1,1.59-0.48c0.14-0.19,0.17-0.44,0.06-0.59c-0.15-0.19-0.37-0.09-0.55,0.06
			c-0.1,0.08-0.22,0.14-0.34,0.19c-0.41,0.19-0.75-0.02-0.76-0.47c-0.01-0.3,0.07-0.56,0.37-0.73c0.41-0.23,0.83-0.24,1.24-0.05
			c0.29,0.13,0.39,0.35,0.43,0.69c0.09,0.88-0.9,1.61-1.55,1.73c-0.71,0.13-1.6-0.4-1.68-1c-0.1-0.69,0.07-1.31,0.56-1.84
			c0.81-0.88,1.85-0.98,2.94-0.86c0.2,0.02,0.41,0.04,0.56-0.07c0.44-0.3,0.87-0.62,1.28-0.96c0.16-0.13,0.31-0.33,0.11-0.55
			c-0.18-0.2-0.42-0.17-0.63-0.08c-0.11,0.05-0.19,0.17-0.3,0.25C114.72,35.22,114.33,35.76,113.75,35.52z M104.75,44.77
			c0-0.27-0.12-0.49-0.44-0.48c-0.31,0-0.43,0.22-0.43,0.52c0,0.28,0.13,0.47,0.42,0.48C104.61,45.31,104.75,45.11,104.75,44.77z
			 M104.57,42.54c0.03-0.29-0.19-0.45-0.39-0.44c-0.26,0.02-0.45,0.23-0.47,0.53c-0.02,0.33,0.3,0.43,0.47,0.43
			C104.42,43.06,104.59,42.83,104.57,42.54z"/>
		<path class="st3" d="M108.52,45.57c3.36-2.1,7.04-3,10.94-3.06c0.02,0.04,0.04,0.09,0.05,0.13c-0.48,0.26-0.96,0.51-1.44,0.78
			c-1.27,0.7-2.6,1.3-3.68,2.3c-0.09,0.08-0.26,0.13-0.18,0.3c0.06,0.12,0.2,0.09,0.31,0.1c0.53,0.05,1.03,0.05,1.43-0.4
			c0.17-0.19,0.44-0.29,0.69-0.39c-0.1,0.28-0.21,0.54-0.41,0.74c-0.25,0.25-0.11,0.41,0.11,0.53c0.24,0.13,0.49,0.23,0.75,0.32
			c0.86,0.29,1.46,0.99,2.25,1.39c0.14,0.07,0.28,0.14,0.43,0.21c0.04-0.21-0.11-0.27-0.2-0.32c-0.73-0.4-1.18-1.04-1.54-1.76
			c-0.12-0.25-0.14-0.54,0.05-0.78c0.65-0.85,1.56-1.4,2.42-2.02c0.13-0.09,0.28-0.07,0.39,0.08c0.03,0.04,0.06,0.08,0.08,0.12
			c0.76,1.25,0.76,1.22-0.7,1.33c-0.68,0.05-1.25,0.4-1.68,0.94c-0.06,0.08-0.14,0.16-0.04,0.25c0.1,0.09,0.18-0.01,0.24-0.08
			c0.18-0.19,0.35-0.38,0.59-0.51c0.3-0.16,0.62-0.27,0.96-0.3c0.47-0.05,0.4,0.41,0.58,0.63c0.33,0.41,0.75,0.74,1.28,0.66
			c0.65-0.09,1.2-0.44,1.35-1.14c0.06-0.29,0.17-0.34,0.42-0.33c0.34,0.01,0.68,0,1.03,0c0.13,0,0.34-0.06,0.23,0.22
			c-0.03,0.07,0.04,0.14,0.11,0.11c0.22-0.09,0.4-0.27,0.44-0.49c0.04-0.27-0.22-0.18-0.35-0.17c-0.91,0.02-1.82-0.06-2.73,0.06
			c-0.26,0.04-0.38-0.09-0.45-0.33c-0.13-0.43-0.25-0.87-0.41-1.29c-0.08-0.21-0.05-0.28,0.14-0.37c0.36-0.17,0.71-0.2,1.13-0.15
			c1.09,0.14,2,0.5,2.77,1.33c0.74,0.79,1.58,1.48,2.39,2.21c0.27,0.24,0.31,0.39,0.04,0.7c-0.89,1.01-1.42,2.22-1.81,3.49
			c-0.2,0.63-0.19,0.61-0.81,0.45c-0.73-0.19-1.44-0.43-2.2-0.52c-0.27-0.03-0.41-0.19-0.39-0.46c0.05-0.85-0.12-1.68-0.18-2.52
			c-0.02-0.31,0.06-0.4,0.36-0.43c0.54-0.05,1.05-0.38,1.28-0.87c-1.52,0.96-3.16,0.66-4.74,0.76c0.67,0.2,1.34,0.31,2.02,0.28
			c0.28-0.01,0.44,0.06,0.47,0.34c0.09,0.75,0.18,1.51,0.26,2.26c0.03,0.3-0.15,0.35-0.4,0.31c-0.85-0.11-1.66-0.37-2.48-0.6
			c-1.28-0.35-2.45-1.03-3.74-1.36c-0.69-0.18-1.39-0.37-2.08,0.01c-0.24,0.13-0.43,0.02-0.59-0.17c-0.34-0.42-0.74-0.8-1.01-1.25
			c-0.45-0.76-1.17-0.94-1.94-1.06C109.72,45.72,109.13,45.6,108.52,45.57z"/>
		<path class="st3" d="M92.39,40.32c1.06,1,2.24,1.77,3.49,2.44c1.23,0.66,2.56,1.07,3.94,1.56c-1.1,0.52-5.09,0.63-6.52,0.17
			c0.5-0.09,1.02-0.1,1.52-0.2c0.56-0.11,1.12-0.25,1.66-0.45c0.12-0.04,0.27-0.08,0.26-0.25c-0.01-0.15-0.15-0.14-0.25-0.19
			c-1.34-0.62-2.68-1.24-3.96-1.99c-1.72-1.01-3.38-2.09-4.9-3.4c-0.66-0.56-1.26-1.17-1.88-1.77c-0.1-0.1-0.27-0.19-0.17-0.36
			c0.1-0.17,0.25-0.05,0.39-0.02c0.71,0.16,1.43,0.23,2.16,0.3c1.36,0.12,2.72,0.18,4.09,0.1c0.99-0.06,1.97-0.14,2.95-0.24
			c0.2-0.02,0.36,0.02,0.5,0.12c2.01,1.42,4.24,2.42,6.49,3.37c0.64,0.27,0.57,0.24,0.34,0.88c-0.25,0.7-0.68,0.8-1.34,0.8
			c-1.27,0.01-2.53-0.05-3.79-0.17c-1.6-0.16-3.21-0.33-4.79-0.69C92.51,40.33,92.45,40.33,92.39,40.32z"/>
		<path class="st9" d="M105.25,55.43c-0.25-1.78-0.5-3.38-0.56-5c-0.02-0.62-0.08-1.26-0.17-1.88c-0.04-0.29,0.03-0.48,0.26-0.61
			c0.37-0.22,0.74-0.46,1.06-0.75c0.5-0.46,1.08-0.61,1.74-0.54c0.39,0.04,0.78,0,1.17,0.01c0.12,0,0.29-0.06,0.35,0.09
			c0.07,0.16-0.1,0.21-0.2,0.28c-0.47,0.35-0.93,0.7-1.4,1.05c-0.11,0.09-0.31,0.18-0.19,0.33c0.16,0.19,0.21-0.08,0.32-0.14
			c0.67-0.36,1.33-0.77,2.14-0.77c0.98,0,1.94,0.01,2.84,0.48c0.1,0.05,0.2,0.1,0.3,0.16c0.28,0.18,0.35,0.32,0.03,0.6
			c-0.61,0.51-1.17,1.09-1.72,1.66c-0.8,0.84-1.68,1.56-2.62,2.23C107.45,53.46,106.21,54.18,105.25,55.43z M111.38,49.41
			c-0.36-0.1-0.54,0.12-0.74,0.27c-0.93,0.68-1.97,0.96-3.1,0.87c-0.27-0.02-0.59-0.14-0.68-0.39c-0.08-0.22,0.26-0.27,0.42-0.39
			c0.18-0.14,0.36-0.27,0.55-0.4c0.25-0.18,0.4-0.14,0.63,0.04c0.58,0.46,1.39,0.46,1.88,0.03c0.14-0.12,0.34-0.25,0.3-0.47
			c-0.04-0.19-0.25-0.07-0.38-0.11c-0.14-0.04-0.22-0.13-0.24-0.28c-0.01-0.15,0.1-0.23,0.2-0.31c0.11-0.09,0.2-0.02,0.3,0.04
			c0.1,0.06,0.12,0.24,0.29,0.2c0.06-0.51,0.27-0.62,0.79-0.42c0.78,0.29,0.78,0.29,1.06,0.18c-0.71-0.46-1.49-0.62-2.27-0.38
			c-0.79,0.25-1.55,0.6-2.29,0.99c-0.65,0.34-1.32,0.69-1.76,1.33c-0.08,0.12-0.2,0.35,0,0.32c0.54-0.08,0.95,0.27,1.49,0.29
			C109.22,50.86,110.32,50.34,111.38,49.41z"/>
		<path class="st9" d="M107.33,66.61c-0.64,0.12-1.16,0.5-1.72,0.77c-0.83,0.41-1.69,0.8-2.45,1.36c-0.48,0.35-0.91,0.74-1.1,1.32
			c-0.04,0.11-0.09,0.22,0.02,0.31c0.08,0.06,0.18,0.04,0.28,0.01c0.57-0.2,1.14-0.41,1.71-0.6c0.47-0.16,0.74,0.23,0.98,0.47
			c0.21,0.21,0.03,0.54-0.25,0.79c-0.01-0.16-0.01-0.27-0.03-0.38c-0.06-0.28-0.22-0.41-0.48-0.24c-0.46,0.3-0.93,0.58-1.42,0.82
			c-0.11,0.05-0.21,0.17-0.25,0.28c-0.46,1.08-1.28,1.77-2.38,2.1c-0.6,0.18-0.74,0.56-0.76,1.12c-0.07,1.76,0.14,3.51,0.23,5.26
			c0.05,0.96,0.2,1.92,0.31,2.89c0.17,1.52,0.38,3.03,0.68,4.53c0.16,0.77,0.31,1.55,0.62,2.3c-0.58-0.27-0.8-0.83-0.99-1.37
			c-0.21-0.62-0.31-1.27-0.36-1.94c-0.08-0.98-0.23-1.96-0.36-2.94c-0.1-0.76-0.2-1.52-0.3-2.28c-0.15-1.12-0.3-2.24-0.47-3.36
			c-0.07-0.45-0.08-0.9-0.13-1.35c-0.09-0.95-0.37-1.87-0.33-2.83c0.07-1.85,0.97-3.24,2.37-4.35c1.43-1.13,3.09-1.82,4.79-2.41
			c0.36-0.13,0.74-0.2,1.1-0.35C106.84,66.45,107.1,66.47,107.33,66.61z"/>
		<path class="st3" d="M135.36,67.26c-0.25-1.04-0.49-2.01-0.71-2.97c-0.04-0.17-0.03-0.43-0.25-0.41
			c-0.17,0.02-0.27,0.27-0.28,0.45c-0.02,0.31-0.1,0.6-0.16,0.9c-0.02,0.1-0.02,0.23-0.13,0.23c-0.17,0-0.13-0.16-0.12-0.26
			c0.07-1.03,0.19-2.05,0.22-3.08c0.02-0.81,0.25-1.61,0.17-2.43c-0.02-0.19,0.05-0.29,0.25-0.35c0.49-0.14,0.77-0.52,0.95-0.97
			c0.4-1,1.19-1.73,1.78-2.73c0.23,1.32,0.44,2.52,0.66,3.77c-0.29-0.12-0.47-0.52-0.5,0.17c-0.07,1.48-0.04,2.95-0.08,4.43
			c-0.01,0.34-0.08,0.52-0.46,0.34c-0.08-0.04-0.19-0.03-0.29-0.05c-0.82-0.15-0.85-0.15-0.91,0.73c-0.04,0.55-0.02,1.11-0.04,1.66
			C135.46,66.87,135.51,67.03,135.36,67.26z"/>
		<path class="st10" d="M105.75,55.16c0.14-0.02,0.16,0.05,0.17,0.14c0.11,0.6,0.22,1.2,0.33,1.8c0.45,2.31,1.17,4.5,2.65,6.38
			c1.84,2.36,3.79,4.64,5.36,7.21c0.43,0.7,0.83,1.41,1.22,2.14c0.05,0.09,0.19,0.18,0.05,0.28c-0.1,0.07-0.23,0.04-0.31-0.05
			c-0.25-0.27-0.51-0.54-0.74-0.83c-1.22-1.55-2.46-3.09-3.65-4.65c-0.73-0.96-1.41-1.96-2.09-2.96c-1.06-1.56-2.13-3.12-2.86-4.87
			c-0.45-1.08-0.63-2.21-0.72-3.37c-0.04-0.51,0.12-0.83,0.47-1.12C105.67,55.22,105.72,55.18,105.75,55.16z"/>
		<path class="st10" d="M138.78,36.3c-0.82,1.64-1.7,3.22-2.74,4.71c-0.2,0.29-0.39,0.28-0.52-0.03c-0.2-0.43-0.48-0.8-0.74-1.19
			c-0.09-0.14-0.14-0.23,0-0.37C135.98,38.23,137.3,37.17,138.78,36.3z"/>
		<path class="st3" d="M129.51,27.7c-0.46-0.36-0.68-0.81-1-1.17c-0.05-0.06-0.12-0.15-0.02-0.2c0.37-0.22,0.18-0.47,0.07-0.75
			c-0.93-2.22-2.01-4.37-3.07-6.52c0.11-0.11,0.21-0.09,0.28-0.01c0.76,0.87,1.72,1.6,2.16,2.71c0.37,0.93,0.64,1.91,0.91,2.87
			c0.25,0.89,0.45,1.79,0.67,2.69C129.52,27.41,129.51,27.51,129.51,27.7z"/>
		<path class="st11" d="M136.61,50.2c-0.33-0.71-1.42-1.03-2.11-0.71c-0.94,0.44-1.45,1.24-1.96,2.07
			c-0.08,0.13-0.09,0.43-0.33,0.32c-0.2-0.09-0.08-0.3-0.02-0.47c0.03-0.09,0.05-0.19,0.03-0.29c-0.15-0.96,0.36-1.6,1.03-2.17
			c0.45-0.38,0.9-0.76,1.56-0.63c0.11,0.02,0.22,0.02,0.32,0.09c0.38,0.28,0.78,0.53,1.13,0.84
			C136.52,49.5,136.66,49.82,136.61,50.2z"/>
		<path class="st12" d="M131.51,51.25c-0.3-0.26-0.19-0.6-0.23-0.85c-0.08-0.44-0.19-0.88-0.2-1.33c-0.02-0.87-0.26-1.7-0.41-2.55
			c-0.02-0.13-0.09-0.25,0.03-0.34c0.14-0.09,0.24,0.03,0.34,0.11c0.26,0.2,0.51,0.4,0.78,0.58c0.35,0.23,0.5,0.52,0.42,0.94
			C132.02,48.95,131.85,50.09,131.51,51.25z"/>
		<path class="st13" d="M140.34,39.02c-0.1,0.55-0.55,0.87-0.88,1.26c-0.78,0.94-1.58,1.87-2.63,2.72c0.33-1.09,0.57-2.08,1.57-2.67
			c0.57-0.34,1.07-0.79,1.59-1.19C140.1,39.05,140.21,38.99,140.34,39.02L140.34,39.02z"/>
		<path class="st14" d="M125.28,81.09c-0.6,2.14-1.21,4.28-1.74,6.48C123.05,86.53,124.22,82.09,125.28,81.09z"/>
		<path class="st11" d="M136.67,52.65c-0.01-0.56-0.06-0.97-0.25-1.38c-0.1-0.21,0.45-0.17,0.28-0.53
			C136.87,51.36,137.06,51.95,136.67,52.65z"/>
		<path class="st15" d="M135.87,51.25c0.32,0.25,0.58,1.13,0.47,1.41c-0.03,0.07-0.06,0.12-0.13,0.1c-0.11-0.03-0.12-0.13-0.14-0.23
			C136.01,52.12,135.94,51.72,135.87,51.25z"/>
		<path class="st16" d="M122.76,45.96c-0.21-0.04-0.34-0.14-0.37-0.31c-0.02-0.19,0.12-0.3,0.29-0.34c0.19-0.05,0.32,0.1,0.36,0.26
			C123.08,45.78,122.86,45.85,122.76,45.96z"/>
		<path class="st17" d="M135.15,52.13c0.43,0.16,0.59,0.51,0.83,0.78c0.06,0.06,0.03,0.16-0.03,0.22c-0.08,0.07-0.17,0.04-0.21-0.03
			C135.57,52.79,135.27,52.55,135.15,52.13z"/>
		<path class="st13" d="M140.35,39.03c0-0.23,0.21-0.24,0.38-0.39C140.66,38.9,140.56,39.03,140.35,39.03
			C140.34,39.02,140.35,39.03,140.35,39.03z"/>
		<path class="st3" d="M133.77,65.92c-0.03,0.04-0.07,0.1-0.09,0.1c-0.09-0.01-0.06-0.09-0.06-0.15c0-0.04,0-0.11,0.07-0.07
			C133.73,65.81,133.74,65.87,133.77,65.92z"/>
		<path class="st18" d="M109.86,39.66c0.32,0.31,0.49,0.62,0.8,0.83c-0.07,0.05-0.11,0.09-0.15,0.1c-0.26,0.1-0.59,0.27-0.81,0.11
			c-0.22-0.17,0.08-0.43,0.11-0.65C109.83,39.95,109.84,39.85,109.86,39.66z"/>
	</g>
</g>
</svg>
