<?xml version="1.0" encoding="utf-8"?>
<!-- Generator: Adobe Illustrator 23.0.1, SVG Export Plug-In . SVG Version: 6.00 Build 0)  -->
<svg version="1.1" id="Layer_1" xmlns="http://www.w3.org/2000/svg" xmlns:xlink="http://www.w3.org/1999/xlink" x="0px" y="0px"
	 viewBox="0 0 500 500" style="enable-background:new 0 0 500 500;" xml:space="preserve">
<style type="text/css">
	.st0{fill:#FEFEFD;}
	.st1{fill:#F1C409;}
	.st2{fill:#F1C50B;}
	.st3{fill:#F1C50D;}
	.st4{fill:#F2C613;}
	.st5{fill:#F1C50C;}
	.st6{fill:#F2C713;}
	.st7{fill:#F2C610;}
	.st8{fill:#F2C819;}
	.st9{fill:#F2C715;}
	.st10{fill:#F2C716;}
	.st11{fill:#F3CA23;}
	.st12{fill:#F4D243;}
	.st13{fill:#F4CF38;}
	.st14{fill:#FCF6DD;}
	.st15{fill:#FBF2CD;}
	.st16{fill:#F3CD30;}
	.st17{fill:#F8E48F;}
	.st18{fill:#F8E286;}
	.st19{fill:#F5D551;}
	.st20{fill:#F3CC29;}
	.st21{fill:#FBEFBF;}
	.st22{fill:#FDFBF0;}
	.st23{fill:#FDF9EA;}
	.st24{fill:#FCF7E0;}
	.st25{fill:#F4D13E;}
	.st26{fill:#F3CB25;}
</style>
<g>
	<g>
		<path class="st0" d="M-66.98,653.69c0-259.7,0-519.61,0-779.61c202.2,0,404.41,0,606.77,0c0,259.74,0,519.57,0,779.61
			C337.63,653.69,135.33,653.69-66.98,653.69z M176.01,216.04c-0.67,0.64-1.35,1.28-2.02,1.93c-1.34,0.7-2.67,1.4-4.01,2.11
			c-0.73,1.5-1.99,2.98-2.07,4.52c-0.14,2.92,0.26,5.89,0.7,8.8c0.38,2.51,1.12,4.96,1.7,7.44c0.19,3.37,0.38,6.73,0.57,10.1
			c0.44,5.65,0.87,11.29,1.31,16.94c0.8,6.67,1.6,13.35,2.4,20.02c1.12,2.35-1.59,6.55,3.39,7.05c-1.22,2.11-3.61,4.3-3.47,6.31
			c0.81,11.29,0.81,22.99,5.58,33.4c6.03,13.18,12.52,26.3,20.33,38.48c11.52,17.96,24.02,35.32,36.75,52.46
			c12.43,16.75,25.62,32.94,38.65,49.24c1.09,1.36,3.55,1.62,5.37,2.4c0.28-0.48,0.56-0.95,0.84-1.43
			c-4.07-6.96-7.68-14.25-12.3-20.83c-14.29-20.33-28.94-40.41-43.5-60.56c-7.96-11.01-17.28-21.27-23.76-33.08
			c-10.29-18.76-15.58-39.44-18.2-60.76c-0.41-3.34-2.91-6.43-4.44-9.64c0.71-0.66,1.41-1.33,2.12-1.99
			c0.69-0.98,1.38-1.96,2.07-2.95l-0.02,0.02c0.77-0.63,1.55-1.27,2.32-1.9c1.2-0.8,2.4-1.6,3.6-2.4c0.94-0.6,1.87-1.21,2.81-1.81
			c1.73-1.4,3.46-2.81,5.19-4.21c1.2-0.82,2.41-1.64,3.61-2.46c21.84-12.44,37.68-31.74,56.69-49.67
			c-5.04-2.53-9.43-5.52-14.29-6.95c-4.82-1.42-10.11-1.66-15.2-1.67c-5.24-0.02-10.62,0.28-15.68,1.52
			c-4.69,1.15-9.04,3.72-13.54,5.67c-0.15-0.41-0.31-0.82-0.46-1.23c1.96-1.69,3.93-3.38,5.89-5.07c0.86-0.53,1.73-1.06,2.59-1.59
			c2.78-2.14,5.57-4.28,8.35-6.42c-0.21-0.62-0.41-1.24-0.62-1.86c-5.88,0-11.81,0.52-17.61-0.12c-8.11-0.89-13.46,3.29-18.59,8.44
			c-1.01,0.57-2.01,1.15-3.02,1.72L176.01,216.04z M368.03,79.23c0.77,0.39,1.53,0.79,2.3,1.18c1.22,0.46,2.45,0.91,3.67,1.37
			c0.99,0.38,1.98,0.75,2.97,1.13c3.92,3.07,7.84,6.13,11.8,9.23c0.11-4.25-4.71-9.14-11.51-11.76c-2.43-1.14-4.85-2.27-7.28-3.41
			c-2.33-0.7-4.66-1.4-6.99-2.09c-0.09-0.22-0.24-0.29-0.46-0.22c-3.22-0.67-6.43-1.35-9.65-2.02c-2.33-0.13-4.66-0.27-7-0.4
			c-1-0.53-2-1.5-3-1.51c-8.99-0.07-17.98,0.04-26.97,0.09c-1.3,0-2.6,0-3.9-0.01c-6.32,0.49-12.63,0.98-18.95,1.47
			c-2.67,0.13-5.35,0.27-8.02,0.4c-3,0.5-6.01,1-9.01,1.5c-0.67,0.06-1.34,0.13-2,0.19c-3.22,0.75-6.44,1.5-9.66,2.24
			c-2.44,0.57-4.89,1.14-7.33,1.71c-0.66,0.31-1.32,0.63-1.97,0.94c-1.34,0.36-2.68,0.72-4.03,1.08c-1,0.27-2,0.55-3,0.82
			c-0.66,0.08-1.33,0.17-1.99,0.25c-1.99,0.87-3.98,1.74-5.96,2.61c-3.01,1.21-6.01,2.42-9.02,3.62c-1.11,0.4-2.22,0.8-3.33,1.2
			c-0.91,0.36-1.83,0.72-2.74,1.08c-2.31,1.1-4.62,2.21-6.93,3.31c-0.67,0.3-1.34,0.61-2.01,0.91c-1.06,0.59-2.12,1.18-3.17,1.77
			c-0.27,0.19-0.54,0.38-0.81,0.57c-2.7,1.49-5.4,2.98-8.09,4.48c-0.3,0.26-0.6,0.51-0.9,0.77c-0.98,0.43-1.97,0.86-2.95,1.29
			c-0.35,0.23-0.69,0.47-1.04,0.7c-1.28,0.77-2.57,1.53-3.85,2.3c-4.39,3.11-8.78,6.22-13.18,9.33c-0.74,0.51-1.47,1.03-2.21,1.54
			c-6.89,5.86-14.53,11.05-17.86,20.07c-0.65,0.69-1.31,1.37-1.96,2.06c-0.59,17.13-1.17,34.27-1.76,51.4
			c0.49,0.85,0.98,1.71,1.47,2.56c0.29,0.77,0.49,1.59,0.89,2.3c3.17,5.5,5.58,5.72,10.12,1.08c1.39-1.42,2.88-2.76,4.39-4.05
			c12.1-10.37,25.15-19.43,39.29-26.7c9.89-5.08,20.35-9.04,30.56-13.5c0.67-0.38,1.35-0.75,2.02-1.13
			c1.59-0.43,3.17-0.86,4.76-1.29c0.74-0.3,1.47-0.61,2.21-0.91c5.92-1.39,11.83-2.77,17.75-4.16c0.84-0.35,1.68-0.71,2.52-1.06
			c2.49-0.35,4.99-0.7,7.48-1.05c5.82-0.73,11.64-1.47,17.46-2.2c2.6-0.12,5.19-0.23,7.79-0.35c3.44-0.16,6.87-0.32,10.31-0.48
			c0.78-0.03,1.56-0.06,2.34-0.09c7.41,0.45,14.83,0.95,22.25,1.29c0.75,0.03,1.54-0.92,2.31-1.42c-0.01-6.78-0.02-13.55-0.03-20.33
			c-0.44-6-0.87-11.99-1.31-17.99c-0.1-2.57-0.2-5.14-0.3-7.71c0.64-0.01,1.29-0.01,1.93-0.02c0.41,2.12,0.83,4.23,1.24,6.35
			c0.12,0.79,0.24,1.58,0.36,2.38c0.87,9,1.75,18.01,2.62,27.01c0.18,0.76,0.35,1.52,0.53,2.28c0.51,3.03,1.01,6.07,1.52,9.1
			c1.38,2.24,2.44,2.02,3.21-0.42c0.2-1.13,0.63-2.27,0.55-3.38c-0.43-6.2-0.99-12.4-1.51-18.6c0-1.33,0-2.67,0-4
			c-0.12-1.34-0.24-2.67-0.36-4.01c-0.38-2.75-0.76-5.5-1.14-8.24c-0.5-7.07-1.12-14.13-1.42-21.21c-0.11-2.44,0.48-4.66,4.16-3.49
			c2.13,0.68,4.58,0.35,6.88,0.47C363.4,78.07,365.71,78.65,368.03,79.23z M496.44,237.86c-0.17-0.26-0.4-0.45-0.7-0.55
			c-3.22-7.38-13.73-14.69-21.47-13.84c-3.47,0.38-7.06,2.54-9.94,4.75c-6.73,5.19-13.12,10.79-12.76,20.58
			c0.1,2.59-0.8,5.19-0.93,7.81c-0.05,1.08,0.72,2.2,1.12,3.3c0.84-0.63,1.92-1.1,2.47-1.92c2.48-3.68,4.56-7.66,7.26-11.15
			c5.57-7.22,11.83-13.95,22.05-12.75c3.74,0.44,7.25,2.83,10.87,4.33c0.09,0.25,0.24,0.47,0.45,0.63c0.71,2.97,1.43,5.94,2.14,8.91
			c0.21,3.13-1.64,3.48-4.09,3.03l-0.09-0.13l0.12,0.1c1.62,5.22,3.23,10.44,4.85,15.66c4.33-6.24,1.91-12.47,1.1-18.65
			C498.09,244.6,497.26,241.23,496.44,237.86z M383.02-40.18c1.95,1.92,3.9,3.83,5.85,5.75c4.3,5.84,8.6,11.67,12.9,17.51
			c3.07,3.95,6.13,7.9,9.2,11.86c0.83,1.52,1.66,3.04,2.49,4.55c3.2,4.22,6.4,8.43,9.6,12.65c1.1-1.73,1.31-2.87,1.07-3.91
			c-1.65-7.19-3.12-14.45-5.18-21.53c-3.48-11.98-6.75-24.08-11.22-35.7c-4.31-11.21-14.1-18.61-21.85-27.39
			c-0.57-0.64-1.89-0.61-3.1-0.96c11.17,24.13,22.09,47.72,33.01,71.32c0,0.72,0,1.43,0,2.15c-0.58,0.53-1.15,1.05-1.73,1.58
			c-1.05-0.9-2.1-1.8-3.15-2.7c-2.53-4.51-5.06-9.03-7.58-13.54c-1.02-1.66-1.93-3.4-3.1-4.95c-3.7-4.9-7.5-9.72-11.26-14.57
			c-2.25-2.75-4.49-5.5-6.74-8.25c-0.58-0.59-1.15-1.18-1.73-1.78c-12.66-11.98-24.74-24.67-38.14-35.76
			c-16.52-13.68-35.62-23.55-54.98-32.71c-4.45-2.1-9.07-3.86-13.61-5.77c-0.23,0.4-0.47,0.8-0.7,1.2
			c9.77,11.91,19.69,23.72,29.28,35.77c9.6,12.06,18.19,24.78,24.45,39.16c-2.46,0.3-4.47,0.29-6.18-0.43
			c-16.23-6.81-32.08-14.74-48.69-20.4c-22.72-7.75-45.89-14.31-69.12-20.42c-17.52-4.61-34.86-9.53-51.35-17.05
			c-8.99-4.1-17.62-8.99-26.46-13.44c-1.1-0.55-2.45-0.59-3.68-0.86c17.54,25.82,37.3,48.98,61.38,68.87
			c-1.6,1.03-3.21,1.92-4.57,1.63c-9.18-1.96-18.22-4.77-27.48-6.15c-15.03-2.23-30.17-3.99-45.32-5.14
			c-13.91-1.06-27.9-1.46-41.85-1.43c-18.93,0.03-37.86,0.74-56.78,1.2c-0.87,0.02-1.74,0.49-2.61,0.76
			c-0.13,0.52-0.26,1.04-0.39,1.56c34.51,9.01,68.98,18.1,99.12,38.38c-2.26,1.4-4.39,2.52-6.53,2.53
			c-35.18,0.3-70.31,0.4-105.15-6.2c-14.84-2.81-29.04-6.9-42.61-13.39c-1.01-0.48-2.19-0.6-3.98-1.06c0.48,1.57,0.5,2.31,0.87,2.76
			C-39.73-16.16-25.49,2.69-9.83,20.29C2.4,34.04,16.61,46.02,29.53,59.18c14.22,14.49,31.9,22.2,51.1,26.77
			c12.97,3.08,26.17,5.27,39.35,7.33c12.76,2,25.63,3.35,38.45,4.93c4.93,0.61,9.87,1.07,14.81,1.58
			c5.49,0.57,10.55,0.44,15.57-3.06c7.46-5.19,15.45-9.67,23.46-14c6.43-3.47,13.22-6.27,20.78-9.79
			c-24.7-15.32-48.5-30.07-72.3-44.83c0.19-0.49,0.37-0.97,0.56-1.46c2.93,0.63,5.83,1.62,8.79,1.83
			c12.11,0.85,24.22,1.89,36.35,2.07c22.33,0.33,44.66,0.01,66.99,0.15c5.28,0.03,10.56,0.74,15.83,1.27
			c5.12,0.51,10.23,1.19,16.83,1.96c-13.19-10.77-26.62-18.16-40.99-24.09c17.8,2.52,34.13,9.23,50.61,15.83
			c-21.39-40.4-56.21-66.56-93.55-90.35c58.71,13.39,113.87,34.44,161.32,72.8c0.37-0.43,0.74-0.86,1.11-1.29
			c-28.5-37.57-57-75.14-86.34-113.84c16.5,8.35,30.66,17.71,43.78,28.53c11.02,9.09,21.44,18.91,32.12,28.41
			c0.6,0.68,1.19,1.36,1.79,2.05c0.39,0.29,0.79,0.57,1.18,0.85c1.23,1.46,2.46,2.91,3.69,4.37c0.01,0.31,0.14,0.55,0.39,0.72
			C381.81-41.44,382.42-40.81,383.02-40.18z M186.03,414.98L186,415c3.92-1.47,7.84-2.94,11.98-4.49
			c-4.91-2.72-12.28-1.45-20.27,3.27c-1.24,0.34-2.47,0.68-3.71,1.02c-0.73,0.35-1.46,0.7-2.18,1.04c-0.58,0.23-1.16,0.47-1.74,0.7
			c-0.84,0.38-1.67,0.76-2.51,1.13c-1.29,0.3-2.73,0.32-3.83,0.94c-11.79,6.61-24.28,12.3-35.11,20.25
			c-14.64,10.75-23.21,25.87-23.23,44.59c-0.01,6.36,1.81,12.71,2.55,19.1c1.31,11.36,2.26,22.76,3.68,34.11
			c1.4,11.15,3.33,22.23,4.79,33.38c2.47,18.82,4.44,37.72,7.26,56.49c1.27,8.42,4.8,16.2,12.24,21.4l0.15,0.1l-0.22-0.05
			c-0.59-2.18-1.3-4.34-1.74-6.55c-3.41-17.11-7.19-34.16-10-51.37c-2.32-14.16-4.01-28.47-5.01-42.79
			c-1.27-18.06-1.56-36.2-2.26-54.3c-0.21-5.38,1.95-8.64,7.28-10.91c6.26-2.66,13.48-5.57,17.44-10.6
			c6.15-7.8,11.39-15.64,20.83-20.23c6.9-3.35,8.07-3.55,8.87,4.02c4.75-4.34,4.49-6.64-0.22-10.28c-3.26-2.53-6.1-3.38-9.93-1.4
			c-2.75,1.42-5.84,2.21-8.82,3.12c-2.98,0.91-6.01,1.63-9.61,2.59c1.46-8.52,6.24-13.49,12.22-17.24
			c7.13-4.47,14.63-8.36,21.97-12.51c1.39-0.73,2.78-1.45,4.17-2.18c0.61-0.28,1.22-0.55,1.82-0.83
			C183.93,416.01,184.98,415.49,186.03,414.98z M490.69,385.32c0.83,0.4,1.67,0.81,2.5,1.21c1.52,0.22,3.03,0.44,4.55,0.66
			c1.51,2.25,2.95,2.56,4.27-0.17c0.1-9.74,0.13-19.49,0.33-29.23c0.12-5.91,0.51-11.81,0.78-17.71c0.13-0.82,0.26-1.64,0.4-2.45
			c-0.22-0.92-0.44-1.85-0.66-2.77c0.77-0.08,1.54-0.16,2.31-0.24c0.71,0.63,1.42,1.26,2.12,1.89c0.3-0.19,0.61-0.37,0.91-0.56
			c-2.15-12.28-4.31-24.56-6.46-36.85c-0.42-0.12-0.84-0.24-1.26-0.36c-5.74,9.09-11.38,18.23-17.26,27.22
			c-2.02,3.09-4.62,5.8-6.95,8.69c-0.78,0.42-1.57,0.84-2.35,1.26c-0.76,0.27-1.52,0.54-2.29,0.81c-0.64,6.07-1.28,12.14-1.92,18.21
			c-0.15,4.67-0.3,9.35-0.45,14.02c-0.34,2.4-0.67,4.8-1.01,7.2c-0.24,3.84-0.48,7.69-0.72,11.53c-2.18,6.42-2.19,12.9-0.37,19.48
			c0.78-3.18,1.56-6.37,2.34-9.55c0.3-1.47,0.6-2.94,0.9-4.41c0.19-1.09,0.38-2.18,0.57-3.27c0.67-2.32,1.34-4.64,2.01-6.96
			c0.76-0.17,1.51-0.35,2.27-0.52c0.47,1.5,0.95,3,1.42,4.5c0.58,2.76,1.17,5.52,1.75,8.28c1.59,6.51,3.18,13.01,4.77,19.52
			c0.33,0.91,0.66,1.83,0.99,2.74c0.29-0.85,0.58-1.69,0.87-2.54c0.12-7.25,0.25-14.5,0.37-21.74c0.36-1.18,0.72-2.36,1.08-3.54
			C486.61,386.98,486.49,384.06,490.69,385.32z M316.86,185.78c-2.69,2.64-5.41,5.26-8.07,7.93c-3.5,3.5-4.04,7.39-1.25,11.55
			c2.63,3.92,5.37,7.76,8.07,11.64c-0.56,0.64-1.12,1.28-1.68,1.92c-4.14-2.66-8.16-5.53-12.45-7.92c-3.58-2-7.48-3.41-11.22-5.13
			c-3.13-1.43-4.54-3.11-1.51-6.29c1.79-1.88,2.91-4.38,4.33-6.6c-0.35-0.31-0.7-0.63-1.05-0.94c-3.71,2.65-7.2,5.73-11.2,7.82
			c-4.23,2.2-8.79,1.24-14.3-0.53c16.97-15.81,37.61-23.54,56.62-35.03c-24.17-5.28-102.66,16.37-113.71,30.94
			c5.99,0.8,11.96,1.71,17.96,2.37c8.37,0.91,15.48,3.59,20.33,11.2c2.93,4.6,6.71,8.72,10.51,12.66c1.17,1.21,4.18,2.16,5.47,1.5
			c7.22-3.68,14.38-2.38,21.33-0.02c12.95,4.39,25.6,9.64,38.6,13.86c8.11,2.64,16.63,4.02,24.95,6.01
			c3.51,0.84,4.57-0.82,4.28-3.98c-0.61-6.61-1.19-13.22-1.87-19.83c-0.12-1.14-0.34-2.53-1.07-3.27c-1.17-1.19-2.71-2.54-4.24-2.74
			c-3.74-0.48-7.56-0.26-11.34-0.5c-1.63-0.11-3.22-0.72-4.85-1.02c-1.36-0.26-2.75-0.4-4.13-0.59c0.02-0.44,0.05-0.88,0.07-1.32
			c15.72,0.01,31.69,1.98,46.55-5.59c-2.8,4.66-7.3,6.41-12.07,7.13c-3.07,0.46-3.93,1.56-3.68,4.5c0.75,8.72,1.14,17.49,2.11,26.18
			c0.18,1.55,2.28,3.68,3.89,4.15c7.42,2.15,15.04,3.6,22.49,5.69c6.37,1.78,6.3,2.01,8.28-4.49c3.99-13.07,9.35-25.55,18.44-35.88
			c3.03-3.45,2.33-5.02-0.43-7.55c-10.27-9.41-20.26-19.13-30.76-28.27c-3.11-2.71-7.41-4.33-11.42-5.67
			c-3.56-1.19-7.69-0.75-11.19-2.04c-5.3-1.96-9.03,0.77-13.1,2.51c1.72,5.5,3.02,10.63,5,15.48c0.68,1.67,3,3.7,4.64,3.76
			c6.12,0.21,12.25-0.4,18.39-0.57c4.38-0.12,8.77-0.02,14.68-0.02c-2.48,3.12-3.91,4.91-4.75,5.97c-6.5-4.67-12.85-1.8-18.71-2.51
			c-1.77,9-6.75,14.04-14.41,15.09c-6.06,0.83-12.27-4.18-16.29-13.23c-1.09-0.09-2.25-0.22-3.4-0.25
			c-0.83-0.02-1.66,0.08-2.49,0.13c-0.1-0.71-0.19-1.42-0.29-2.12c5.19-0.62,10.37-1.24,16.15-1.92c-2.3-4.67-4.24-8.61-6.19-12.55
			c-1.54-3.12-3.55-3.45-6.31-1.31c-3.49,2.72-7.15,5.23-10.73,7.83C318.83,184.52,317.85,185.15,316.86,185.78z M-25.37,94.99
			c-0.28,0.6-0.55,1.2-0.83,1.81C5.99,131.66,46.11,155,89.07,174.79c-11.38,6.4-23.67,8.03-37.26,8.66
			c11.08,5,54.01,4.28,67.87-1.21c-27.89-8.54-53.47-21.3-76.07-40.36c0.93-0.41,1.24-0.69,1.51-0.65
			c16.32,2.46,32.58,5.55,48.99,7.25c13.32,1.38,26.83,0.75,40.2,1.68c6.89,0.48,10.71-1.28,13.38-8.13
			c2.87-7.34,3.13-6.12-3.54-9.02c-22.92-9.93-45.68-20.1-66.31-34.44c-1.35-0.94-3.41-1.34-5.08-1.23
			c-9.57,0.65-19.12,2.13-28.68,2.19c-14.87,0.09-29.76-0.64-44.63-1.23c-4.27-0.17-8.52-1.03-12.77-1.61
			C-17.34,96.14-21.35,95.56-25.37,94.99z M475.88,132.57c4.43,6.91,8.12,12.68,12.33,19.25c12.68-16.64,21.83-34.32,31.5-51.67
			c-0.52-0.5-1.04-1.01-1.56-1.51C504.03,109.98,489.9,121.32,475.88,132.57z M435.13,198.74c2.93,19,5.64,36.55,8.52,55.16
			c1.07-1.49,1.49-1.83,1.57-2.23c2.33-11.58,4.73-23.14,6.83-34.76c0.34-1.88,0.02-4.78-1.2-5.87
			C446.19,206.9,441.05,203.29,435.13,198.74z M361.48,624.43c0.43,0.05,0.87,0.1,1.3,0.15c6.24-22.32,12.48-44.64,18.72-66.96
			c-0.81-0.22-1.62-0.43-2.44-0.65C369.81,578.54,359.84,599.92,361.48,624.43z M535.16,128.99c-0.34-0.36-0.67-0.73-1.01-1.09
			c-0.75,0.16-1.68,0.1-2.23,0.52c-7.78,5.94-15.72,11.7-23.17,18.03c-5.81,4.93-6.44,12.54-8.23,19.66
			C514.17,155.56,525.16,142.73,535.16,128.99z M491.51,268.94c4.35-4.17,2.54-13.33-2.44-15.52
			C489.85,258.38,490.64,263.41,491.51,268.94z M359.32,194.97c-2.05-1.28-3.57-2.96-4.6-2.7c-1.4,0.35-2.44,2.18-3.63,3.37
			c1.26,1.08,2.56,3.04,3.78,2.99C356.18,198.58,357.42,196.64,359.32,194.97z M489.46,274.7c0.72-5.67-3.1-10.89-8.74-12.7
			C483.72,266.36,486.2,269.97,489.46,274.7z"/>
		<path class="st1" d="M377.12-47.16c-0.39-0.29-0.79-0.57-1.18-0.86c-0.6-0.68-1.19-1.36-1.79-2.05
			c-10.68-9.5-21.1-19.32-32.12-28.41c-13.12-10.82-27.28-20.18-43.78-28.53C327.61-68.3,356.1-30.73,384.6,6.84
			c-0.37,0.43-0.74,0.86-1.11,1.29c-47.45-38.36-102.61-59.41-161.32-72.8c37.34,23.78,72.16,49.95,93.55,90.35
			c-16.48-6.6-32.81-13.31-50.61-15.83c14.37,5.93,27.8,13.31,40.99,24.09c-6.6-0.78-11.7-1.45-16.83-1.96
			c-5.27-0.53-10.55-1.23-15.83-1.27c-22.33-0.14-44.66,0.17-66.99-0.15c-12.12-0.18-24.24-1.22-36.35-2.07
			c-2.96-0.21-5.86-1.2-8.79-1.83c-0.19,0.49-0.37,0.97-0.56,1.46c23.8,14.75,47.59,29.51,72.3,44.83
			c-7.56,3.53-14.35,6.32-20.78,9.79c-8.01,4.33-16,8.81-23.46,14c-5.02,3.5-10.08,3.62-15.57,3.06c-4.94-0.51-9.88-0.98-14.81-1.58
			c-12.83-1.58-25.69-2.94-38.45-4.93c-13.18-2.06-26.38-4.25-39.35-7.33c-19.2-4.56-36.88-12.27-51.1-26.77
			C16.61,46.02,2.4,34.04-9.83,20.29c-15.65-17.6-29.9-36.45-44.72-54.78c-0.37-0.46-0.39-1.19-0.87-2.76
			c1.79,0.46,2.97,0.58,3.98,1.06c13.57,6.5,27.76,10.58,42.61,13.39c34.84,6.6,69.97,6.5,105.15,6.2c2.14-0.02,4.27-1.13,6.53-2.53
			C72.69-39.42,38.22-48.51,3.71-57.52c0.13-0.52,0.26-1.04,0.39-1.56c0.87-0.26,1.73-0.74,2.61-0.76
			c18.93-0.46,37.85-1.17,56.78-1.2c13.95-0.03,27.94,0.37,41.85,1.43c15.15,1.16,30.29,2.92,45.32,5.14
			c9.26,1.37,18.3,4.19,27.48,6.15c1.36,0.29,2.97-0.59,4.57-1.63c-24.08-19.89-43.84-43.04-61.38-68.87
			c1.23,0.27,2.59,0.31,3.68,0.86c8.84,4.45,17.47,9.34,26.46,13.44c16.48,7.52,33.83,12.44,51.35,17.05
			c23.23,6.11,46.4,12.67,69.12,20.42c16.62,5.67,32.46,13.59,48.69,20.4c1.71,0.72,3.72,0.73,6.18,0.43
			c-6.26-14.37-14.85-27.1-24.45-39.16c-9.6-12.06-19.51-23.86-29.28-35.77c0.23-0.4,0.47-0.8,0.7-1.2
			c4.54,1.91,9.16,3.66,13.61,5.77c19.36,9.16,38.45,19.03,54.98,32.71c13.4,11.09,25.48,23.78,38.14,35.76
			C379.38-47.79,378.25-47.47,377.12-47.16z"/>
		<path class="st2" d="M182.03,115.36c4.39-3.11,8.78-6.22,13.18-9.33c1.28-0.77,2.57-1.53,3.85-2.3c0.35-0.23,0.69-0.47,1.04-0.7
			c0.98-0.43,1.97-0.86,2.95-1.29c0.3-0.26,0.6-0.51,0.9-0.77c2.7-1.49,5.4-2.98,8.09-4.48c0.27-0.19,0.54-0.38,0.81-0.57
			c1.06-0.59,2.12-1.18,3.17-1.77c0.67-0.3,1.34-0.61,2.01-0.91c2.31-1.1,4.62-2.21,6.93-3.31c0.91-0.36,1.83-0.72,2.74-1.08
			c1.11-0.4,2.22-0.8,3.33-1.2c3.01-1.21,6.01-2.42,9.02-3.62c1.99-0.87,3.98-1.74,5.96-2.61c0.66-0.08,1.33-0.17,1.99-0.25
			c1-0.27,2-0.55,3-0.82c1.34-0.36,2.68-0.72,4.03-1.08c0.66-0.31,1.32-0.63,1.97-0.94c2.44-0.57,4.89-1.14,7.34-1.71
			c3.22-0.75,6.44-1.5,9.66-2.24c0.67-0.06,1.34-0.13,2-0.19c3.31,1.31,6.44,1.61,9.01-1.5c2.67-0.13,5.35-0.27,8.02-0.4
			c6.32-0.49,12.63-0.98,18.95-1.47c1.3,0,2.6,0,3.9,0.01c2.66,0.33,5.31,0.85,7.97,0.94c7.33,0.26,14.67,0.33,22,0.48
			c2.33,0.13,4.66,0.27,7,0.4c2.62,3.52,6.25,2.21,9.65,2.02c0.22-0.07,0.38,0,0.46,0.22c-0.63,0.87-1.26,1.75-1.9,2.62
			c-2.3-0.12-4.75,0.21-6.88-0.47c-3.67-1.17-4.26,1.05-4.16,3.49c0.3,7.08,0.93,14.14,1.42,21.21c0.38,2.75,0.76,5.5,1.15,8.24
			c0.12,1.34,0.24,2.67,0.36,4.01c0,1.33,0,2.67,0,4c0.52,6.2,1.07,12.39,1.51,18.6c0.08,1.11-0.36,2.25-0.55,3.38
			c-1.07,0.14-2.14,0.28-3.21,0.42c-0.51-3.03-1.01-6.07-1.52-9.1c-0.18-0.76-0.35-1.52-0.53-2.28c-0.87-9-1.75-18.01-2.62-27.01
			c-0.12-0.79-0.24-1.58-0.36-2.38c-0.41-2.12-0.83-4.23-1.24-6.35c0-1.94,0-3.88,0-5.83c-0.64,0.01-1.29,0.02-1.93,0.04
			c0,1.94,0,3.87,0,5.81c0.1,2.57,0.2,5.14,0.3,7.71c0.44,6,0.87,11.99,1.31,17.99c0.01,6.78,0.02,13.55,0.03,20.33
			c-2.26-0.28-4.53-0.84-6.79-0.78c-5.93,0.16-11.84,0.59-17.77,0.91c-0.78,0.03-1.56,0.06-2.34,0.09
			c-3.44,0.16-6.87,0.32-10.31,0.48c-2.6,0.12-5.19,0.23-7.79,0.35c-5.82,0.73-11.64,1.47-17.45,2.2c-2.49,0.35-4.99,0.7-7.48,1.05
			c-0.84,0.35-1.68,0.71-2.52,1.06c-5.92,1.39-11.83,2.77-17.75,4.16c-0.74,0.3-1.47,0.61-2.21,0.91c-1.59,0.43-3.17,0.86-4.76,1.29
			c-0.67,0.38-1.35,0.75-2.02,1.13c-10.21,4.46-20.67,8.42-30.56,13.5c-14.14,7.27-27.19,16.33-39.29,26.7
			c-1.51,1.3-3,2.63-4.39,4.05c-4.55,4.64-6.96,4.41-10.12-1.08c-0.41-0.7-0.6-1.53-0.89-2.3c-0.49-0.85-0.98-1.71-1.47-2.56
			c0.59-17.13,1.17-34.27,1.76-51.4c1.52,1.05,2.94,2.34,4.6,3.08c1.26,0.57,3.66,1.08,4.09,0.51c1.14-1.49,2.09-3.66,1.89-5.42
			c-0.12-1.03-2.58-2.5-3.99-2.5c-1.54,0-3.09,1.45-4.63,2.27c3.33-9.02,10.97-14.21,17.86-20.07
			C180.56,116.38,181.29,115.87,182.03,115.36z M246.19,105.07c-0.09-0.74-0.19-1.48-0.28-2.21c6.68-4.04,14.03-2.68,21.23-2.76
			c2.35-0.03,5.02-0.31,6.97-1.46c3.98-2.35,7.83-5.07,11.17-8.23c1.4-1.32,1.35-4.17,1.96-6.32c-2.55-0.03-5.1-0.17-7.64,0
			c-0.65,0.04-1.2,1.07-1.85,1.6c-4.98,4.07-9.91,7.43-17.16,6.6c-4.88-0.56-10.33,0.24-14.98,1.93
			c-12.49,4.55-21.13,13.69-25.44,26.1c-3.62,10.43-5.94,21.33-8.52,32.09c-0.22,0.93,1.98,3.51,2.95,3.46
			c3.38-0.18,6.8-0.89,10.04-1.93c10.54-3.37,21.26-6.35,31.41-10.68c7.49-3.19,13.49-8.75,16.38-17.06
			c2.85-8.19-1.34-18.87-9.74-20.94C257.5,103.97,251.71,105.05,246.19,105.07z M172.95,186.96c-3.1-2.4-4.78-4.73-6.72-4.97
			c-3.05-0.38-4.45,2.06-4.38,5.19c0.08,3.19,1.65,5.36,4.73,4.78C168.43,191.62,169.93,189.44,172.95,186.96z M163.73,170.1
			c0.99-0.07,1.97-0.15,2.96-0.22c0.72-2.57,1.9-5.13,1.93-7.7c0.01-0.98-3.01-3.1-3.94-2.76c-1.76,0.64-4.27,2.75-4.2,4.13
			C160.6,165.78,162.55,167.92,163.73,170.1z"/>
		<path class="st3" d="M327.18,193.96c0.83-0.05,1.66-0.15,2.49-0.13c1.16,0.03,2.31,0.17,3.4,0.25
			c4.02,9.05,10.23,14.06,16.29,13.23c7.66-1.05,12.64-6.09,14.41-15.09c5.86,0.71,12.21-2.15,18.71,2.51
			c0.84-1.05,2.27-2.85,4.75-5.97c-5.91,0-10.3-0.1-14.68,0.02c-6.13,0.17-12.27,0.78-18.39,0.57c-1.63-0.06-3.96-2.09-4.64-3.76
			c-1.98-4.86-3.28-9.98-5-15.48c4.07-1.74,7.81-4.47,13.1-2.51c3.5,1.29,7.63,0.85,11.19,2.04c4.01,1.34,8.31,2.96,11.42,5.67
			c10.5,9.14,20.49,18.87,30.76,28.27c2.76,2.53,3.46,4.1,0.43,7.55c-9.09,10.33-14.45,22.8-18.44,35.88
			c-1.98,6.5-1.91,6.27-8.28,4.49c-7.44-2.08-15.06-3.54-22.49-5.69c-1.61-0.47-3.72-2.59-3.89-4.15
			c-0.98-8.7-1.36-17.46-2.11-26.18c-0.25-2.94,0.61-4.03,3.68-4.5c4.77-0.72,9.27-2.48,12.07-7.13
			c-14.86,7.57-30.84,5.6-46.55,5.59c-0.02,0.44-0.05,0.88-0.07,1.32c1.38,0.19,2.76,0.33,4.13,0.59c1.62,0.3,3.22,0.91,4.85,1.02
			c3.78,0.25,7.6,0.02,11.34,0.5c1.53,0.2,3.07,1.55,4.24,2.74c0.73,0.74,0.95,2.14,1.07,3.27c0.68,6.6,1.26,13.22,1.87,19.83
			c0.29,3.16-0.77,4.82-4.28,3.98c-8.32-1.99-16.84-3.37-24.95-6.01c-13-4.22-25.65-9.48-38.6-13.86
			c-6.95-2.36-14.11-3.67-21.33,0.02c-1.29,0.66-4.3-0.28-5.47-1.5c-3.8-3.95-7.58-8.06-10.51-12.66
			c-4.84-7.61-11.96-10.29-20.33-11.2c-6-0.65-11.98-1.57-17.96-2.37c11.05-14.56,89.54-36.21,113.71-30.93
			c-19,11.49-39.64,19.22-56.62,35.03c5.51,1.77,10.07,2.73,14.3,0.53c4.01-2.08,7.49-5.17,11.2-7.82c0.35,0.31,0.7,0.63,1.05,0.94
			c-1.42,2.22-2.55,4.73-4.33,6.6c-3.03,3.18-1.61,4.85,1.51,6.29c3.74,1.71,7.64,3.13,11.22,5.13c4.29,2.39,8.31,5.26,12.45,7.91
			c0.79,0.12,1.57,0.24,2.36,0.36c-0.23-0.76-0.45-1.52-0.68-2.27c-2.69-3.88-5.44-7.72-8.07-11.64c-2.79-4.16-2.25-8.05,1.25-11.55
			c2.67-2.67,5.38-5.29,8.07-7.93c0.99-0.63,1.97-1.26,2.96-1.89c3.58-2.6,7.24-5.11,10.73-7.83c2.76-2.15,4.77-1.81,6.31,1.31
			c1.95,3.94,3.89,7.89,6.19,12.55c-5.78,0.69-10.97,1.31-16.15,1.92c-7.38,0.49-15.13,6.46-15.03,11.52
			C316.96,200.23,322.07,197.1,327.18,193.96z M318.97,221.84c1.81,1.16,3.61,2.32,5.42,3.48c0.33-0.56,0.65-1.12,0.98-1.68
			c-2.13-1.25-4.25-2.5-6.38-3.75c-0.83-0.36-1.67-0.72-2.5-1.07c-0.2,0.4-0.39,0.79-0.59,1.19
			C316.92,220.62,317.94,221.23,318.97,221.84z"/>
		<path class="st2" d="M-25.37,94.99c4.02,0.57,8.03,1.15,12.05,1.7c4.25,0.58,8.5,1.44,12.77,1.61
			c14.87,0.59,29.75,1.32,44.63,1.23c9.56-0.06,19.11-1.54,28.68-2.19c1.68-0.11,3.74,0.29,5.08,1.23
			c20.62,14.35,43.39,24.52,66.31,34.44c6.67,2.89,6.41,1.68,3.54,9.02c-2.67,6.85-6.5,8.61-13.38,8.13
			c-13.38-0.94-26.89-0.31-40.2-1.68c-16.4-1.7-32.66-4.79-48.99-7.25c-0.26-0.04-0.58,0.24-1.51,0.65
			c22.6,19.06,48.18,31.82,76.07,40.36c-13.86,5.49-56.79,6.21-67.87,1.21c13.59-0.62,25.88-2.26,37.26-8.66
			C46.11,155,5.99,131.66-26.2,96.8C-25.92,96.2-25.64,95.59-25.37,94.99z"/>
		<path class="st3" d="M204.95,215.83c-1.96,1.69-3.93,3.38-5.89,5.07c0.15,0.41,0.31,0.82,0.46,1.23c4.5-1.95,8.84-4.52,13.54-5.67
			c5.06-1.24,10.44-1.53,15.68-1.52c5.09,0.02,10.37,0.26,15.2,1.67c4.86,1.43,9.25,4.42,14.29,6.95
			c-19.01,17.93-34.84,37.23-56.69,49.67c-1.2,0.82-2.41,1.64-3.61,2.47c-1.73,1.4-3.46,2.81-5.19,4.21
			c-0.94,0.6-1.87,1.21-2.81,1.81c-1.2,0.8-2.4,1.6-3.6,2.4c-0.77,0.63-1.55,1.27-2.32,1.9c0,0,0.02-0.02,0.02-0.02
			c-0.69,0.98-1.38,1.96-2.07,2.95c-0.71,0.66-1.41,1.33-2.12,1.99c-0.33,0.25-0.66,0.5-0.99,0.76c-1.42-1.27-2.83-2.53-4.25-3.8
			c-0.8-6.67-1.6-13.35-2.4-20.02c-0.04-3.23,0.06-6.47-0.16-9.69c-0.17-2.43-0.75-4.83-1.15-7.25c-0.19-3.37-0.38-6.73-0.57-10.1
			c-0.11-6.92-0.22-13.84-0.34-20.76c1.34-0.7,2.67-1.4,4.01-2.11c0.67-0.64,1.35-1.28,2.02-1.93c0,0,0.04-0.04,0.04-0.04
			c1.01-0.57,2.01-1.15,3.02-1.72c5.13-5.15,10.48-9.33,18.59-8.44c5.81,0.64,11.74,0.12,17.61,0.12c0.21,0.62,0.41,1.24,0.62,1.86
			c-2.78,2.14-5.57,4.28-8.35,6.42C206.67,214.77,205.81,215.3,204.95,215.83z M244.92,221.7c2.11,0.78,4.22,1.57,6.33,2.35
			c0.23-0.7,0.46-1.41,0.68-2.11c-2.33-0.67-4.65-1.33-6.98-2c-1.74-0.67-3.48-1.34-5.22-2c-0.22,0.62-0.44,1.23-0.67,1.85
			C241.03,220.43,242.98,221.07,244.92,221.7z M201.59,248.06c14.85,2.54,26.23-4.45,36.79-13.91c-1.4-0.22-2.88-0.27-3.97,0.37
			c-3.12,1.82-6.01,4.05-9.13,5.87c-7.47,4.35-15.83,5.28-24.22,6.03c-1.21,0.14-2.42,0.29-3.63,0.43c0.09,0.57,0.18,1.14,0.27,1.71
			C199,248.39,200.3,248.23,201.59,248.06z M233.13,225.27c0.08-1.6,0.15-3.19,0.22-4.65c2.07-0.49,3.65-0.86,6.43-1.52
			c-13.04-3.94-50.67,15.23-53.64,26.37c3.71,0.6,7.39,1.2,11.07,1.8c0.15-0.33,0.3-0.66,0.45-0.99c-1.93-1.5-3.87-3.01-6.26-4.87
			c4.99-3.44,9.54-6.58,13.92-9.6c11.79,8.97,21.31,7.74,26.37-2.91C232.18,227.69,232.66,226.48,233.13,225.27z"/>
		<path class="st4" d="M135.92,647.94c-7.44-5.21-10.97-12.99-12.24-21.41c-2.82-18.77-4.79-37.67-7.26-56.49
			c-1.46-11.14-3.39-22.23-4.79-33.38c-1.42-11.34-2.37-22.75-3.68-34.11c-0.74-6.38-2.56-12.73-2.55-19.1
			c0.02-18.73,8.59-33.84,23.23-44.59c10.83-7.95,23.31-13.64,35.11-20.25c1.11-0.62,2.55-0.64,3.83-0.94
			c0.84-0.38,1.67-0.76,2.51-1.13c0.58-0.23,1.16-0.47,1.74-0.7c0.73-0.35,1.46-0.7,2.18-1.04c1.24-0.34,2.47-0.68,3.71-1.02
			c3.18-0.44,6.36-0.88,9.65-1.33c-0.46,0.87-0.91,1.71-1.36,2.55c0,0,0.02-0.02,0.02-0.02c-1.05,0.52-2.1,1.03-3.15,1.55
			c-0.61,0.28-1.22,0.55-1.82,0.83c-3.03-2.41-3.17,0.71-4.17,2.18c-7.34,4.14-14.84,8.04-21.97,12.51
			c-5.97,3.75-10.76,8.72-12.22,17.24c3.59-0.96,6.63-1.68,9.61-2.59c2.99-0.91,6.08-1.7,8.82-3.12c3.83-1.98,6.66-1.13,9.93,1.4
			c4.7,3.65,4.97,5.94,0.22,10.28c-0.81-7.57-1.97-7.37-8.87-4.02c-9.44,4.59-14.69,12.43-20.83,20.23
			c-3.96,5.03-11.18,7.93-17.44,10.6c-5.33,2.27-7.48,5.53-7.28,10.91c0.7,18.1,0.99,36.24,2.26,54.3c1,14.31,2.7,28.63,5.01,42.79
			c2.82,17.21,6.6,34.26,10,51.37c0.44,2.21,1.16,4.37,1.74,6.55L135.92,647.94z"/>
		<path class="st5" d="M476.26,334.65c2.33-2.88,4.93-5.6,6.95-8.69c5.88-8.99,11.52-18.14,17.26-27.22
			c0.42,0.12,0.84,0.24,1.26,0.36c2.15,12.28,4.31,24.56,6.46,36.85c-0.3,0.19-0.61,0.37-0.91,0.56c-0.71-0.63-1.42-1.26-2.13-1.88
			c-0.52-0.4-1.04-0.81-1.56-1.21c-0.25,0.48-0.5,0.97-0.75,1.45c0.22,0.92,0.44,1.85,0.66,2.77c-0.13,0.82-0.26,1.64-0.39,2.45
			c-0.27,5.9-0.65,11.8-0.78,17.71c-0.2,9.74-0.23,19.49-0.33,29.23c-1.42,0.06-2.85,0.11-4.27,0.17c-1.52-0.22-3.03-0.44-4.55-0.66
			c-0.83-0.4-1.67-0.81-2.5-1.21c-4.2-1.27-4.08,1.66-4.2,4.34c-0.36,1.18-0.72,2.36-1.08,3.54c-0.12,7.25-0.25,14.5-0.37,21.74
			c-0.62-0.07-1.24-0.13-1.87-0.2c-1.59-6.51-3.18-13.01-4.77-19.52c-0.58-2.76-1.17-5.52-1.75-8.28c-0.47-1.5-0.95-3-1.42-4.5
			c-0.76,0.17-1.51,0.35-2.27,0.52c-0.67,2.32-1.34,4.64-2.01,6.96c-0.19,1.09-0.38,2.18-0.57,3.27c-0.3,1.47-0.6,2.94-0.9,4.41
			c-0.57-0.89-1.51-1.74-1.64-2.69c-0.31-2.39-0.25-4.83-0.34-7.25c0.24-3.84,0.48-7.69,0.72-11.53c0.34-2.4,0.67-4.8,1.01-7.2
			c0.15-4.67,0.3-9.35,0.45-14.02c0.64-6.07,1.28-12.14,1.92-18.21c0.76-0.27,1.52-0.54,2.29-0.81
			C474.69,335.49,475.47,335.07,476.26,334.65z"/>
		<path class="st6" d="M178.86,291.69c0.33-0.25,0.66-0.5,0.99-0.76c1.53,3.21,4.02,6.29,4.44,9.64c2.63,21.32,7.91,42,18.2,60.76
			c6.48,11.82,15.79,22.07,23.76,33.08c14.56,20.14,29.21,40.22,43.5,60.56c4.62,6.57,8.23,13.86,12.3,20.83
			c-0.28,0.48-0.56,0.95-0.84,1.43c-1.82-0.77-4.28-1.04-5.37-2.4c-13.04-16.29-26.22-32.49-38.65-49.24
			c-12.73-17.14-25.23-34.5-36.75-52.46c-7.81-12.18-14.3-25.3-20.33-38.48c-4.77-10.41-4.77-22.11-5.58-33.4
			c-0.14-2.01,2.25-4.2,3.47-6.31c0,0-0.04,0.06-0.04,0.06c0.34-0.87,0.68-1.74,1.03-2.61
			C179.01,292.15,178.97,291.91,178.86,291.69z"/>
		<path class="st7" d="M475.88,132.57c14.02-11.25,28.15-22.59,42.28-33.93c0.52,0.5,1.04,1.01,1.56,1.51
			c-9.68,17.35-18.82,35.03-31.5,51.67C484,145.25,480.31,139.48,475.88,132.57z"/>
		<path class="st8" d="M415.79-6.04c-10.92-23.59-21.84-47.19-33.01-71.32c1.21,0.35,2.54,0.32,3.1,0.96
			c7.75,8.78,17.54,16.17,21.85,27.39c4.47,11.62,7.74,23.72,11.22,35.7c2.05,7.08,3.52,14.34,5.18,21.53
			c0.24,1.04,0.03,2.18-1.07,3.91c-3.2-4.22-6.4-8.43-9.6-12.65c0.2-0.6,0.4-1.2,0.6-1.8c0.58-0.53,1.15-1.05,1.73-1.58
			C415.8-4.61,415.79-5.32,415.79-6.04z"/>
		<path class="st9" d="M494.42,238.42c-3.62-1.5-7.13-3.9-10.87-4.34c-10.22-1.2-16.48,5.53-22.05,12.75
			c-2.7,3.5-4.78,7.48-7.26,11.15c-0.56,0.82-1.63,1.29-2.47,1.92c-0.4-1.1-1.18-2.22-1.12-3.3c0.13-2.61,1.03-5.22,0.93-7.81
			c-0.36-9.79,6.03-15.39,12.76-20.58c2.87-2.21,6.47-4.37,9.94-4.75c7.74-0.84,18.25,6.46,21.47,13.84
			C495.3,237.68,494.86,238.05,494.42,238.42z"/>
		<path class="st10" d="M435.13,198.74c5.92,4.55,11.06,8.15,15.72,12.31c1.22,1.09,1.54,3.99,1.2,5.87
			c-2.1,11.62-4.5,23.18-6.83,34.76c-0.08,0.4-0.5,0.73-1.57,2.23C440.77,235.29,438.06,217.74,435.13,198.74z"/>
		<path class="st11" d="M361.48,624.43c-1.64-24.51,8.33-45.89,17.59-67.46c0.81,0.22,1.62,0.43,2.44,0.65
			c-6.24,22.32-12.48,44.64-18.72,66.96C362.35,624.53,361.92,624.48,361.48,624.43z"/>
		<path class="st8" d="M535.16,128.99c-10,13.74-20.99,26.57-34.65,37.12c1.8-7.12,2.42-14.73,8.23-19.66
			c7.45-6.33,15.39-12.09,23.17-18.03c0.55-0.42,1.48-0.36,2.23-0.52C534.49,128.27,534.82,128.63,535.16,128.99z"/>
		<path class="st12" d="M498.91,247.97c0.81,6.18,3.23,12.41-1.1,18.65c-1.62-5.23-3.24-10.45-4.85-15.66l-0.03,0.03
			c2.45,0.46,4.3,0.11,4.09-3.02C497.64,247.96,498.28,247.97,498.91,247.97z"/>
		<path class="st13" d="M401.77-16.92c-4.3-5.84-8.6-11.67-12.9-17.51c0.03-1.22,0.07-2.43,0.1-3.65
			c3.76,4.85,7.56,9.67,11.26,14.57c1.17,1.55,2.07,3.3,3.09,4.95C402.81-18,402.29-17.46,401.77-16.92z"/>
		<path class="st14" d="M161.96,136.97c1.54-0.82,3.09-2.27,4.63-2.27c1.41,0,3.87,1.47,3.99,2.5c0.2,1.76-0.75,3.93-1.89,5.42
			c-0.43,0.57-2.83,0.06-4.09-0.51c-1.66-0.75-3.08-2.03-4.6-3.08C160.65,138.34,161.31,137.66,161.96,136.97z"/>
		<path class="st15" d="M327.18,193.96c-5.11,3.14-10.23,6.27-15.32,9.4c-0.1-5.07,7.66-11.04,15.03-11.52
			C326.99,192.54,327.09,193.25,327.18,193.96z"/>
		<path class="st16" d="M345.87,72.23c-7.33-0.15-14.67-0.22-22-0.48c-2.67-0.09-5.32-0.61-7.97-0.94
			c8.99-0.05,17.98-0.16,26.97-0.09C343.88,70.72,344.88,71.7,345.87,72.23z"/>
		<path class="st12" d="M186,415c0.45-0.84,0.9-1.68,1.36-2.55c-3.3,0.46-6.47,0.89-9.65,1.33c8-4.72,15.36-5.99,20.27-3.27
			C193.84,412.06,189.92,413.53,186,415z"/>
		<path class="st16" d="M377.25,80.37c6.8,2.62,11.62,7.51,11.51,11.76c-3.96-3.1-7.88-6.16-11.8-9.23
			C377.06,82.06,377.15,81.21,377.25,80.37z"/>
		<path class="st12" d="M491.51,268.94c-0.87-5.53-1.66-10.56-2.44-15.52C494.05,255.6,495.87,264.76,491.51,268.94z"/>
		<path class="st17" d="M319.6,139.42c5.92-0.32,11.84-0.75,17.77-0.91c2.25-0.06,4.52,0.5,6.79,0.78c-0.77,0.5-1.56,1.45-2.31,1.42
			C334.43,140.37,327.02,139.87,319.6,139.42z"/>
		<path class="st18" d="M467.52,387.68c0.09,2.42,0.03,4.86,0.34,7.25c0.12,0.95,1.07,1.79,1.64,2.69
			c-0.78,3.18-1.56,6.36-2.34,9.55C465.32,400.58,465.34,394.1,467.52,387.68z"/>
		<path class="st16" d="M312,70.8c-6.32,0.49-12.63,0.98-18.95,1.47C299.37,71.78,305.68,71.29,312,70.8z"/>
		<path class="st13" d="M359.32,194.97c-1.9,1.67-3.14,3.61-4.46,3.66c-1.21,0.05-2.51-1.91-3.78-2.99
			c1.19-1.19,2.23-3.02,3.63-3.37C355.76,192.02,357.27,193.69,359.32,194.97z"/>
		<path class="st19" d="M401.77-16.92c0.52-0.54,1.04-1.08,1.56-1.63c2.53,4.51,5.06,9.03,7.59,13.54c0,0,0.06-0.05,0.06-0.05
			C407.91-9.01,404.84-12.97,401.77-16.92z"/>
		<path class="st19" d="M489.46,274.7c-3.26-4.74-5.74-8.34-8.74-12.7C486.36,263.81,490.18,269.03,489.46,274.7z"/>
		<path class="st20" d="M169.99,220.07c0.11,6.92,0.22,13.84,0.34,20.76c-0.58-2.48-1.33-4.93-1.7-7.44
			c-0.44-2.91-0.84-5.88-0.7-8.8C168,223.06,169.26,221.58,169.99,220.07z"/>
		<path class="st20" d="M170.9,250.93c0.4,2.42,0.98,4.82,1.15,7.25c0.22,3.22,0.12,6.46,0.16,9.69
			C171.77,262.22,171.33,256.58,170.9,250.93z"/>
		<path class="st17" d="M344.13,118.96c-0.44-6-0.87-11.99-1.31-17.99C343.25,106.97,343.69,112.96,344.13,118.96z"/>
		<path class="st18" d="M471.62,336.72c-0.64,6.07-1.28,12.14-1.92,18.21C470.33,348.86,470.98,342.79,471.62,336.72z"/>
		<path class="st1" d="M388.97-38.07c-0.03,1.21-0.07,2.43-0.1,3.65c-1.95-1.92-3.9-3.83-5.85-5.75c-0.6-0.63-1.2-1.27-1.8-1.9
			c-0.26-0.17-0.39-0.41-0.39-0.72c0.47-1.17,0.94-2.35,1.41-3.52C384.48-43.57,386.73-40.82,388.97-38.07z"/>
		<path class="st17" d="M281.71,142.54c5.82-0.73,11.64-1.47,17.45-2.2C293.34,141.07,287.52,141.8,281.71,142.54z"/>
		<path class="st17" d="M498.91,247.97c-0.63,0-1.27,0-1.9-0.01c-0.71-2.97-1.43-5.94-2.14-8.91c0.52-0.4,1.05-0.79,1.57-1.19
			C497.26,241.23,498.09,244.6,498.91,247.97z"/>
		<path class="st2" d="M377.25,80.37c-0.1,0.84-0.19,1.69-0.29,2.53c-0.99-0.38-1.98-0.75-2.97-1.13c-1.22-0.46-2.45-0.91-3.67-1.37
			c-0.77-0.39-1.53-0.79-2.3-1.18c-0.73-0.65-1.45-1.31-2.52-2.27c1.84,0,3.16,0,4.47,0C372.4,78.1,374.83,79.23,377.25,80.37z"/>
		<path class="st16" d="M369.97,76.96c-1.31,0-2.62,0-4.47,0c1.06,0.96,1.79,1.61,2.52,2.27c-2.31-0.58-4.63-1.16-6.94-1.74
			c0.63-0.87,1.26-1.75,1.9-2.62C365.31,75.56,367.64,76.26,369.97,76.96z"/>
		<path class="st17" d="M306.95,139.99c3.44-0.16,6.87-0.32,10.31-0.48C313.83,139.67,310.39,139.83,306.95,139.99z"/>
		<path class="st16" d="M362.52,74.65c-3.4,0.19-7.03,1.5-9.65-2.02C356.09,73.3,359.3,73.97,362.52,74.65z"/>
		<path class="st16" d="M285.03,72.67c-2.57,3.11-5.71,2.81-9.01,1.5C279.02,73.67,282.03,73.17,285.03,72.67z"/>
		<path class="st20" d="M178.86,291.69c0.11,0.22,0.15,0.46,0.12,0.71c-0.34,0.87-0.68,1.74-1.03,2.61c0,0,0.04-0.06,0.04-0.06
			c-4.98-0.5-2.27-4.69-3.39-7.05C176.03,289.16,177.44,290.42,178.86,291.69z"/>
		<path class="st16" d="M274.01,74.36c-3.22,0.75-6.44,1.5-9.66,2.24C267.57,75.86,270.79,75.11,274.01,74.36z"/>
		<path class="st17" d="M342.51,93.26c0-1.94,0-3.87,0-5.81c0.64-0.01,1.29-0.02,1.93-0.04c0,1.94,0,3.88,0,5.83
			C343.8,93.25,343.16,93.25,342.51,93.26z"/>
		<path class="st17" d="M352.62,109.96c-0.38-2.75-0.76-5.49-1.15-8.24C351.85,104.47,352.24,107.21,352.62,109.96z"/>
		<path class="st16" d="M212.04,96.49c-2.7,1.49-5.4,2.98-8.09,4.48C206.65,99.47,209.35,97.98,212.04,96.49z"/>
		<path class="st16" d="M224.97,89.93c-2.31,1.1-4.62,2.21-6.93,3.31C220.35,92.13,222.66,91.03,224.97,89.93z"/>
		<path class="st18" d="M476.66,386.95c0.58,2.76,1.17,5.52,1.75,8.28C477.82,392.47,477.24,389.71,476.66,386.95z"/>
		<path class="st13" d="M382.23-46.32c-0.47,1.17-0.94,2.35-1.41,3.52c-1.23-1.46-2.46-2.91-3.69-4.36
			c1.12-0.31,2.25-0.62,3.38-0.93C381.08-47.51,381.66-46.91,382.23-46.32z"/>
		<path class="st18" d="M469.25,368.95c-0.34,2.4-0.67,4.8-1.01,7.2C468.57,373.75,468.91,371.35,469.25,368.95z"/>
		<path class="st12" d="M176.88,419.53c1-1.47,1.15-4.59,4.17-2.18C179.66,418.08,178.27,418.81,176.88,419.53z"/>
		<path class="st16" d="M246.03,81.41c-1.99,0.87-3.98,1.74-5.96,2.61C242.05,83.15,244.04,82.28,246.03,81.41z"/>
		<path class="st16" d="M199.06,103.73c-1.28,0.77-2.57,1.53-3.85,2.3C196.49,105.26,197.77,104.5,199.06,103.73z"/>
		<path class="st19" d="M414.07-2.31c-0.2,0.6-0.4,1.2-0.6,1.8c-0.83-1.52-1.66-3.03-2.49-4.55c0,0-0.06,0.06-0.06,0.05
			C411.97-4.11,413.02-3.21,414.07-2.31z"/>
		<path class="st18" d="M497.74,387.2c1.42-0.06,2.85-0.11,4.27-0.17C500.69,389.75,499.26,389.45,497.74,387.2z"/>
		<path class="st17" d="M352.97,117.97c0-1.33,0-2.67,0-4C352.97,115.3,352.97,116.64,352.97,117.97z"/>
		<path class="st18" d="M483.18,414.75c0.62,0.07,1.24,0.13,1.86,0.2c-0.29,0.85-0.58,1.69-0.87,2.54
			C483.84,416.57,483.51,415.66,483.18,414.75z"/>
		<path class="st20" d="M197.93,275.7c1.2-0.82,2.4-1.64,3.61-2.47C200.34,274.06,199.14,274.88,197.93,275.7z"/>
		<path class="st16" d="M251.02,80.34c-1,0.27-2,0.55-3,0.82C249.02,80.89,250.02,80.61,251.02,80.34z"/>
		<path class="st17" d="M350.72,140.36c1.07-0.14,2.14-0.28,3.21-0.42C353.16,142.38,352.1,142.61,350.72,140.36z"/>
		<path class="st16" d="M216.03,94.14c-1.06,0.59-2.12,1.18-3.17,1.77C213.92,95.33,214.97,94.74,216.03,94.14z"/>
		<path class="st16" d="M231.04,87.64c-1.11,0.4-2.22,0.8-3.33,1.2C228.83,88.45,229.94,88.04,231.04,87.64z"/>
		<path class="st18" d="M470.39,393.21c0.19-1.09,0.38-2.18,0.57-3.27C470.77,391.03,470.58,392.12,470.39,393.21z"/>
		<path class="st18" d="M485.41,393.2c0.36-1.18,0.72-2.36,1.08-3.54C486.13,390.84,485.77,392.02,485.41,393.2z"/>
		<path class="st12" d="M182.88,416.52c1.05-0.52,2.1-1.03,3.15-1.55C184.98,415.49,183.93,416.01,182.88,416.52z"/>
		<path class="st16" d="M203.05,101.74c-0.98,0.43-1.97,0.86-2.95,1.29C201.08,102.6,202.06,102.17,203.05,101.74z"/>
		<path class="st20" d="M189.94,281.72c0.94-0.6,1.87-1.21,2.81-1.81C191.81,280.51,190.87,281.12,189.94,281.72z"/>
		<path class="st20" d="M181.97,288.94c0.69-0.98,1.38-1.96,2.07-2.95C183.35,286.98,182.66,287.96,181.97,288.94z"/>
		<path class="st21" d="M319.82,183.89c-0.99,0.63-1.97,1.26-2.96,1.89C317.85,185.15,318.83,184.52,319.82,183.89z"/>
		<path class="st20" d="M179.07,214.28c-1.01,0.57-2.01,1.15-3.02,1.72C177.06,215.43,178.06,214.86,179.07,214.28z"/>
		<path class="st16" d="M370.32,80.41c1.22,0.46,2.45,0.91,3.67,1.37C372.77,81.32,371.54,80.86,370.32,80.41z"/>
		<path class="st21" d="M315.61,216.89c0.23,0.76,0.45,1.52,0.68,2.27c-0.79-0.12-1.57-0.24-2.36-0.36
			C314.49,218.17,315.05,217.53,315.61,216.89z"/>
		<path class="st20" d="M184.01,286.02c0.77-0.63,1.55-1.27,2.32-1.9C185.56,284.75,184.79,285.39,184.01,286.02z"/>
		<path class="st16" d="M182.03,115.36c-0.74,0.51-1.47,1.03-2.21,1.54C180.56,116.38,181.29,115.87,182.03,115.36z"/>
		<path class="st17" d="M348.67,128.99c0.18,0.76,0.35,1.52,0.53,2.28C349.02,130.51,348.85,129.75,348.67,128.99z"/>
		<path class="st17" d="M345.68,99.6c0.12,0.79,0.24,1.58,0.36,2.38C345.93,101.18,345.81,100.39,345.68,99.6z"/>
		<path class="st18" d="M502.85,334.87c0.25-0.48,0.5-0.97,0.75-1.45c0.52,0.4,1.04,0.81,1.56,1.21
			C504.39,334.7,503.62,334.78,502.85,334.87z"/>
		<path class="st18" d="M476.26,334.65c-0.78,0.42-1.57,0.84-2.35,1.26C474.69,335.49,475.47,335.07,476.26,334.65z"/>
		<path class="st16" d="M257.02,78.32c-0.66,0.31-1.32,0.63-1.97,0.94C255.7,78.94,256.36,78.63,257.02,78.32z"/>
		<path class="st18" d="M503.12,340.09c0.13-0.82,0.26-1.63,0.39-2.45C503.38,338.45,503.25,339.27,503.12,340.09z"/>
		<path class="st19" d="M415.79-6.04c0,0.72,0,1.43,0,2.15C415.8-4.61,415.8-5.32,415.79-6.04z"/>
		<path class="st18" d="M472.97,382.97c0.75-0.17,1.51-0.35,2.27-0.52C474.48,382.62,473.73,382.8,472.97,382.97z"/>
		<path class="st13" d="M381.21-42.08c0.6,0.63,1.2,1.27,1.8,1.9C382.42-40.81,381.81-41.44,381.21-42.08z"/>
		<path class="st18" d="M490.69,385.32c0.83,0.4,1.67,0.81,2.5,1.21C492.36,386.13,491.53,385.73,490.69,385.32z"/>
		<path class="st13" d="M374.16-50.06c0.6,0.68,1.19,1.36,1.79,2.05C375.35-48.7,374.75-49.38,374.16-50.06z"/>
		<path class="st17" d="M244.97,152.13c0.67-0.38,1.35-0.75,2.02-1.13C246.32,151.38,245.64,151.75,244.97,152.13z"/>
		<path class="st17" d="M251.75,149.71c0.74-0.3,1.47-0.61,2.21-0.91C253.22,149.11,252.48,149.41,251.75,149.71z"/>
		<path class="st17" d="M271.71,144.64c0.84-0.35,1.68-0.71,2.52-1.06C273.39,143.94,272.55,144.29,271.71,144.64z"/>
		<path class="st12" d="M174,414.8c-0.73,0.35-1.46,0.7-2.18,1.04C172.54,415.49,173.27,415.14,174,414.8z"/>
		<path class="st14" d="M158.24,190.43c0.49,0.85,0.98,1.71,1.47,2.56C159.22,192.14,158.73,191.29,158.24,190.43z"/>
		<path class="st12" d="M170.08,416.54c-0.84,0.38-1.67,0.76-2.51,1.13C168.4,417.3,169.24,416.92,170.08,416.54z"/>
		<path class="st20" d="M204.95,215.83c0.86-0.53,1.73-1.06,2.59-1.59C206.68,214.77,205.81,215.3,204.95,215.83z"/>
		<path class="st20" d="M176.01,216.04c-0.67,0.64-1.35,1.28-2.02,1.93C174.67,217.33,175.34,216.68,176.01,216.04z"/>
		<path class="st9" d="M496.44,237.86c-0.52,0.4-1.05,0.79-1.57,1.19c-0.21-0.17-0.36-0.38-0.45-0.63c0.44-0.37,0.87-0.73,1.32-1.1
			C496.04,237.42,496.27,237.6,496.44,237.86z"/>
		<polygon class="st12" points="492.95,250.96 492.84,250.85 492.92,250.99 		"/>
		<polygon class="st4" points="135.85,647.97 136.07,648.03 135.92,647.93 		"/>
		<path class="st22" d="M246.19,105.07c5.52-0.02,11.31-1.1,16.51,0.19c8.41,2.07,12.59,12.75,9.74,20.94
			c-2.89,8.31-8.9,13.87-16.38,17.06c-10.14,4.33-20.87,7.31-31.41,10.68c-3.24,1.03-6.66,1.75-10.04,1.93
			c-0.98,0.05-3.18-2.53-2.95-3.46c2.58-10.77,4.9-21.66,8.52-32.09c4.31-12.41,12.95-21.55,25.44-26.1
			c4.65-1.69,10.1-2.49,14.98-1.93c7.24,0.83,12.17-2.53,17.16-6.6c0.64-0.52,1.2-1.56,1.85-1.6c2.53-0.16,5.09-0.02,7.64,0
			c-0.61,2.15-0.56,5-1.96,6.32c-3.34,3.17-7.2,5.89-11.17,8.23c-1.95,1.15-4.62,1.44-6.97,1.46c-7.2,0.08-14.55-1.28-21.23,2.76
			c-5.26,2.34-10.03,5.21-12.05,11.07c-4.37,7.36-3.93,15.53,1.17,20.06c5.48,4.87,14.58,6.21,19.42,1.28
			c0.98-0.6,1.96-1.2,2.93-1.8c0.48-0.66,0.95-1.32,1.43-1.98c-0.72,0.4-1.43,0.8-2.15,1.21c-1.02,0.52-2.03,1.04-3.05,1.56
			c-3.69-0.21-7.75,0.51-10.98-0.81c-7.01-2.87-8.88-9-7.09-19.39C239.1,111.07,242.64,108.07,246.19,105.07z M262.31,127.14
			c0.91-1.85,1.84-2.91,1.89-4.02c0.17-3.41,0.84-6.97-3.07-9.25c-4.24-2.46-8.47-2.59-12.7-0.53c-4.51,2.2-6.42,7.67-4.2,11.14
			c1.94,3.02,5.47,3.25,10.03,0.03C257.8,122.02,260.4,121.59,262.31,127.14z M220.45,146.23c4.44-1.1,7.5-1.86,11.02-2.74
			c-3.09-3.3-5.5-5.87-8.19-8.74C222.33,138.62,221.53,141.87,220.45,146.23z M261.64,129.84c0.65-1.18,1.04-1.63,1.11-2.12
			c0.05-0.35-0.33-0.76-0.52-1.14c-0.42,0.33-1.04,0.59-1.2,1.02C260.9,127.99,261.27,128.57,261.64,129.84z M260.39,130.07
			c-0.12,0.1-0.33,0.18-0.35,0.29c-0.01,0.11,0.17,0.25,0.27,0.37c0.12-0.1,0.33-0.18,0.35-0.3
			C260.67,130.33,260.48,130.19,260.39,130.07z"/>
		<path class="st23" d="M172.95,186.96c-3.02,2.48-4.52,4.66-6.37,5.01c-3.08,0.58-4.65-1.59-4.73-4.78
			c-0.08-3.13,1.33-5.57,4.38-5.19C168.17,182.23,169.85,184.56,172.95,186.96z"/>
		<path class="st24" d="M163.73,170.1c-1.17-2.18-3.12-4.32-3.24-6.55c-0.07-1.38,2.43-3.49,4.2-4.13c0.93-0.34,3.95,1.78,3.94,2.76
			c-0.03,2.58-1.21,5.14-1.93,7.7C165.7,169.95,164.71,170.02,163.73,170.1z"/>
		<path class="st25" d="M246.19,105.07c-3.54,3-7.09,6-10.63,8.99c-0.57-0.04-1.13-0.09-1.69-0.13c2.02-5.86,6.79-8.73,12.05-11.07
			C246,103.59,246.09,104.33,246.19,105.07z"/>
		<path class="st21" d="M318.98,219.89c2.13,1.25,4.25,2.5,6.38,3.75c-0.33,0.56-0.65,1.12-0.98,1.68
			c-1.81-1.16-3.61-2.32-5.42-3.48C318.97,221.19,318.98,220.54,318.98,219.89z"/>
		<path class="st0" d="M318.98,219.89c-0.01,0.65-0.01,1.3-0.02,1.95c-1.03-0.61-2.05-1.22-3.08-1.84c0.2-0.4,0.39-0.79,0.59-1.19
			C317.31,219.18,318.15,219.53,318.98,219.89z"/>
		<path class="st23" d="M231.71,228.9c-5.06,10.66-14.58,11.88-26.37,2.91c-4.38,3.02-8.93,6.15-13.92,9.6
			c2.39,1.86,4.32,3.36,6.26,4.87c-0.15,0.33-0.3,0.66-0.45,0.99c-3.68-0.6-7.36-1.19-11.07-1.8c2.97-11.14,40.6-30.31,53.64-26.37
			c-2.78,0.66-4.36,1.03-6.43,1.52c-0.07,1.46-0.15,3.06-0.22,4.65c-1.04-0.78-1.98-1.78-3.14-2.28c-1.02-0.44-2.65-0.81-3.35-0.3
			c-1.04,0.75-2.19,2.44-1.99,3.48c0.19,1.03,1.88,2.07,3.12,2.55C228.94,229.16,230.38,228.87,231.71,228.9z"/>
		<path class="st15" d="M201.06,246.41c8.39-0.74,16.75-1.68,24.22-6.03c3.12-1.82,6.01-4.05,9.13-5.87
			c1.09-0.63,2.57-0.58,3.97-0.37c-10.57,9.46-21.94,16.45-36.79,13.91C201.42,247.51,201.24,246.96,201.06,246.41z"/>
		<path class="st16" d="M231.71,228.9c-1.32-0.03-2.77,0.26-3.93-0.18c-1.25-0.47-2.93-1.51-3.12-2.55
			c-0.19-1.05,0.96-2.73,1.99-3.48c0.7-0.51,2.33-0.13,3.35,0.3c1.16,0.49,2.1,1.5,3.14,2.28
			C232.66,226.48,232.18,227.69,231.71,228.9z"/>
		<path class="st15" d="M244.96,219.95c2.33,0.67,4.65,1.33,6.98,2c-0.23,0.7-0.46,1.41-0.68,2.11c-2.11-0.78-4.22-1.57-6.33-2.35
			C244.94,221.12,244.95,220.53,244.96,219.95z"/>
		<path class="st23" d="M244.96,219.95c-0.01,0.59-0.03,1.17-0.04,1.76c-1.95-0.64-3.9-1.28-5.84-1.91
			c0.22-0.62,0.44-1.23,0.67-1.85C241.48,218.61,243.22,219.28,244.96,219.95z"/>
		<path class="st23" d="M201.06,246.41c0.18,0.55,0.35,1.1,0.53,1.65c-1.3,0.16-2.59,0.33-3.88,0.49c-0.09-0.57-0.18-1.14-0.27-1.71
			C198.64,246.7,199.85,246.56,201.06,246.41z"/>
		<path class="st0" d="M177.96,295c0.34-0.87,0.68-1.74,1.03-2.61C178.64,293.26,178.3,294.13,177.96,295z"/>
		<path class="st6" d="M262.31,127.14c-1.9-5.55-4.51-5.12-8.04-2.63c-4.57,3.23-8.09,3-10.03-0.03c-2.22-3.47-0.31-8.94,4.2-11.14
			c4.23-2.06,8.46-1.93,12.7,0.53c3.91,2.27,3.24,5.84,3.07,9.25C264.15,124.23,263.21,125.29,262.31,127.14z"/>
		<path class="st26" d="M233.86,113.93c0.56,0.04,1.13,0.09,1.69,0.13c-1.79,10.39,0.08,16.52,7.09,19.39
			c3.23,1.32,7.29,0.6,10.98,0.81c0.28,0.34,0.55,0.67,0.83,1.01c-4.84,4.93-13.94,3.59-19.42-1.28
			C229.93,129.46,229.49,121.29,233.86,113.93z"/>
		<path class="st11" d="M220.45,146.23c1.08-4.35,1.88-7.6,2.84-11.48c2.69,2.87,5.1,5.44,8.19,8.74
			C227.95,144.36,224.88,145.13,220.45,146.23z"/>
		<path class="st19" d="M257.39,133.47c-0.98,0.6-1.96,1.2-2.94,1.8c-0.27-0.33-0.55-0.67-0.83-1.01c1.02-0.52,2.03-1.05,3.05-1.57
			C256.91,132.95,257.15,133.21,257.39,133.47z"/>
		<path class="st19" d="M261.64,129.84c-0.38-1.28-0.75-1.85-0.6-2.23c0.16-0.43,0.78-0.69,1.2-1.02c0.19,0.38,0.57,0.79,0.52,1.14
			C262.68,128.22,262.29,128.66,261.64,129.84z"/>
		<path class="st19" d="M256.67,132.69c0.72-0.4,1.43-0.8,2.15-1.21c-0.48,0.66-0.96,1.32-1.43,1.98
			C257.15,133.21,256.91,132.95,256.67,132.69z"/>
		<path class="st19" d="M260.39,130.07c0.1,0.12,0.28,0.26,0.27,0.37c-0.01,0.11-0.22,0.2-0.35,0.3c-0.1-0.12-0.28-0.26-0.27-0.37
			C260.05,130.25,260.26,130.16,260.39,130.07z"/>
	</g>
</g>
</svg>
