<?xml version="1.0" encoding="utf-8"?>
<!-- Generator: Adobe Illustrator 23.0.1, SVG Export Plug-In . SVG Version: 6.00 Build 0)  -->
<svg version="1.1" id="Layer_1" xmlns="http://www.w3.org/2000/svg" xmlns:xlink="http://www.w3.org/1999/xlink" x="0px" y="0px"
	 viewBox="0 0 250 250" style="enable-background:new 0 0 250 250;" xml:space="preserve">
<style type="text/css">
	.st0{fill:currentColor;}
	.st1{fill:currentColor;}
	.st2{fill:currentColor;}
	.st3{fill:currentColor;}
	.st4{fill:currentColor;}
	.st5{fill:currentColor;}
	.st6{fill:currentColor;}
	.st7{fill:currentColor;}
	.st8{fill:currentColor;}
	.st9{fill:currentColor;}
	.st10{fill:currentColor;}
</style>
<g>
	<g>
		<path class="st0" d="M171.54,37.72c-9.33-12.93-20.72-23.54-34.98-31.01c9.31,11.93,18.37,24.03,27.15,36.4
			c-7.66-5.85-15.86-10.72-24.69-14.55c-8.73-3.79-17.75-6.59-27.09-8.6c11.94,7.65,23.09,16.01,29.98,28.95
			c-5.57-2.25-11.18-4.36-17.11-5.48c4.84,2.17,9.58,4.43,14.02,8.18c-2.24-0.3-4.01-0.46-5.74-0.8c-0.79-0.15-1.57-0.27-2.37-0.27
			c-8.23,0-16.46,0.15-24.67-0.09c-4.07-0.12-8.19-0.19-12.22-1.05c-0.51-0.11-1.06-0.19-1.82,0.18c7.81,4.84,15.48,9.59,23.4,14.5
			c-4.06,1.9-7.9,3.5-11.38,5.78c-0.93,0.61-1.96,1.1-2.8,1.82c-1.45,1.25-3.12,1.28-4.81,1c-3.52-0.58-7.11-0.4-10.61-1.03
			c-3.34-0.61-6.72-0.85-10.06-1.53c-2.99-0.61-6.05-1-8.97-1.86c-4.77-1.4-9.57-2.66-13.56-6.04c-5.63-4.77-10.98-9.8-15.95-15.24
			c-4.88-5.34-9.42-10.99-13.67-16.85c-0.25-0.34-0.87-0.71-0.37-1.2c0.37-0.37,0.75,0.08,1.13,0.25c4.31,1.97,8.77,3.3,13.45,4.24
			c5.55,1.12,11.15,1.28,16.74,1.79c5.65,0.52,11.31,0.13,16.96,0.25c0.27,0.01,0.63,0.07,0.78-0.07c0.39-0.36,1.17-0.19,1.3-0.77
			c0.16-0.7-0.59-0.82-1.01-1.07c-4.91-2.9-10.09-5.21-15.5-6.99c-3.63-1.2-7.3-2.32-11-3.28c-0.99-0.26-2.01-0.63-3.07-0.67
			c-0.44-0.02-0.92-0.26-0.87-0.75c0.05-0.5,0.58-0.34,0.93-0.35c1.92-0.04,3.84-0.02,5.76-0.09c4.58-0.17,9.16-0.63,13.73-0.27
			c4,0.32,8.02,0.01,11.97,0.49c4.84,0.59,9.75,0.61,14.52,1.62c2.93,0.62,5.96,0.87,8.78,2c0.56,0.22,0.94,0.05,1.25-0.37
			c0.4-0.54-0.12-0.79-0.41-1.02c-2.83-2.2-5.38-4.7-7.89-7.25c-3.94-4-7.33-8.44-10.77-12.86c-0.22-0.28-0.5-0.57-0.44-1
			c0.41-0.3,0.79-0.18,1.17,0.08c3.54,2.44,7.53,3.94,11.45,5.6c4.36,1.85,8.95,2.9,13.48,4.2c4.64,1.34,9.37,2.27,13.99,3.7
			c4.65,1.44,9.24,3.04,13.79,4.75c3.24,1.21,6.32,2.87,9.46,4.34c0.34,0.16,0.64,0.43,0.99,0.51c0.5,0.12,1.12,0.32,1.51-0.14
			c0.36-0.43-0.02-0.87-0.27-1.3c-3.25-5.69-7.04-11-11.23-16.04c-1.6-1.93-3.29-3.77-5.07-5.54c-0.3-0.29-0.77-0.6-0.48-1.07
			c0.39-0.64,0.81-0.08,1.21,0.1c8.4,3.6,16.35,7.93,23.4,13.84c6.24,5.23,11.72,11.12,16.25,17.9
			C170.05,34.99,170.88,36.26,171.54,37.72z"/>
		<path class="st0" d="M166.49,71.66c-1.27-1.48-2.6-2.86-4.27-3.88c-2.58-1.57-5.49-2.04-8.38-2.54c-0.97-0.17-1.09,0.79-0.85,1.44
			c0.42,1.16,0.3,2.32,0.31,3.48c0.05,4.3,0.84,8.56,0.66,12.88c-0.02,0.56,0.26,1.13,0.33,1.7c0.06,0.51-0.07,1.02-0.69,1.05
			c-0.6,0.03-0.8-0.42-0.84-0.95c-0.18-2.44-0.28-4.89-0.57-7.32c-0.34-2.81-0.84-5.59-1.4-8.37c-0.32,2.13-0.14,4.22,0.04,6.34
			c0.27,3.08,0.22,6.18,0.31,9.27c0.02,0.93-0.67,0.86-1.23,0.79c-6.08-0.73-12.13-0.08-18.12,0.72
			c-6.51,0.87-12.79,2.78-18.74,5.67c-6.66,3.24-12.89,7.1-18.18,12.35c-0.83,0.83-1.68,0.53-2.14-0.2
			c-0.67-1.04-1.27-2.17-1.25-3.53c0.04-4,0.05-8.01-0.01-12.01c-0.02-1.16,0.81-2.07,0.61-3.22c1.2-0.11,1.56,2.44,3.06,0.82
			c0.5-0.54,0.59-1.13,0.11-1.72c-0.8-0.99-1.63-0.47-2.75,0.27c1.55-3.18,3.93-5.05,6.29-6.88c6.26-4.84,13.24-8.43,20.7-10.97
			c3.53-1.2,7.22-1.93,10.95-2.54c6.31-1.03,12.62-1.14,18.94-0.79c4.47,0.25,8.97,0.8,12.92,3.23
			C164.17,67.92,165.81,69.38,166.49,71.66z M114.85,80.37c-0.14-1.98,0.74-3.46,1.95-4.78c2.6-2.85,5.99-3.1,9.51-2.76
			c0.71,0.07,1.4,0.12,1.99-0.29c1.35-0.94,2.69-1.9,3.96-2.95c0.55-0.45,1.2-1.12,0.51-1.9c-0.66-0.75-1.51-0.64-2.31-0.14
			c-0.22,0.14-0.41,0.34-0.6,0.53c-1.61,1.5-3.34,2.38-5.72,2.2c-3.9-0.31-7.28,1.2-9.86,4.13c-3.85,4.37-4.92,9.86-5.81,15.38
			c-0.1,0.59,0.29,1.07,1.24,0.96c2.66-0.31,5.22-1.03,7.72-1.88c3.27-1.12,6.51-2.33,9.03-4.96c2.77-2.89,2.37-8.41-2.07-9.8
			c-3.94-1.24-8.55,1.9-8.39,5.96c0.06,1.53,1.5,3.42,2.92,3.83c1.57,0.46,4.43-0.47,5.17-1.72c0.36-0.61,0.54-1.43,0.04-1.93
			c-0.47-0.47-1.16-0.19-1.72,0.26c-0.45,0.36-0.99,0.68-1.54,0.83c-1.03,0.27-1.82-0.19-2.05-1.21c-0.23-1.02-0.04-2.07,0.85-2.74
			c1.24-0.92,2.72-0.98,4.09-0.5c0.98,0.35,1.67,1.08,1.71,2.41c0.05,1.94-0.87,3.25-2.26,4.31c-1.71,1.31-3.57,2.03-5.73,0.94
			C115.72,83.64,114.57,82.42,114.85,80.37z M95.44,100.5c0.02-0.74-0.36-1.48-1.39-1.5c-1.02-0.02-1.46,0.66-1.46,1.66
			c0,1.01,0.44,1.65,1.47,1.63C95.02,102.28,95.44,101.66,95.44,100.5z M94.86,93.21c0.12-0.91-0.63-1.42-1.29-1.38
			c-0.85,0.05-1.47,0.76-1.53,1.72c-0.06,1.07,0.98,1.41,1.55,1.41C94.35,94.96,94.94,94.22,94.86,93.21z"/>
		<path class="st0" d="M144.13,93.5c-4.14,2.26-8.12,4.19-11.88,6.52c-1.8,1.11-3.67,2.11-5.14,3.67c-0.27,0.29-0.84,0.44-0.6,0.99
			c0.18,0.41,0.64,0.31,1,0.34c1.72,0.14,3.37,0.19,4.69-1.31c0.55-0.62,1.44-0.95,2.27-1.31c-0.29,0.93-0.68,1.77-1.34,2.42
			c-0.82,0.8-0.41,1.34,0.35,1.73c0.79,0.41,1.62,0.75,2.46,1.03c2.82,0.94,4.8,3.25,7.39,4.55c0.46,0.23,0.91,0.46,1.63,0.82
			c-0.28-0.79-0.7-1-1.13-1.27c-2.23-1.39-3.76-3.43-4.86-5.75c-0.37-0.79-0.36-1.75,0.29-2.57c2.16-2.71,5.07-4.51,7.83-6.48
			c0.49-0.35,1.03-0.19,1.36,0.37c0.05,0.09,0.13,0.17,0.18,0.26c2.53,4.12,2.53,4.04-2.29,4.37c-2.24,0.15-4.1,1.29-5.52,3.06
			c-0.21,0.26-0.47,0.51-0.15,0.81c0.34,0.31,0.6,0,0.79-0.23c1.05-1.27,2.38-2.08,3.97-2.48c1.13-0.29,2.03-0.43,2.65,1.01
			c0.89,2.1,2.93,3.42,4.57,3.09c2.19-0.45,3.99-1.51,4.46-3.92c0.15-0.79,0.49-0.94,1.16-0.93c1.17,0.02,2.35-0.01,3.52,0.01
			c0.41,0.01,1.11-0.22,0.76,0.69c-0.08,0.21,0.09,0.48,0.33,0.38c0.73-0.29,1.32-0.88,1.45-1.58c0.16-0.9-0.71-0.59-1.14-0.58
			c-2.98,0.05-5.97-0.21-8.94,0.21c-0.86,0.12-1.26-0.29-1.49-1.07c-0.41-1.42-0.77-2.87-1.35-4.22c-0.36-0.83,0-0.99,0.58-1.29
			c1.15-0.58,2.27-0.56,3.55-0.41c3.56,0.41,6.57,1.61,9.1,4.33c2.38,2.56,5.11,4.8,7.73,7.13c0.97,0.86,1.16,1.39,0.16,2.54
			c-2.75,3.14-4.43,6.9-5.71,10.86c-0.88,2.71-0.95,2.73-3.56,1.83c-2.1-0.72-4.23-1.23-6.42-1.58c-0.88-0.14-1.34-0.62-1.3-1.51
			c0.14-2.78-0.37-5.51-0.6-8.26c-0.08-0.99,0.17-1.29,1.15-1.42c1.67-0.22,3.14-0.91,4.09-2.5c-4.87,2.81-10.23,1.84-15.43,2.18
			c2.19,0.61,4.38,0.99,6.61,0.9c0.91-0.04,1.36,0.15,1.58,1.09c0.55,2.45,0.42,4.97,0.85,7.43c0.14,0.8-0.28,1.17-1.14,1.07
			c-2.16-0.24-4.24-0.85-6.33-1.38c-4.94-1.25-9.46-3.73-14.35-5.11c-2.18-0.62-4.47-1.13-6.69,0.07c-0.81,0.44-1.42,0.1-1.95-0.54
			c-1.11-1.36-2.41-2.61-3.31-4.1c-1.48-2.47-3.82-3.12-6.36-3.5c-1.92-0.28-3.82-0.68-5.88-0.53
			C111.18,98.68,136.84,91.61,144.13,93.5z"/>
		<path class="st0" d="M54.61,86.16c7.34,6.14,15.48,10.28,24.43,12.99c-7.04,2.4-14.1,1.16-21.36,0.76c0.6-0.68,1.2-0.48,1.71-0.5
			c2.98-0.09,5.81-0.9,8.63-1.73c0.42-0.12,1.15-0.27,1.12-0.97c-0.03-0.69-0.79-0.71-1.2-0.88c-5.69-2.42-11.15-5.29-16.39-8.56
			c-3.96-2.48-7.81-5.11-11.41-8.11c-2.42-2.02-4.71-4.17-6.91-6.42c-0.35-0.35-1.03-0.67-0.69-1.29c0.36-0.66,0.92-0.13,1.41-0.03
			c2.24,0.45,4.5,0.73,6.77,0.91c4.46,0.36,8.93,0.74,13.4,0.32c3.33-0.31,6.7-0.15,10-0.77c0.6-0.11,1.08,0.1,1.5,0.4
			c6.64,4.66,13.96,8.01,21.42,11.1c2,0.83,1.74,0.75,1.08,2.7c-0.86,2.52-2.44,2.81-4.8,2.8c-4.1-0.01-8.2-0.19-12.25-0.59
			c-5.31-0.52-10.64-1.12-15.87-2.3C55.12,85.95,55.01,86.03,54.61,86.16z"/>
		<path class="st0" d="M97.03,135.1c-0.17-0.96-0.36-1.87-0.48-2.8c-0.61-4.61-1.05-9.22-1.36-13.87c-0.12-1.92-0.09-3.92-0.55-5.84
			c-0.17-0.7,0.25-1.21,0.82-1.6c1.31-0.89,2.72-1.66,3.88-2.71c1.51-1.37,3.19-1.71,5.13-1.57c1.49,0.11,2.99,0.02,4.48,0.02
			c0.32,0,0.7-0.02,0.8,0.36c0.1,0.36-0.19,0.55-0.46,0.75c-1.63,1.19-3.24,2.4-4.86,3.61c-0.38,0.28-0.98,0.58-0.53,1.1
			c0.44,0.5,0.64-0.21,0.96-0.4c2.16-1.29,4.33-2.56,6.99-2.59c3.25-0.04,6.48,0.01,9.46,1.58c0.23,0.12,0.49,0.2,0.71,0.34
			c1.43,0.97,1.38,1.07,0.12,2.24c-1.8,1.67-3.64,3.31-5.25,5.16c-3.33,3.82-7.53,6.55-11.56,9.49c-2.35,1.72-4.86,3.21-6.78,5.47
			C98.16,134.32,97.82,134.9,97.03,135.1z M121.31,112.21c-2.24-1.65-4.8-2.25-7.33-1.41c-3.68,1.22-7.23,2.85-10.52,4.94
			c-1.13,0.72-2.05,1.7-2.87,2.76c-0.32,0.41-0.59,0.92,0.23,1.02c2.39,0.3,4.67,1.04,7.21,0.79c3.67-0.36,6.31-2.28,9.2-4.49
			c-1.24-0.37-1.81,0.36-2.44,0.82c-3.03,2.23-6.44,3.15-10.17,2.87c-0.9-0.07-1.93-0.46-2.23-1.26c-0.27-0.73,0.87-0.87,1.35-1.31
			c0.43-0.39,0.9-0.75,1.38-1.09c0.92-0.65,1.66-0.83,2.74,0.07c2.03,1.68,5.36,1.12,6.64-0.85c0.32-0.49,0.66-1.02-0.33-1.06
			c-0.68-0.03-1.31-0.07-1.43-0.91c-0.07-0.5,0.29-0.8,0.64-1.03c0.82-0.52,1.08,0.32,1.53,0.68c0.1,0.08,0.26,0.09,0.4,0.14
			c0.24-1.71,0.9-2.03,2.59-1.47C119.02,111.8,120.06,112.49,121.31,112.21z"/>
		<path class="st0" d="M100.64,173.4c-1.36,1.08-3,1.65-4.51,2.44c-2.72,1.42-5.49,2.77-7.75,4.93c-0.84,0.8-1.31,1.79-1.76,2.8
			c-0.14,0.31-0.23,0.65-0.01,0.9c0.28,0.32,0.67,0.22,1.04,0.09c1.87-0.66,3.74-1.33,5.61-1.98c0.69-0.24,2.92,0.73,3.24,1.54
			c0.38,0.98,0.06,1.83-0.84,2.51c-0.34-2.53-0.64-2.4-2.9-1.33c-3.05,1.45-4.88,3.83-6.58,6.53c-1.27,2.02-3.6,2.57-5.63,3.36
			c-1.8,0.7-2.37,1.79-2.43,3.58c-0.21,5.83,0.44,11.61,0.76,17.41c0.17,3.16,0.67,6.31,1.02,9.46c0.55,4.92,1.26,9.83,2.22,14.68
			c0.51,2.57,1.04,5.19,2.34,7.98c-2.18-1.18-2.89-2.98-3.5-4.69c-0.72-2.02-1.02-4.17-1.2-6.34c-0.28-3.27-0.78-6.53-1.21-9.79
			c-0.32-2.44-0.65-4.87-0.98-7.31c-0.49-3.67-0.94-7.35-1.5-11.01c-0.23-1.52-0.29-3.07-0.45-4.59c-0.32-3.05-1.16-6.02-1.08-9.13
			c0.15-5.96,2.95-10.49,7.43-14.11c4.81-3.89,10.45-6.25,16.24-8.27c0.24-0.08,0.53-0.02,0.8-0.02c0.47,0.06,0.91,0,1.37-0.14
			C101.01,172.71,100.68,173.16,100.64,173.4z"/>
		<path class="st0" d="M201.45,136.18c0.78,4.42,1.46,8.31,2.13,12.13c-0.68,0.44-0.72-0.19-0.99-0.35
			c-0.52-0.3-0.68-0.06-0.68,0.42c-0.06,4.98-0.14,9.96-0.17,14.94c-0.01,1.28-0.11,2.23-1.75,1.43c-0.18-0.09-0.42-0.03-0.63-0.07
			c-2.69-0.48-2.94-0.32-3.05,2.49c-0.09,2.29-0.02,4.58-0.02,7.27c-1.03-1.05-0.89-2.07-1.12-2.91c-0.67-2.42-1.16-4.89-1.72-7.34
			c-0.1-0.43-0.22-0.91-0.7-0.97c-0.6-0.07-0.61,0.6-0.7,0.91c-0.35,1.2-0.57,2.45-0.83,3.68c-0.06,0.31-0.08,0.72-0.5,0.66
			c-0.42-0.06-0.32-0.5-0.31-0.79c0.14-2.84,0.32-5.67,0.64-8.51c0.34-3.06,0.48-6.15,0.63-9.23c0.04-0.83,0.15-1.36,1.07-1.65
			c2.06-0.66,2.64-2.59,3.46-4.3C197.54,141.24,199.8,139.17,201.45,136.18z"/>
		<path class="st1" d="M98.79,134.62c0.49,0,0.46,0.29,0.51,0.55c0.55,2.84,1.04,5.69,1.67,8.51c1.45,6.54,3.77,12.72,7.94,18.06
			c6.84,8.74,14.03,17.21,19.58,26.88c0.76,1.33,1.46,2.69,2.19,4.03c0.15,0.27,0.49,0.52,0.17,0.82c-0.31,0.29-0.7,0.17-1.03-0.05
			c-1.05-0.69-1.65-1.79-2.4-2.72c-4.09-5.08-8.16-10.17-12.09-15.37c-2.61-3.45-4.99-7.08-7.45-10.65
			c-3.28-4.74-6.44-9.56-8.71-14.89c-1.52-3.57-2.08-7.33-2.4-11.19c-0.14-1.71,0.51-2.68,1.59-3.66
			C98.51,134.8,98.69,134.69,98.79,134.62z"/>
		<path class="st2" d="M207.05,72.8c-2.67,5.36-5.58,10.54-8.96,15.44c-0.64,0.93-1.25,0.98-1.72-0.06
			c-0.64-1.41-1.58-2.62-2.44-3.89c-0.3-0.44-0.5-0.74-0.02-1.22C197.86,79.12,202.18,75.64,207.05,72.8z"/>
		<path class="st3" d="M176.39,44.41c-1.29-1.02-2.04-2.52-3.1-3.75c-0.13-0.15-0.3-0.4-0.05-0.55c1.41-0.85,0.54-1.76,0.14-2.71
			c-2.86-6.8-6.1-13.42-9.4-20.01c-0.19-0.37-0.77-0.89-0.37-1.24c0.56-0.48,0.96,0.21,1.26,0.58c2.31,2.74,5.3,5,6.63,8.46
			c1.14,2.98,2.04,6.06,2.9,9.13c0.84,3.02,1.51,6.1,2.23,9.15C176.71,43.75,176.79,44.09,176.39,44.41z"/>
		<path class="st3" d="M199.35,117.31c-4.23-3.36-7.85-1.31-10.53,2.24c-0.91,1.21-2.07,2.28-2.52,3.81
			c-0.11,0.35-0.27,0.78-0.75,0.62c-0.55-0.18-0.45-0.71-0.32-1.08c0.18-0.51,0.4-1,0.32-1.54c-0.53-3.53,1.62-5.62,4.07-7.52
			c1.08-0.84,2.1-1.73,3.68-1.59c0.94,0.08,1.77,0.19,2.47,0.83c1.3,1.2,3.15,1.81,3.9,3.6
			C199.56,116.89,199.46,117.1,199.35,117.31z"/>
		<path class="st3" d="M183.19,121.87c-0.88-0.97-0.61-2.04-0.76-2.88c-0.24-1.38-0.59-2.79-0.64-4.21
			c-0.09-2.9-0.86-5.68-1.37-8.51c-0.08-0.45-0.25-0.83,0.16-1.1c0.37-0.24,0.69,0.06,0.99,0.29c0.79,0.62,1.54,1.32,2.41,1.83
			c1.44,0.84,1.94,2.01,1.58,3.6C184.76,114.46,184.34,118.12,183.19,121.87z"/>
		<path class="st4" d="M212.17,81.72c-0.33,1.8-1.82,2.86-2.88,4.12c-2.57,3.07-5.19,6.13-8.61,8.92c1.09-3.58,1.87-6.82,5.14-8.76
			c1.86-1.1,3.5-2.58,5.22-3.91c0.36-0.28,0.7-0.48,1.16-0.35L212.17,81.72z"/>
		<path class="st5" d="M156.89,240.79c-0.75-7.76,2.4-14.48,5.25-21.28c0.27,0.07,0.54,0.15,0.81,0.22
			C160.84,226.72,158.79,233.72,156.89,240.79z"/>
		<path class="st6" d="M199.35,117.31c0.1-0.21,0.21-0.42,0.31-0.63c0.86,3.11,2.07,6.19,0.63,9.5c-0.33-1.51-0.37-3.09-1.23-4.44
			c-0.11-0.17-0.07-0.47,0.21-0.49c1.27-0.05,0.74-1.06,0.61-1.48C199.61,118.97,199.57,118.13,199.35,117.31z"/>
		<path class="st7" d="M197.5,121.83c1.05,0.9,1.88,3.56,1.55,4.55c-0.07,0.22-0.16,0.42-0.4,0.38c-0.29-0.05-0.39-0.33-0.44-0.59
			C197.99,124.79,197.76,123.41,197.5,121.83z"/>
		<path class="st8" d="M100.64,173.4c0.04-0.24,0.37-0.7-0.27-0.5c-0.46,0.14-0.9,0.2-1.37,0.14c1.56-0.9,3.17-1.56,5.02-0.94
			C102.9,172.6,101.89,173.3,100.64,173.4z"/>
		<path class="st9" d="M154.31,102.27c0.64,0.15,1.13,0.49,1.1,1.05c-0.03,0.6-0.5,1.14-1.15,1.09c-0.53-0.04-1.02-0.47-0.97-1.08
			C153.35,102.74,153.85,102.47,154.31,102.27z"/>
		<path class="st7" d="M195.14,125.05c1.43,0.16,1.95,1.32,2.72,2.2c0.23,0.26,0.12,0.63-0.2,0.82c-0.29,0.17-0.53-0.05-0.67-0.26
			C196.36,126.91,195.76,125.98,195.14,125.05z"/>
		<path class="st4" d="M212.19,81.74c-0.05-0.79,0.78-0.68,1.09-1.1c-0.06,0.69-0.39,1.08-1.11,1.07
			C212.17,81.72,212.19,81.74,212.19,81.74z"/>
		<path class="st10" d="M112.21,83.82c1.02,1.04,1.61,2.01,2.48,2.62c-0.08,0.41-0.32,0.38-0.51,0.46c-0.82,0.32-1.82,0.79-2.48,0.3
			c-0.65-0.49,0.17-1.31,0.35-1.99C112.15,84.86,112.14,84.48,112.21,83.82z"/>
	</g>
</g>
</svg>
